<?xml version='1.0' encoding='utf-8'?>
<mlt LC_NUMERIC="en_US.UTF-8" producer="main_bin" version="7.19.0" root="C:/Users/PC/Videos/Brunei">
 <profile frame_rate_num="30" sample_aspect_num="1" display_aspect_den="3" colorspace="709" progressive="1" description="480x360 30.00fps" display_aspect_num="4" frame_rate_den="1" width="480" height="360" sample_aspect_den="1"/>
 <chain id="chain0" out="00:01:12.733">
  <property name="length">2183</property>
  <property name="eof">pause</property>
  <property name="resource">C:/Users/PC/Downloads/Oil and Gas Brunei Darussalam.mp4</property>
  <property name="mlt_service">avformat-novalidate</property>
  <property name="meta.media.nb_streams">2</property>
  <property name="meta.media.0.stream.type">video</property>
  <property name="meta.media.0.stream.frame_rate">30</property>
  <property name="meta.media.0.stream.sample_aspect_ratio">0</property>
  <property name="meta.media.0.codec.width">480</property>
  <property name="meta.media.0.codec.height">360</property>
  <property name="meta.media.0.codec.rotate">0</property>
  <property name="meta.media.0.codec.pix_fmt">yuv420p</property>
  <property name="meta.media.0.codec.sample_aspect_ratio">1</property>
  <property name="meta.media.0.codec.colorspace">709</property>
  <property name="meta.media.0.codec.color_trc">1</property>
  <property name="meta.media.0.codec.name">h264</property>
  <property name="meta.media.0.codec.long_name">H.264 / AVC / MPEG-4 AVC / MPEG-4 part 10</property>
  <property name="meta.media.0.codec.bit_rate">302542</property>
  <property name="meta.attr.0.stream.creation_time.markup">2023-11-24T13:24:46.000000Z</property>
  <property name="meta.attr.0.stream.handler_name.markup">ISO Media file produced by Google Inc. Created on: 11/24/2023.</property>
  <property name="meta.attr.0.stream.vendor_id.markup">[0][0][0][0]</property>
  <property name="meta.media.1.stream.type">audio</property>
  <property name="meta.media.1.codec.sample_fmt">fltp</property>
  <property name="meta.media.1.codec.sample_rate">44100</property>
  <property name="meta.media.1.codec.channels">2</property>
  <property name="meta.media.1.codec.name">aac</property>
  <property name="meta.media.1.codec.long_name">AAC (Advanced Audio Coding)</property>
  <property name="meta.media.1.codec.bit_rate">128043</property>
  <property name="meta.attr.1.stream.creation_time.markup">2023-11-24T13:24:46.000000Z</property>
  <property name="meta.attr.1.stream.handler_name.markup">ISO Media file produced by Google Inc. Created on: 11/24/2023.</property>
  <property name="meta.attr.1.stream.vendor_id.markup">[0][0][0][0]</property>
  <property name="meta.attr.major_brand.markup">mp42</property>
  <property name="meta.attr.minor_version.markup">0</property>
  <property name="meta.attr.compatible_brands.markup">isommp42</property>
  <property name="meta.attr.creation_time.markup">2023-11-24T13:24:46.000000Z</property>
  <property name="seekable">1</property>
  <property name="meta.media.sample_aspect_num">1</property>
  <property name="meta.media.sample_aspect_den">1</property>
  <property name="astream">0</property>
  <property name="vstream">0</property>
  <property name="audio_index">1</property>
  <property name="video_index">0</property>
  <property name="meta.media.frame_rate_num">30</property>
  <property name="meta.media.frame_rate_den">1</property>
  <property name="meta.media.colorspace">709</property>
  <property name="meta.media.color_trc">1</property>
  <property name="meta.media.has_b_frames">1</property>
  <property name="meta.media.width">480</property>
  <property name="meta.media.height">360</property>
  <property name="meta.media.color_range">mpeg</property>
  <property name="kdenlive:clipname"/>
  <property name="kdenlive:clip_type">0</property>
  <property name="kdenlive:folderid">-1</property>
  <property name="kdenlive:id">4</property>
  <property name="mute_on_pause">0</property>
  <property name="kdenlive:file_size">3954629</property>
  <property name="kdenlive:file_hash">54cc8c559c7ca1ef0a3b52f1df63c658</property>
  <property name="kdenlive:audio_max1">254</property>
  <property name="meta.media.top_field_first">0</property>
  <property name="meta.media.progressive">1</property>
 </chain>
 <chain id="chain1" out="00:03:46.133">
  <property name="length">6785</property>
  <property name="eof">pause</property>
  <property name="resource">C:/Users/PC/Downloads/phần 2 địa.mp3</property>
  <property name="mlt_service">avformat</property>
  <property name="meta.media.nb_streams">1</property>
  <property name="meta.media.0.stream.type">audio</property>
  <property name="meta.media.0.codec.sample_fmt">fltp</property>
  <property name="meta.media.0.codec.sample_rate">48000</property>
  <property name="meta.media.0.codec.channels">2</property>
  <property name="meta.media.0.codec.name">mp3float</property>
  <property name="meta.media.0.codec.long_name">MP3 (MPEG audio layer 3)</property>
  <property name="meta.media.0.codec.bit_rate">320000</property>
  <property name="seekable">1</property>
  <property name="astream">0</property>
  <property name="vstream">-1</property>
  <property name="audio_index">0</property>
  <property name="video_index">-1</property>
  <property name="kdenlive:clipname"/>
  <property name="kdenlive:clip_type">1</property>
  <property name="kdenlive:folderid">-1</property>
  <property name="kdenlive:id">5</property>
  <property name="kdenlive:file_size">9046234</property>
  <property name="kdenlive:file_hash">042b96551dedab446406bc1ab213cd43</property>
  <property name="kdenlive:audio_max0">172</property>
 </chain>
 <chain id="chain2" out="00:05:04.333">
  <property name="length">9131</property>
  <property name="eof">pause</property>
  <property name="resource">C:/Users/PC/Downloads/3 Kinh tế Brunei.m4a</property>
  <property name="mlt_service">avformat</property>
  <property name="meta.media.nb_streams">1</property>
  <property name="meta.media.0.stream.type">audio</property>
  <property name="meta.media.0.codec.sample_fmt">fltp</property>
  <property name="meta.media.0.codec.sample_rate">48000</property>
  <property name="meta.media.0.codec.channels">1</property>
  <property name="meta.media.0.codec.name">aac</property>
  <property name="meta.media.0.codec.long_name">AAC (Advanced Audio Coding)</property>
  <property name="meta.media.0.codec.bit_rate">96001</property>
  <property name="meta.attr.0.stream.creation_time.markup">2023-12-04T12:58:48.000000Z</property>
  <property name="meta.attr.0.stream.language.markup">eng</property>
  <property name="meta.attr.0.stream.handler_name.markup">SoundHandle</property>
  <property name="meta.attr.0.stream.vendor_id.markup">[0][0][0][0]</property>
  <property name="meta.attr.major_brand.markup">mp42</property>
  <property name="meta.attr.minor_version.markup">0</property>
  <property name="meta.attr.compatible_brands.markup">isommp42</property>
  <property name="meta.attr.creation_time.markup">2023-12-04T12:58:48.000000Z</property>
  <property name="meta.attr.com.android.version.markup">11</property>
  <property name="seekable">1</property>
  <property name="astream">0</property>
  <property name="vstream">-1</property>
  <property name="audio_index">0</property>
  <property name="video_index">-1</property>
  <property name="kdenlive:clipname"/>
  <property name="kdenlive:clip_type">1</property>
  <property name="kdenlive:folderid">-1</property>
  <property name="kdenlive:id">6</property>
  <property name="kdenlive:file_size">3713325</property>
  <property name="kdenlive:file_hash">0bfc410419a33aa98a8291870d988e1e</property>
  <property name="kdenlive:audio_max0">200</property>
 </chain>
 <chain id="chain8" out="00:01:36.600">
  <property name="length">2899</property>
  <property name="eof">pause</property>
  <property name="resource">C:/Users/PC/Downloads/Brunei Darussalam in 4K.mp4</property>
  <property name="mlt_service">avformat-novalidate</property>
  <property name="meta.media.nb_streams">2</property>
  <property name="meta.media.0.stream.type">video</property>
  <property name="meta.media.0.stream.frame_rate">23.976</property>
  <property name="meta.media.0.stream.sample_aspect_ratio">0</property>
  <property name="meta.media.0.codec.width">1280</property>
  <property name="meta.media.0.codec.height">720</property>
  <property name="meta.media.0.codec.rotate">0</property>
  <property name="meta.media.0.codec.pix_fmt">yuv420p</property>
  <property name="meta.media.0.codec.sample_aspect_ratio">1</property>
  <property name="meta.media.0.codec.colorspace">709</property>
  <property name="meta.media.0.codec.color_trc">1</property>
  <property name="meta.media.0.codec.name">h264</property>
  <property name="meta.media.0.codec.long_name">H.264 / AVC / MPEG-4 AVC / MPEG-4 part 10</property>
  <property name="meta.media.0.codec.bit_rate">2039862</property>
  <property name="meta.attr.0.stream.creation_time.markup">2019-11-10T07:27:55.000000Z</property>
  <property name="meta.attr.0.stream.handler_name.markup">ISO Media file produced by Google Inc. Created on: 11/09/2019.</property>
  <property name="meta.attr.0.stream.vendor_id.markup">[0][0][0][0]</property>
  <property name="meta.media.1.stream.type">audio</property>
  <property name="meta.media.1.codec.sample_fmt">fltp</property>
  <property name="meta.media.1.codec.sample_rate">44100</property>
  <property name="meta.media.1.codec.channels">2</property>
  <property name="meta.media.1.codec.name">aac</property>
  <property name="meta.media.1.codec.long_name">AAC (Advanced Audio Coding)</property>
  <property name="meta.media.1.codec.bit_rate">128031</property>
  <property name="meta.attr.1.stream.creation_time.markup">2019-11-10T07:27:55.000000Z</property>
  <property name="meta.attr.1.stream.language.markup">eng</property>
  <property name="meta.attr.1.stream.handler_name.markup">ISO Media file produced by Google Inc. Created on: 11/09/2019.</property>
  <property name="meta.attr.1.stream.vendor_id.markup">[0][0][0][0]</property>
  <property name="meta.attr.major_brand.markup">mp42</property>
  <property name="meta.attr.minor_version.markup">0</property>
  <property name="meta.attr.compatible_brands.markup">isommp42</property>
  <property name="meta.attr.creation_time.markup">2019-11-10T07:27:55.000000Z</property>
  <property name="seekable">1</property>
  <property name="meta.media.sample_aspect_num">1</property>
  <property name="meta.media.sample_aspect_den">1</property>
  <property name="astream">0</property>
  <property name="vstream">0</property>
  <property name="audio_index">1</property>
  <property name="video_index">0</property>
  <property name="meta.media.frame_rate_num">24000</property>
  <property name="meta.media.frame_rate_den">1001</property>
  <property name="meta.media.colorspace">709</property>
  <property name="meta.media.color_trc">1</property>
  <property name="meta.media.has_b_frames">1</property>
  <property name="meta.media.width">1280</property>
  <property name="meta.media.height">720</property>
  <property name="meta.media.color_range">mpeg</property>
  <property name="kdenlive:clipname"/>
  <property name="meta.media.top_field_first">0</property>
  <property name="meta.media.progressive">1</property>
  <property name="kdenlive:clip_type">0</property>
  <property name="kdenlive:folderid">-1</property>
  <property name="kdenlive:id">8</property>
  <property name="mute_on_pause">0</property>
  <property name="kdenlive:file_size">26218593</property>
  <property name="kdenlive:file_hash">c65b351157bbd88a8185b40f39e0700e</property>
  <property name="kdenlive:audio_max1">245</property>
  <property name="kdenlive:zone_in">0</property>
  <property name="kdenlive:zone_out">2899</property>
 </chain>
 <chain id="chain9" out="00:04:47.167">
  <property name="length">8616</property>
  <property name="eof">pause</property>
  <property name="resource">C:/Users/PC/Downloads/Brunei 2023 _ Tourism _ Southeast Asia _ Travel Guide _ Free Stock Footage _ No Copyright Video.mp4</property>
  <property name="mlt_service">avformat-novalidate</property>
  <property name="meta.media.nb_streams">2</property>
  <property name="meta.media.0.stream.type">video</property>
  <property name="meta.media.0.stream.frame_rate">24</property>
  <property name="meta.media.0.stream.sample_aspect_ratio">0</property>
  <property name="meta.media.0.codec.width">1280</property>
  <property name="meta.media.0.codec.height">720</property>
  <property name="meta.media.0.codec.rotate">0</property>
  <property name="meta.media.0.codec.pix_fmt">yuv420p</property>
  <property name="meta.media.0.codec.sample_aspect_ratio">1</property>
  <property name="meta.media.0.codec.colorspace">709</property>
  <property name="meta.media.0.codec.color_trc">1</property>
  <property name="meta.media.0.codec.name">h264</property>
  <property name="meta.media.0.codec.long_name">H.264 / AVC / MPEG-4 AVC / MPEG-4 part 10</property>
  <property name="meta.media.0.codec.bit_rate">1437913</property>
  <property name="meta.attr.0.stream.creation_time.markup">2023-11-17T07:42:25.000000Z</property>
  <property name="meta.attr.0.stream.handler_name.markup">ISO Media file produced by Google Inc. Created on: 11/16/2023.</property>
  <property name="meta.attr.0.stream.vendor_id.markup">[0][0][0][0]</property>
  <property name="meta.media.1.stream.type">audio</property>
  <property name="meta.media.1.codec.sample_fmt">fltp</property>
  <property name="meta.media.1.codec.sample_rate">44100</property>
  <property name="meta.media.1.codec.channels">2</property>
  <property name="meta.media.1.codec.name">aac</property>
  <property name="meta.media.1.codec.long_name">AAC (Advanced Audio Coding)</property>
  <property name="meta.media.1.codec.bit_rate">128014</property>
  <property name="meta.attr.1.stream.creation_time.markup">2023-11-17T07:42:25.000000Z</property>
  <property name="meta.attr.1.stream.language.markup">eng</property>
  <property name="meta.attr.1.stream.handler_name.markup">ISO Media file produced by Google Inc. Created on: 11/16/2023.</property>
  <property name="meta.attr.1.stream.vendor_id.markup">[0][0][0][0]</property>
  <property name="meta.attr.major_brand.markup">mp42</property>
  <property name="meta.attr.minor_version.markup">0</property>
  <property name="meta.attr.compatible_brands.markup">isommp42</property>
  <property name="meta.attr.creation_time.markup">2023-11-17T07:42:25.000000Z</property>
  <property name="seekable">1</property>
  <property name="meta.media.sample_aspect_num">1</property>
  <property name="meta.media.sample_aspect_den">1</property>
  <property name="astream">0</property>
  <property name="vstream">0</property>
  <property name="audio_index">1</property>
  <property name="video_index">0</property>
  <property name="meta.media.frame_rate_num">24</property>
  <property name="meta.media.frame_rate_den">1</property>
  <property name="meta.media.colorspace">709</property>
  <property name="meta.media.color_trc">1</property>
  <property name="meta.media.has_b_frames">1</property>
  <property name="meta.media.width">1280</property>
  <property name="meta.media.height">720</property>
  <property name="meta.media.color_range">mpeg</property>
  <property name="kdenlive:clipname"/>
  <property name="meta.media.top_field_first">0</property>
  <property name="meta.media.progressive">1</property>
  <property name="kdenlive:clip_type">0</property>
  <property name="kdenlive:folderid">-1</property>
  <property name="kdenlive:id">9</property>
  <property name="mute_on_pause">0</property>
  <property name="kdenlive:file_size">56320939</property>
  <property name="kdenlive:file_hash">f54e4a7bbcfab17720218011c5f337e8</property>
  <property name="kdenlive:audio_max1">251</property>
 </chain>
 <chain id="chain10" out="00:05:07.933">
  <property name="length">9239</property>
  <property name="eof">pause</property>
  <property name="resource">C:/Users/PC/Downloads/Brunei Tourism Promotional Video.mp4</property>
  <property name="mlt_service">avformat-novalidate</property>
  <property name="meta.media.nb_streams">2</property>
  <property name="meta.media.0.stream.type">video</property>
  <property name="meta.media.0.stream.frame_rate">25</property>
  <property name="meta.media.0.stream.sample_aspect_ratio">0</property>
  <property name="meta.media.0.codec.width">1280</property>
  <property name="meta.media.0.codec.height">720</property>
  <property name="meta.media.0.codec.rotate">0</property>
  <property name="meta.media.0.codec.pix_fmt">yuv420p</property>
  <property name="meta.media.0.codec.sample_aspect_ratio">1</property>
  <property name="meta.media.0.codec.colorspace">709</property>
  <property name="meta.media.0.codec.color_trc">1</property>
  <property name="meta.media.0.codec.name">h264</property>
  <property name="meta.media.0.codec.long_name">H.264 / AVC / MPEG-4 AVC / MPEG-4 part 10</property>
  <property name="meta.media.0.codec.bit_rate">1836177</property>
  <property name="meta.attr.0.stream.creation_time.markup">2023-12-01T20:05:33.000000Z</property>
  <property name="meta.attr.0.stream.handler_name.markup">ISO Media file produced by Google Inc. Created on: 12/01/2023.</property>
  <property name="meta.attr.0.stream.vendor_id.markup">[0][0][0][0]</property>
  <property name="meta.media.1.stream.type">audio</property>
  <property name="meta.media.1.codec.sample_fmt">fltp</property>
  <property name="meta.media.1.codec.sample_rate">44100</property>
  <property name="meta.media.1.codec.channels">2</property>
  <property name="meta.media.1.codec.name">aac</property>
  <property name="meta.media.1.codec.long_name">AAC (Advanced Audio Coding)</property>
  <property name="meta.media.1.codec.bit_rate">127999</property>
  <property name="meta.attr.1.stream.creation_time.markup">2023-12-01T20:05:33.000000Z</property>
  <property name="meta.attr.1.stream.language.markup">eng</property>
  <property name="meta.attr.1.stream.handler_name.markup">ISO Media file produced by Google Inc. Created on: 12/01/2023.</property>
  <property name="meta.attr.1.stream.vendor_id.markup">[0][0][0][0]</property>
  <property name="meta.attr.major_brand.markup">mp42</property>
  <property name="meta.attr.minor_version.markup">0</property>
  <property name="meta.attr.compatible_brands.markup">isommp42</property>
  <property name="meta.attr.creation_time.markup">2023-12-01T20:05:33.000000Z</property>
  <property name="seekable">1</property>
  <property name="meta.media.sample_aspect_num">1</property>
  <property name="meta.media.sample_aspect_den">1</property>
  <property name="astream">0</property>
  <property name="vstream">0</property>
  <property name="audio_index">1</property>
  <property name="video_index">0</property>
  <property name="meta.media.frame_rate_num">25</property>
  <property name="meta.media.frame_rate_den">1</property>
  <property name="meta.media.colorspace">709</property>
  <property name="meta.media.color_trc">1</property>
  <property name="meta.media.has_b_frames">1</property>
  <property name="meta.media.width">1280</property>
  <property name="meta.media.height">720</property>
  <property name="meta.media.color_range">mpeg</property>
  <property name="kdenlive:clipname"/>
  <property name="meta.media.top_field_first">0</property>
  <property name="meta.media.progressive">1</property>
  <property name="kdenlive:clip_type">0</property>
  <property name="kdenlive:folderid">-1</property>
  <property name="kdenlive:id">10</property>
  <property name="mute_on_pause">0</property>
  <property name="kdenlive:file_size">75750876</property>
  <property name="kdenlive:file_hash">6ad5a873d3d8033cf61a8b3afe26922b</property>
  <property name="kdenlive:audio_max1">228</property>
 </chain>
 <producer id="producer8" in="00:00:00.000" out="00:00:04.967">
  <property name="length">150</property>
  <property name="eof">loop</property>
  <property name="resource">C:/Users/PC/Videos/animations/Intro2.json</property>
  <property name="background">#00000000</property>
  <property name="aspect_ratio">1</property>
  <property name="progressive">1</property>
  <property name="seekable">1</property>
  <property name="meta.media.width">480</property>
  <property name="meta.media.height">360</property>
  <property name="meta.media.sample_aspect_num">1</property>
  <property name="meta.media.sample_aspect_den">1</property>
  <property name="meta.media.frame_rate">30</property>
  <property name="first_frame">0</property>
  <property name="mlt_service">glaxnimate</property>
  <property name="kdenlive:folderid">11</property>
  <property name="kdenlive:clipname"/>
  <property name="kdenlive:id">12</property>
  <property name="kdenlive:clip_type">2</property>
  <property name="kdenlive:file_size">1092</property>
  <property name="kdenlive:file_hash">9fe48e4591fd2e03dc12e671c9957501</property>
 </producer>
 <producer id="producer2" in="00:00:00.000" out="00:00:04.967">
  <property name="length">150</property>
  <property name="eof">pause</property>
  <property name="resource"/>
  <property name="meta.media.progressive">1</property>
  <property name="aspect_ratio">1</property>
  <property name="seekable">1</property>
  <property name="mlt_service">kdenlivetitle</property>
  <property name="kdenlive:duration">00:00:05:00</property>
  <property name="kdenlive:clipname">Number2</property>
  <property name="xmldata">&lt;kdenlivetitle duration="150" LC_NUMERIC="C" width="480" height="360" out="149">&#xd;
 &lt;item type="QGraphicsTextItem" z-index="2">&#xd;
  &lt;position x="181" y="29">&#xd;
   &lt;transform>1,0,0,0,1,0,0,0,1&lt;/transform>&#xd;
  &lt;/position>&#xd;
  &lt;content line-spacing="0" shadow="0;#64000000;3;3;3" font-underline="0" box-height="302" font-outline-color="255,255,255,255" font="Prompt" letter-spacing="0" font-pixel-size="200" font-italic="0" typewriter="0;2;1;0;0" alignment="1" font-weight="50" font-outline="0" box-width="117" font-color="0,0,0,255">2&lt;/content>&#xd;
 &lt;/item>&#xd;
 &lt;item type="QGraphicsEllipseItem" z-index="1">&#xd;
  &lt;position x="110" y="52">&#xd;
   &lt;transform zoom="100">1,0,0,0,1,0,0,0,1&lt;/transform>&#xd;
  &lt;/position>&#xd;
  &lt;content brushcolor="239,239,239,255" pencolor="0,0,0,255" penwidth="0" rect="0,0,260.156,256"/>&#xd;
 &lt;/item>&#xd;
 &lt;startviewport rect="0,0,480,360"/>&#xd;
 &lt;endviewport rect="0,0,480,360"/>&#xd;
 &lt;background color="204,239,229,0"/>&#xd;
&lt;/kdenlivetitle>&#xd;
</property>
  <property name="kdenlive:folderid">-1</property>
  <property name="kdenlive:id">13</property>
  <property name="kdenlive:clip_type">2</property>
  <property name="kdenlive:file_hash">838651d9b2d1f8a363e76128d2fb7055</property>
  <property name="force_reload">0</property>
  <property name="meta.media.width">480</property>
  <property name="meta.media.height">360</property>
 </producer>
 <producer id="producer3" in="00:00:00.000" out="00:00:04.967">
  <property name="length">150</property>
  <property name="eof">pause</property>
  <property name="resource"/>
  <property name="meta.media.progressive">1</property>
  <property name="aspect_ratio">1</property>
  <property name="seekable">1</property>
  <property name="mlt_service">kdenlivetitle</property>
  <property name="kdenlive:duration">00:00:05:00</property>
  <property name="kdenlive:clipname">Dân cư, chín...</property>
  <property name="xmldata">&lt;kdenlivetitle duration="150" LC_NUMERIC="C" width="480" height="360" out="149">&#xd;
 &lt;item type="QGraphicsTextItem" z-index="0">&#xd;
  &lt;position x="27" y="106">&#xd;
   &lt;transform>1,0,0,0,1,0,0,0,1&lt;/transform>&#xd;
  &lt;/position>&#xd;
  &lt;content line-spacing="0" shadow="0;#64000000;3;3;3" font-underline="0" box-height="148" font-outline-color="255,255,255,255" font="Prompt" letter-spacing="0" font-pixel-size="49" font-italic="0" typewriter="0;2;1;0;0" alignment="1" font-weight="50" font-outline="0" box-width="426" font-color="255,255,255,255">Dân cư, chính trị,&#xd;
xã hội&lt;/content>&#xd;
 &lt;/item>&#xd;
 &lt;startviewport rect="0,0,480,360"/>&#xd;
 &lt;endviewport rect="0,0,480,360"/>&#xd;
 &lt;background color="204,239,229,0"/>&#xd;
&lt;/kdenlivetitle>&#xd;
</property>
  <property name="kdenlive:folderid">-1</property>
  <property name="kdenlive:id">14</property>
  <property name="kdenlive:clip_type">2</property>
  <property name="kdenlive:file_hash">75fc2aaef3742b24180bac70457d19e9</property>
  <property name="force_reload">0</property>
  <property name="meta.media.width">480</property>
  <property name="meta.media.height">360</property>
 </producer>
 <chain id="chain11" out="00:01:44.200">
  <property name="length">3127</property>
  <property name="eof">pause</property>
  <property name="resource">C:/Users/PC/Downloads/y2mate.com - 20 aesthetic transition pack green screen _1080pFHR.mp4</property>
  <property name="mlt_service">avformat-novalidate</property>
  <property name="meta.media.nb_streams">2</property>
  <property name="meta.media.0.stream.type">video</property>
  <property name="meta.media.0.stream.frame_rate">60</property>
  <property name="meta.media.0.stream.sample_aspect_ratio">1</property>
  <property name="meta.media.0.codec.width">1920</property>
  <property name="meta.media.0.codec.height">1080</property>
  <property name="meta.media.0.codec.rotate">0</property>
  <property name="meta.media.0.codec.pix_fmt">yuv420p</property>
  <property name="meta.media.0.codec.sample_aspect_ratio">1</property>
  <property name="meta.media.0.codec.colorspace">601</property>
  <property name="meta.media.0.codec.color_trc">1</property>
  <property name="meta.media.0.codec.name">h264</property>
  <property name="meta.media.0.codec.long_name">H.264 / AVC / MPEG-4 AVC / MPEG-4 part 10</property>
  <property name="meta.media.0.codec.bit_rate">667633</property>
  <property name="meta.attr.0.stream.handler_name.markup">ISO Media file produced by Google Inc.</property>
  <property name="meta.attr.0.stream.vendor_id.markup">[0][0][0][0]</property>
  <property name="meta.media.1.stream.type">audio</property>
  <property name="meta.media.1.codec.sample_fmt">fltp</property>
  <property name="meta.media.1.codec.sample_rate">44100</property>
  <property name="meta.media.1.codec.channels">2</property>
  <property name="meta.media.1.codec.name">aac</property>
  <property name="meta.media.1.codec.long_name">AAC (Advanced Audio Coding)</property>
  <property name="meta.media.1.codec.bit_rate">127999</property>
  <property name="meta.attr.1.stream.handler_name.markup">ISO Media file produced by Google Inc.</property>
  <property name="meta.attr.1.stream.vendor_id.markup">[0][0][0][0]</property>
  <property name="meta.attr.major_brand.markup">isom</property>
  <property name="meta.attr.minor_version.markup">512</property>
  <property name="meta.attr.compatible_brands.markup">isomiso2avc1mp41</property>
  <property name="meta.attr.encoder.markup">Lavf58.19.102</property>
  <property name="seekable">1</property>
  <property name="meta.media.sample_aspect_num">1</property>
  <property name="meta.media.sample_aspect_den">1</property>
  <property name="astream">0</property>
  <property name="vstream">0</property>
  <property name="audio_index">1</property>
  <property name="video_index">0</property>
  <property name="meta.media.frame_rate_num">60</property>
  <property name="meta.media.frame_rate_den">1</property>
  <property name="meta.media.colorspace">601</property>
  <property name="meta.media.color_trc">1</property>
  <property name="meta.media.has_b_frames">1</property>
  <property name="meta.media.width">1920</property>
  <property name="meta.media.height">1080</property>
  <property name="meta.media.color_range">mpeg</property>
  <property name="kdenlive:clipname"/>
  <property name="meta.media.top_field_first">0</property>
  <property name="meta.media.progressive">1</property>
  <property name="kdenlive:clip_type">0</property>
  <property name="kdenlive:folderid">-1</property>
  <property name="kdenlive:id">15</property>
  <property name="mute_on_pause">0</property>
  <property name="kdenlive:file_size">10499804</property>
  <property name="kdenlive:file_hash">d7a9e3f27259167e78b59b1c31f8c3d5</property>
  <property name="kdenlive:audio_max1">204</property>
 </chain>
 <producer id="producer4" in="00:00:00.000" out="00:00:07.500">
  <property name="length">226</property>
  <property name="eof">pause</property>
  <property name="resource"/>
  <property name="meta.media.progressive">1</property>
  <property name="aspect_ratio">1</property>
  <property name="seekable">1</property>
  <property name="mlt_service">kdenlivetitle</property>
  <property name="kdenlive:duration">00:00:05:00</property>
  <property name="kdenlive:clipname">Dân số hiện ...</property>
  <property name="xmldata">&lt;kdenlivetitle duration="150" LC_NUMERIC="C" width="480" height="360" out="149">&#xd;
 &lt;item type="QGraphicsTextItem" z-index="0">&#xd;
  &lt;position x="59" y="106">&#xd;
   &lt;transform>1,0,0,0,1,0,0,0,1&lt;/transform>&#xd;
  &lt;/position>&#xd;
  &lt;content line-spacing="0" shadow="0;#64000000;3;3;3" font-underline="0" box-height="148" font-outline-color="0,0,0,255" font="Prompt" letter-spacing="0" font-pixel-size="49" font-italic="0" typewriter="1;2;1;0;0" alignment="4" font-weight="50" font-outline="10" box-width="366" font-color="255,255,255,255">Dân số hiện tại&#xd;
của Brunei&lt;/content>&#xd;
 &lt;/item>&#xd;
 &lt;startviewport rect="0,0,480,360"/>&#xd;
 &lt;endviewport rect="0,0,480,360"/>&#xd;
 &lt;background color="204,239,229,0"/>&#xd;
&lt;/kdenlivetitle>&#xd;
</property>
  <property name="kdenlive:folderid">-1</property>
  <property name="kdenlive:id">16</property>
  <property name="kdenlive:clip_type">2</property>
  <property name="kdenlive:file_hash">13d0f79dbeec3443d44073c7aac185b2</property>
  <property name="force_reload">0</property>
  <property name="meta.media.width">480</property>
  <property name="meta.media.height">360</property>
 </producer>
 <producer id="producer9" in="00:00:00.000" out="00:00:00.133">
  <property name="length">5</property>
  <property name="eof">pause</property>
  <property name="resource">Counters/1.mlt</property>
  <property name="mlt_service">xml</property>
  <property name="xml">was here</property>
  <property name="seekable">1</property>
  <property name="kdenlive:clipname"/>
  <property name="kdenlive:folderid">20</property>
  <property name="kdenlive:id">17</property>
  <property name="kdenlive:clip_type">0</property>
  <property name="kdenlive:file_size">899</property>
  <property name="kdenlive:file_hash">c92a3c8f8ec5bae1b11ca586b41ada3f</property>
  <property name="kdenlive:audio_max0">1</property>
  <property name="kdenlive:clipzones">[&#xd;
    {&#xd;
        "in": 0,&#xd;
        "name": "Zone 1",&#xd;
        "out": 4&#xd;
    }&#xd;
]&#xd;
</property>
 </producer>
 <producer id="producer10" in="00:00:00.000" out="00:00:00.167">
  <property name="length">6</property>
  <property name="eof">pause</property>
  <property name="resource">Counters/2.mlt</property>
  <property name="mlt_service">xml</property>
  <property name="xml">was here</property>
  <property name="seekable">1</property>
  <property name="kdenlive:clipname"/>
  <property name="kdenlive:folderid">20</property>
  <property name="kdenlive:id">19</property>
  <property name="kdenlive:clip_type">0</property>
  <property name="kdenlive:file_size">899</property>
  <property name="kdenlive:file_hash">1334b314aeb6214ea5172fe4b4a0140a</property>
  <property name="kdenlive:audio_max0">1</property>
 </producer>
 <producer id="producer11" in="00:00:00.000" out="00:00:00.000">
  <property name="length">1</property>
  <property name="eof">pause</property>
  <property name="resource">Counters/3.mlt</property>
  <property name="mlt_service">xml</property>
  <property name="xml">was here</property>
  <property name="seekable">1</property>
  <property name="kdenlive:clipname"/>
  <property name="kdenlive:folderid">20</property>
  <property name="kdenlive:id">21</property>
  <property name="kdenlive:clip_type">0</property>
  <property name="kdenlive:file_size">899</property>
  <property name="kdenlive:file_hash">f961b2f5201a575379aa9b98b8b897a6</property>
  <property name="kdenlive:audio_max0">1</property>
 </producer>
 <producer id="producer12" in="00:00:00.000" out="00:00:00.200">
  <property name="length">7</property>
  <property name="eof">pause</property>
  <property name="resource">Counters/4.mlt</property>
  <property name="mlt_service">xml</property>
  <property name="xml">was here</property>
  <property name="seekable">1</property>
  <property name="kdenlive:clipname"/>
  <property name="kdenlive:folderid">20</property>
  <property name="kdenlive:id">22</property>
  <property name="kdenlive:clip_type">0</property>
  <property name="kdenlive:file_size">899</property>
  <property name="kdenlive:file_hash">28508ba9b7d39fba9ad34b203ff4300b</property>
  <property name="kdenlive:audio_max0">1</property>
 </producer>
 <producer id="producer13" in="00:00:00.000" out="00:00:00.300">
  <property name="length">10</property>
  <property name="eof">pause</property>
  <property name="resource">Counters/5.mlt</property>
  <property name="mlt_service">xml</property>
  <property name="xml">was here</property>
  <property name="seekable">1</property>
  <property name="kdenlive:clipname"/>
  <property name="kdenlive:folderid">20</property>
  <property name="kdenlive:id">23</property>
  <property name="kdenlive:clip_type">0</property>
  <property name="kdenlive:file_size">900</property>
  <property name="kdenlive:file_hash">177e24738f013c35a289559e05992734</property>
  <property name="kdenlive:audio_max0">1</property>
 </producer>
 <producer id="producer15" in="00:00:00.000" out="00:00:04.967">
  <property name="length">00:00:05.000</property>
  <property name="eof">pause</property>
  <property name="resource">0xffffffff</property>
  <property name="aspect_ratio">1</property>
  <property name="mlt_service">color</property>
  <property name="kdenlive:clipname">Color Clip</property>
  <property name="kdenlive:duration">00:00:05:00</property>
  <property name="kdenlive:folderid">-1</property>
  <property name="kdenlive:id">25</property>
  <property name="mlt_image_format">rgb</property>
  <property name="kdenlive:clip_type">2</property>
  <property name="kdenlive:file_hash">039b56a692cd66eefeea44a17539e5a2</property>
 </producer>
 <producer id="producer24" in="00:00:00.000" out="00:00:04.967">
  <property name="length">150</property>
  <property name="eof">pause</property>
  <property name="resource"/>
  <property name="meta.media.progressive">1</property>
  <property name="aspect_ratio">1</property>
  <property name="seekable">1</property>
  <property name="mlt_service">kdenlivetitle</property>
  <property name="kdenlive:duration">00:00:05:00</property>
  <property name="kdenlive:clipname">450690</property>
  <property name="xmldata">&lt;kdenlivetitle duration="150" LC_NUMERIC="C" width="480" height="360" out="149">&#xd;
 &lt;item type="QGraphicsTextItem" z-index="0">&#xd;
  &lt;position x="51" y="103">&#xd;
   &lt;transform>1,0,0,0,1,0,0,0,1&lt;/transform>&#xd;
  &lt;/position>&#xd;
  &lt;content line-spacing="0" shadow="0;#64000000;3;3;3" font-underline="0" box-height="153" font-outline-color="0,0,0,255" font="Calibri" letter-spacing="0" font-pixel-size="125" font-italic="0" typewriter="0;2;1;0;0" alignment="1" font-weight="50" font-outline="1" box-width="378" font-color="0,0,0,255">450690&lt;/content>&#xd;
 &lt;/item>&#xd;
 &lt;startviewport rect="0,0,480,360"/>&#xd;
 &lt;endviewport rect="0,0,480,360"/>&#xd;
 &lt;background color="204,239,229,0"/>&#xd;
&lt;/kdenlivetitle>&#xd;
</property>
  <property name="kdenlive:folderid">-1</property>
  <property name="kdenlive:id">26</property>
  <property name="kdenlive:clip_type">2</property>
  <property name="kdenlive:file_hash">ba6a1921d6dceb8f775eed36c4c7b2f5</property>
  <property name="force_reload">0</property>
  <property name="meta.media.width">480</property>
  <property name="meta.media.height">360</property>
 </producer>
 <producer id="producer6" in="00:00:00.000" out="00:00:04.967">
  <property name="length">150</property>
  <property name="eof">pause</property>
  <property name="resource"/>
  <property name="meta.media.progressive">1</property>
  <property name="aspect_ratio">1</property>
  <property name="seekable">1</property>
  <property name="mlt_service">kdenlivetitle</property>
  <property name="kdenlive:duration">00:00:05:00</property>
  <property name="kdenlive:clipname">450.690</property>
  <property name="xmldata">&lt;kdenlivetitle duration="150" LC_NUMERIC="C" width="480" height="360" out="149">&#xd;
 &lt;item type="QGraphicsTextItem" z-index="0">&#xd;
  &lt;position x="36" y="104">&#xd;
   &lt;transform>1,0,0,0,1,0,0,0,1&lt;/transform>&#xd;
  &lt;/position>&#xd;
  &lt;content line-spacing="0" shadow="0;#64000000;3;3;3" font-underline="0" box-height="151" font-outline-color="0,0,0,255" font="Prompt" letter-spacing="0" font-pixel-size="100" font-italic="0" typewriter="1;3;1;0;0" alignment="4" font-weight="50" font-outline="1" box-width="407" font-color="255,255,255,255">450.690&lt;/content>&#xd;
 &lt;/item>&#xd;
 &lt;startviewport rect="0,0,480,360"/>&#xd;
 &lt;endviewport rect="0,0,480,360"/>&#xd;
 &lt;background color="204,239,229,0"/>&#xd;
&lt;/kdenlivetitle>&#xd;
</property>
  <property name="kdenlive:folderid">-1</property>
  <property name="kdenlive:id">27</property>
  <property name="kdenlive:clip_type">2</property>
  <property name="kdenlive:file_hash">11ba75e5d684d305a6855e582b7ee60c</property>
  <property name="force_reload">0</property>
  <property name="meta.media.width">480</property>
  <property name="meta.media.height">360</property>
 </producer>
 <chain id="chain12" out="00:07:16.567">
  <property name="length">13098</property>
  <property name="eof">pause</property>
  <property name="resource">C:/Users/PC/Downloads/Brunei - Drone footage.mp4</property>
  <property name="mlt_service">avformat-novalidate</property>
  <property name="meta.media.nb_streams">2</property>
  <property name="meta.media.0.stream.type">video</property>
  <property name="meta.media.0.stream.frame_rate">24</property>
  <property name="meta.media.0.stream.sample_aspect_ratio">0</property>
  <property name="meta.media.0.codec.width">1280</property>
  <property name="meta.media.0.codec.height">720</property>
  <property name="meta.media.0.codec.rotate">0</property>
  <property name="meta.media.0.codec.pix_fmt">yuv420p</property>
  <property name="meta.media.0.codec.sample_aspect_ratio">1</property>
  <property name="meta.media.0.codec.colorspace">709</property>
  <property name="meta.media.0.codec.color_trc">1</property>
  <property name="meta.media.0.codec.name">h264</property>
  <property name="meta.media.0.codec.long_name">H.264 / AVC / MPEG-4 AVC / MPEG-4 part 10</property>
  <property name="meta.media.0.codec.bit_rate">2125295</property>
  <property name="meta.attr.0.stream.creation_time.markup">2020-06-14T12:17:42.000000Z</property>
  <property name="meta.attr.0.stream.handler_name.markup">ISO Media file produced by Google Inc. Created on: 06/14/2020.</property>
  <property name="meta.attr.0.stream.vendor_id.markup">[0][0][0][0]</property>
  <property name="meta.media.1.stream.type">audio</property>
  <property name="meta.media.1.codec.sample_fmt">fltp</property>
  <property name="meta.media.1.codec.sample_rate">44100</property>
  <property name="meta.media.1.codec.channels">2</property>
  <property name="meta.media.1.codec.name">aac</property>
  <property name="meta.media.1.codec.long_name">AAC (Advanced Audio Coding)</property>
  <property name="meta.media.1.codec.bit_rate">127999</property>
  <property name="meta.attr.1.stream.creation_time.markup">2020-06-14T12:17:42.000000Z</property>
  <property name="meta.attr.1.stream.language.markup">eng</property>
  <property name="meta.attr.1.stream.handler_name.markup">ISO Media file produced by Google Inc. Created on: 06/14/2020.</property>
  <property name="meta.attr.1.stream.vendor_id.markup">[0][0][0][0]</property>
  <property name="meta.attr.major_brand.markup">mp42</property>
  <property name="meta.attr.minor_version.markup">0</property>
  <property name="meta.attr.compatible_brands.markup">isommp42</property>
  <property name="meta.attr.creation_time.markup">2020-06-14T12:17:42.000000Z</property>
  <property name="seekable">1</property>
  <property name="meta.media.sample_aspect_num">1</property>
  <property name="meta.media.sample_aspect_den">1</property>
  <property name="astream">0</property>
  <property name="vstream">0</property>
  <property name="audio_index">1</property>
  <property name="video_index">0</property>
  <property name="meta.media.frame_rate_num">24</property>
  <property name="meta.media.frame_rate_den">1</property>
  <property name="meta.media.colorspace">709</property>
  <property name="meta.media.color_trc">1</property>
  <property name="meta.media.has_b_frames">1</property>
  <property name="meta.media.width">1280</property>
  <property name="meta.media.height">720</property>
  <property name="meta.media.color_range">mpeg</property>
  <property name="kdenlive:clipname"/>
  <property name="meta.media.top_field_first">0</property>
  <property name="meta.media.progressive">1</property>
  <property name="kdenlive:clip_type">0</property>
  <property name="kdenlive:folderid">-1</property>
  <property name="kdenlive:id">28</property>
  <property name="mute_on_pause">0</property>
  <property name="kdenlive:file_size">123150805</property>
  <property name="kdenlive:file_hash">fb74fc17511c5669a7b61e5b98d8d58b</property>
  <property name="kdenlive:audio_max1">244</property>
  <property name="kdenlive:zone_in">6861</property>
  <property name="kdenlive:zone_out">7407</property>
  <property name="kdenlive:clipzones">[&#xd;
    {&#xd;
        "in": 6861,&#xd;
        "name": "Zone 1",&#xd;
        "out": 7406&#xd;
    }&#xd;
]&#xd;
</property>
 </chain>
 <producer id="producer25" in="00:00:00.000" out="00:16:45.000">
  <property name="length">2147483647</property>
  <property name="eof">continue</property>
  <property name="resource">0</property>
  <property name="aspect_ratio">1</property>
  <property name="mlt_service">color</property>
  <property name="kdenlive:playlistid">black_track</property>
  <property name="mlt_image_format">rgba</property>
  <property name="set.test_audio">0</property>
 </producer>
 <playlist id="playlist44"/>
 <playlist id="playlist45"/>
 <tractor id="tractor22" in="00:00:00.000">
  <property name="kdenlive:audio_track">1</property>
  <property name="kdenlive:trackheight">67</property>
  <property name="kdenlive:timeline_active">1</property>
  <property name="kdenlive:thumbs_format"/>
  <property name="kdenlive:audio_rec"/>
  <track hide="video" producer="playlist44"/>
  <track hide="video" producer="playlist45"/>
  <filter id="filter225">
   <property name="window">75</property>
   <property name="max_gain">20dB</property>
   <property name="mlt_service">volume</property>
   <property name="internal_added">237</property>
   <property name="disable">1</property>
  </filter>
  <filter id="filter226">
   <property name="channel">-1</property>
   <property name="mlt_service">panner</property>
   <property name="internal_added">237</property>
   <property name="start">0.5</property>
   <property name="disable">1</property>
  </filter>
  <filter id="filter227">
   <property name="iec_scale">0</property>
   <property name="mlt_service">audiolevel</property>
   <property name="dbpeak">1</property>
   <property name="disable">0</property>
  </filter>
 </tractor>
 <playlist id="playlist46"/>
 <playlist id="playlist47"/>
 <tractor id="tractor23" in="00:00:00.000">
  <property name="kdenlive:audio_track">1</property>
  <property name="kdenlive:trackheight">67</property>
  <property name="kdenlive:timeline_active">1</property>
  <property name="kdenlive:thumbs_format"/>
  <property name="kdenlive:audio_rec"/>
  <track hide="video" producer="playlist46"/>
  <track hide="video" producer="playlist47"/>
  <filter id="filter228">
   <property name="window">75</property>
   <property name="max_gain">20dB</property>
   <property name="mlt_service">volume</property>
   <property name="internal_added">237</property>
   <property name="disable">1</property>
  </filter>
  <filter id="filter229">
   <property name="channel">-1</property>
   <property name="mlt_service">panner</property>
   <property name="internal_added">237</property>
   <property name="start">0.5</property>
   <property name="disable">1</property>
  </filter>
  <filter id="filter230">
   <property name="iec_scale">0</property>
   <property name="mlt_service">audiolevel</property>
   <property name="dbpeak">1</property>
   <property name="disable">0</property>
  </filter>
 </tractor>
 <producer id="producer5" in="00:00:00.000" out="00:00:17.667">
  <property name="length">531</property>
  <property name="eof">pause</property>
  <property name="resource">C:/Users/PC/Downloads/Brunei_regions_map.png</property>
  <property name="ttl">25</property>
  <property name="aspect_ratio">1</property>
  <property name="meta.media.progressive">1</property>
  <property name="seekable">1</property>
  <property name="format">2</property>
  <property name="meta.media.width">2500</property>
  <property name="meta.media.height">2551</property>
  <property name="mlt_service">qimage</property>
  <property name="kdenlive:clipname"/>
  <property name="kdenlive:duration">00:00:05:00</property>
  <property name="kdenlive:folderid">-1</property>
  <property name="kdenlive:id">31</property>
  <property name="kdenlive:clip_type">2</property>
  <property name="kdenlive:file_size">926115</property>
  <property name="kdenlive:file_hash">cf290245ee8665b84638c0d30e163c80</property>
 </producer>
 <playlist id="playlist48">
  <entry producer="producer5" in="00:00:00.000" out="00:00:04.967">
   <property name="kdenlive:id">39</property>
  </entry>
 </playlist>
 <playlist id="playlist49"/>
 <tractor id="tractor24" in="00:00:00.000" out="00:00:04.967">
  <property name="kdenlive:trackheight">67</property>
  <property name="kdenlive:timeline_active">1</property>
  <property name="kdenlive:thumbs_format"/>
  <property name="kdenlive:audio_rec"/>
  <track producer="playlist48"/>
  <track producer="playlist49"/>
 </tractor>
 <playlist id="playlist50"/>
 <playlist id="playlist51"/>
 <tractor id="tractor25" in="00:00:00.000">
  <property name="kdenlive:trackheight">67</property>
  <property name="kdenlive:timeline_active">1</property>
  <property name="kdenlive:thumbs_format"/>
  <property name="kdenlive:audio_rec"/>
  <track producer="playlist50"/>
  <track producer="playlist51"/>
 </tractor>
 <tractor id="{f70fed51-3636-4a8a-833e-61c8b0ea2f4a}" in="00:00:00.000" out="00:16:45.000">
  <property name="kdenlive:duration">00:00:05.000</property>
  <property name="kdenlive:maxduration">150</property>
  <property name="kdenlive:clipname">Phân bố</property>
  <property name="kdenlive:description"/>
  <property name="kdenlive:uuid">{f70fed51-3636-4a8a-833e-61c8b0ea2f4a}</property>
  <property name="kdenlive:producer_type">17</property>
  <property name="kdenlive:id">30</property>
  <property name="kdenlive:clip_type">0</property>
  <property name="kdenlive:file_hash">f039e042b55edffa69127b098c541f56</property>
  <property name="kdenlive:folderid">2</property>
  <property name="kdenlive:sequenceproperties.activeTrack">2</property>
  <property name="kdenlive:sequenceproperties.documentuuid">{37616d38-aa80-40b1-8422-0b29fbb66c66}</property>
  <property name="kdenlive:sequenceproperties.hasAudio">1</property>
  <property name="kdenlive:sequenceproperties.hasVideo">1</property>
  <property name="kdenlive:sequenceproperties.tracks">4</property>
  <property name="kdenlive:sequenceproperties.tracksCount">4</property>
  <property name="kdenlive:sequenceproperties.verticalzoom">1</property>
  <property name="kdenlive:sequenceproperties.zonein">0</property>
  <property name="kdenlive:sequenceproperties.zoneout">75</property>
  <property name="kdenlive:sequenceproperties.zoom">8</property>
  <property name="kdenlive:sequenceproperties.groups">[&#xd;
]&#xd;
</property>
  <property name="kdenlive:sequenceproperties.guides">[&#xd;
]&#xd;
</property>
  <property name="kdenlive:sequenceproperties.position">0</property>
  <property name="kdenlive:sequenceproperties.scrollPos">0</property>
  <property name="kdenlive:sequenceproperties.disablepreview">0</property>
  <track producer="producer25"/>
  <track producer="tractor22"/>
  <track producer="tractor23"/>
  <track producer="tractor24"/>
  <track producer="tractor25"/>
  <transition id="transition22">
   <property name="a_track">0</property>
   <property name="b_track">1</property>
   <property name="mlt_service">mix</property>
   <property name="kdenlive_id">mix</property>
   <property name="internal_added">237</property>
   <property name="always_active">1</property>
   <property name="accepts_blanks">1</property>
   <property name="sum">1</property>
  </transition>
  <transition id="transition23">
   <property name="a_track">0</property>
   <property name="b_track">2</property>
   <property name="mlt_service">mix</property>
   <property name="kdenlive_id">mix</property>
   <property name="internal_added">237</property>
   <property name="always_active">1</property>
   <property name="accepts_blanks">1</property>
   <property name="sum">1</property>
  </transition>
  <transition id="transition24">
   <property name="a_track">0</property>
   <property name="b_track">3</property>
   <property name="compositing">0</property>
   <property name="distort">0</property>
   <property name="rotate_center">0</property>
   <property name="mlt_service">qtblend</property>
   <property name="kdenlive_id">qtblend</property>
   <property name="internal_added">237</property>
   <property name="always_active">1</property>
  </transition>
  <transition id="transition25">
   <property name="a_track">0</property>
   <property name="b_track">4</property>
   <property name="compositing">0</property>
   <property name="distort">0</property>
   <property name="rotate_center">0</property>
   <property name="mlt_service">qtblend</property>
   <property name="kdenlive_id">qtblend</property>
   <property name="internal_added">237</property>
   <property name="always_active">1</property>
  </transition>
  <filter id="filter231">
   <property name="window">75</property>
   <property name="max_gain">20dB</property>
   <property name="mlt_service">volume</property>
   <property name="internal_added">237</property>
   <property name="disable">1</property>
  </filter>
  <filter id="filter232">
   <property name="channel">-1</property>
   <property name="mlt_service">panner</property>
   <property name="internal_added">237</property>
   <property name="start">0.5</property>
   <property name="disable">1</property>
  </filter>
 </tractor>
 <producer id="producer26" in="00:00:00.000" out="00:00:04.967">
  <property name="length">150</property>
  <property name="eof">loop</property>
  <property name="resource">C:/Users/PC/Videos/animations/PhanBo.json</property>
  <property name="background">#00000000</property>
  <property name="aspect_ratio">1</property>
  <property name="progressive">1</property>
  <property name="seekable">1</property>
  <property name="meta.media.width">480</property>
  <property name="meta.media.height">360</property>
  <property name="meta.media.sample_aspect_num">1</property>
  <property name="meta.media.sample_aspect_den">1</property>
  <property name="meta.media.frame_rate">30</property>
  <property name="first_frame">0</property>
  <property name="mlt_service">glaxnimate</property>
  <property name="kdenlive:folderid">-1</property>
  <property name="kdenlive:clipname"/>
  <property name="kdenlive:id">32</property>
  <property name="kdenlive:clip_type">2</property>
  <property name="kdenlive:file_size">9116</property>
  <property name="kdenlive:file_hash">262ee40814cfe0f980ea026cfc23b9d2</property>
 </producer>
 <producer id="producer7" in="00:00:00.000" out="00:00:04.967">
  <property name="length">150</property>
  <property name="eof">pause</property>
  <property name="resource"/>
  <property name="meta.media.progressive">1</property>
  <property name="aspect_ratio">1</property>
  <property name="seekable">1</property>
  <property name="mlt_service">kdenlivetitle</property>
  <property name="kdenlive:duration">00:00:05:00</property>
  <property name="kdenlive:clipname">PHÂN BỐ</property>
  <property name="xmldata">&lt;kdenlivetitle duration="150" LC_NUMERIC="C" width="480" height="360" out="149">&#xd;
 &lt;item type="QGraphicsTextItem" z-index="0">&#xd;
  &lt;position x="7" y="104">&#xd;
   &lt;transform>1,0,0,0,1,0,0,0,1&lt;/transform>&#xd;
  &lt;/position>&#xd;
  &lt;content line-spacing="0" shadow="0;#64000000;3;3;3" font-underline="0" box-height="151" font="Prompt" letter-spacing="0" font-pixel-size="100" font-italic="0" typewriter="0;2;1;0;0" alignment="1" font-weight="50" box-width="465" font-color="0,0,0,255">PHÂN BỐ&lt;/content>&#xd;
 &lt;/item>&#xd;
 &lt;item type="QGraphicsRectItem" z-index="-1">&#xd;
  &lt;position x="1" y="2">&#xd;
   &lt;transform zoom="100">1,0,0,0,1,0,0,0,1&lt;/transform>&#xd;
  &lt;/position>&#xd;
  &lt;content brushcolor="239,239,239,127" pencolor="0,0,0,255" penwidth="0" rect="0,0,477.237,358.473"/>&#xd;
 &lt;/item>&#xd;
 &lt;startviewport rect="0,0,480,360"/>&#xd;
 &lt;endviewport rect="0,0,480,360"/>&#xd;
 &lt;background color="204,239,229,0"/>&#xd;
&lt;/kdenlivetitle>&#xd;
</property>
  <property name="kdenlive:folderid">-1</property>
  <property name="kdenlive:id">33</property>
  <property name="kdenlive:clip_type">2</property>
  <property name="kdenlive:file_hash">14e71e42cc124ff3118ee195d3e75491</property>
  <property name="force_reload">0</property>
  <property name="meta.media.width">480</property>
  <property name="meta.media.height">360</property>
 </producer>
 <producer id="producer0" in="00:00:00.000" out="00:16:40.000">
  <property name="length">2147483647</property>
  <property name="eof">continue</property>
  <property name="resource">0</property>
  <property name="aspect_ratio">1</property>
  <property name="mlt_service">color</property>
  <property name="kdenlive:playlistid">black_track</property>
  <property name="mlt_image_format">rgba</property>
  <property name="set.test_audio">0</property>
 </producer>
 <playlist id="playlist0">
  <property name="kdenlive:audio_track">1</property>
 </playlist>
 <playlist id="playlist1">
  <property name="kdenlive:audio_track">1</property>
 </playlist>
 <tractor id="tractor0" in="00:00:00.000">
  <property name="kdenlive:audio_track">1</property>
  <property name="kdenlive:trackheight">67</property>
  <property name="kdenlive:timeline_active">1</property>
  <property name="kdenlive:collapsed">0</property>
  <property name="kdenlive:thumbs_format"/>
  <property name="kdenlive:audio_rec"/>
  <track hide="video" producer="playlist0"/>
  <track hide="video" producer="playlist1"/>
  <filter id="filter0">
   <property name="window">75</property>
   <property name="max_gain">20dB</property>
   <property name="mlt_service">volume</property>
   <property name="internal_added">237</property>
   <property name="disable">1</property>
  </filter>
  <filter id="filter1">
   <property name="channel">-1</property>
   <property name="mlt_service">panner</property>
   <property name="internal_added">237</property>
   <property name="start">0.5</property>
   <property name="disable">1</property>
  </filter>
  <filter id="filter2">
   <property name="iec_scale">0</property>
   <property name="mlt_service">audiolevel</property>
   <property name="dbpeak">1</property>
   <property name="disable">0</property>
  </filter>
 </tractor>
 <playlist id="playlist2">
  <property name="kdenlive:audio_track">1</property>
 </playlist>
 <playlist id="playlist3">
  <property name="kdenlive:audio_track">1</property>
 </playlist>
 <tractor id="tractor1" in="00:00:00.000">
  <property name="kdenlive:audio_track">1</property>
  <property name="kdenlive:trackheight">67</property>
  <property name="kdenlive:timeline_active">1</property>
  <property name="kdenlive:collapsed">0</property>
  <property name="kdenlive:thumbs_format"/>
  <property name="kdenlive:audio_rec"/>
  <track hide="video" producer="playlist2"/>
  <track hide="video" producer="playlist3"/>
  <filter id="filter3">
   <property name="window">75</property>
   <property name="max_gain">20dB</property>
   <property name="mlt_service">volume</property>
   <property name="internal_added">237</property>
   <property name="disable">1</property>
  </filter>
  <filter id="filter4">
   <property name="channel">-1</property>
   <property name="mlt_service">panner</property>
   <property name="internal_added">237</property>
   <property name="start">0.5</property>
   <property name="disable">1</property>
  </filter>
  <filter id="filter5">
   <property name="iec_scale">0</property>
   <property name="mlt_service">audiolevel</property>
   <property name="dbpeak">1</property>
   <property name="disable">0</property>
  </filter>
 </tractor>
 <playlist id="playlist4"/>
 <playlist id="playlist5"/>
 <tractor id="tractor2" in="00:00:00.000">
  <property name="kdenlive:trackheight">67</property>
  <property name="kdenlive:timeline_active">1</property>
  <property name="kdenlive:collapsed">0</property>
  <property name="kdenlive:thumbs_format"/>
  <property name="kdenlive:audio_rec"/>
  <track hide="audio" producer="playlist4"/>
  <track hide="audio" producer="playlist5"/>
 </tractor>
 <playlist id="playlist6"/>
 <playlist id="playlist7"/>
 <tractor id="tractor3" in="00:00:00.000">
  <property name="kdenlive:trackheight">67</property>
  <property name="kdenlive:timeline_active">1</property>
  <property name="kdenlive:collapsed">0</property>
  <property name="kdenlive:thumbs_format"/>
  <property name="kdenlive:audio_rec"/>
  <track hide="audio" producer="playlist6"/>
  <track hide="audio" producer="playlist7"/>
 </tractor>
 <tractor id="tractor4" in="00:00:00.000">
  <property name="kdenlive:duration">00:00:00:00</property>
  <property name="kdenlive:maxduration">0</property>
  <property name="kdenlive:clipname">Sequence 1</property>
  <property name="kdenlive:description"/>
  <property name="kdenlive:uuid">{37616d38-aa80-40b1-8422-0b29fbb66c66}</property>
  <property name="kdenlive:producer_type">17</property>
  <property name="kdenlive:id">3</property>
  <property name="kdenlive:clip_type">0</property>
  <property name="kdenlive:file_hash">e562e0e7396fda7031ee55f1014cfc51</property>
  <property name="kdenlive:folderid">2</property>
  <property name="kdenlive:sequenceproperties.activeTrack">2</property>
  <property name="kdenlive:sequenceproperties.scrollPos">0</property>
  <property name="kdenlive:sequenceproperties.zonein">0</property>
  <property name="kdenlive:sequenceproperties.zoneout">75</property>
  <property name="kdenlive:sequenceproperties.disablepreview">0</property>
  <property name="kdenlive:sequenceproperties.audioTarget">1</property>
  <property name="kdenlive:sequenceproperties.documentuuid">{37616d38-aa80-40b1-8422-0b29fbb66c66}</property>
  <property name="kdenlive:sequenceproperties.hasAudio">1</property>
  <property name="kdenlive:sequenceproperties.hasVideo">1</property>
  <property name="kdenlive:sequenceproperties.position">109</property>
  <property name="kdenlive:sequenceproperties.tracks">4</property>
  <property name="kdenlive:sequenceproperties.tracksCount">4</property>
  <property name="kdenlive:sequenceproperties.verticalzoom">1</property>
  <property name="kdenlive:sequenceproperties.videoTarget">2</property>
  <property name="kdenlive:sequenceproperties.zoom">0</property>
  <property name="kdenlive:sequenceproperties.groups">[
]
</property>
  <property name="kdenlive:sequenceproperties.guides">[
]
</property>
  <track producer="producer0"/>
  <track producer="tractor0"/>
  <track producer="tractor1"/>
  <track producer="tractor2"/>
  <track producer="tractor3"/>
  <transition id="transition0">
   <property name="a_track">0</property>
   <property name="b_track">1</property>
   <property name="mlt_service">mix</property>
   <property name="kdenlive_id">mix</property>
   <property name="internal_added">237</property>
   <property name="always_active">1</property>
   <property name="accepts_blanks">1</property>
   <property name="sum">1</property>
  </transition>
  <transition id="transition1">
   <property name="a_track">0</property>
   <property name="b_track">2</property>
   <property name="mlt_service">mix</property>
   <property name="kdenlive_id">mix</property>
   <property name="internal_added">237</property>
   <property name="always_active">1</property>
   <property name="accepts_blanks">1</property>
   <property name="sum">1</property>
  </transition>
  <transition id="transition2">
   <property name="a_track">0</property>
   <property name="b_track">3</property>
   <property name="compositing">0</property>
   <property name="distort">0</property>
   <property name="rotate_center">0</property>
   <property name="mlt_service">qtblend</property>
   <property name="kdenlive_id">qtblend</property>
   <property name="internal_added">237</property>
   <property name="always_active">1</property>
  </transition>
  <transition id="transition3">
   <property name="a_track">0</property>
   <property name="b_track">4</property>
   <property name="compositing">0</property>
   <property name="distort">0</property>
   <property name="rotate_center">0</property>
   <property name="mlt_service">qtblend</property>
   <property name="kdenlive_id">qtblend</property>
   <property name="internal_added">237</property>
   <property name="always_active">1</property>
  </transition>
  <filter id="filter6">
   <property name="window">75</property>
   <property name="max_gain">20dB</property>
   <property name="mlt_service">volume</property>
   <property name="internal_added">237</property>
   <property name="disable">1</property>
  </filter>
  <filter id="filter7">
   <property name="channel">-1</property>
   <property name="mlt_service">panner</property>
   <property name="internal_added">237</property>
   <property name="start">0.5</property>
   <property name="disable">1</property>
  </filter>
 </tractor>
 <producer id="producer1" in="00:00:00.000" out="00:25:49.933">
  <property name="length">2147483647</property>
  <property name="eof">continue</property>
  <property name="resource">black</property>
  <property name="aspect_ratio">1</property>
  <property name="mlt_service">color</property>
  <property name="kdenlive:playlistid">black_track</property>
  <property name="mlt_image_format">rgba</property>
  <property name="set.test_audio">0</property>
 </producer>
 <playlist id="playlist8">
  <property name="kdenlive:audio_track">1</property>
 </playlist>
 <playlist id="playlist9">
  <property name="kdenlive:audio_track">1</property>
 </playlist>
 <tractor id="tractor5" in="00:00:00.000">
  <property name="kdenlive:audio_track">1</property>
  <property name="kdenlive:trackheight">67</property>
  <property name="kdenlive:timeline_active">1</property>
  <property name="kdenlive:collapsed">0</property>
  <property name="kdenlive:thumbs_format"/>
  <property name="kdenlive:audio_rec"/>
  <track hide="video" producer="playlist8"/>
  <track hide="video" producer="playlist9"/>
  <filter id="filter8">
   <property name="window">75</property>
   <property name="max_gain">20dB</property>
   <property name="mlt_service">volume</property>
   <property name="internal_added">237</property>
   <property name="disable">1</property>
  </filter>
  <filter id="filter9">
   <property name="channel">-1</property>
   <property name="mlt_service">panner</property>
   <property name="internal_added">237</property>
   <property name="start">0.5</property>
   <property name="disable">1</property>
  </filter>
  <filter id="filter10">
   <property name="iec_scale">0</property>
   <property name="mlt_service">audiolevel</property>
   <property name="dbpeak">1</property>
   <property name="disable">1</property>
  </filter>
 </tractor>
 <chain id="chain3" out="00:09:11.800">
  <property name="length">16555</property>
  <property name="eof">pause</property>
  <property name="resource">C:/Users/PC/Downloads/y2mate.com - Brunei Traditional Music.mp3</property>
  <property name="mlt_service">avformat-novalidate</property>
  <property name="seekable">1</property>
  <property name="astream">0</property>
  <property name="vstream">-1</property>
  <property name="audio_index">0</property>
  <property name="video_index">-1</property>
  <property name="kdenlive:clipname"/>
  <property name="kdenlive:clip_type">1</property>
  <property name="kdenlive:folderid">-1</property>
  <property name="kdenlive:id">37</property>
  <property name="kdenlive:file_size">8830083</property>
  <property name="kdenlive:file_hash">fe3cdca298df6016dc867b80fad3d531</property>
  <property name="meta.media.nb_streams">1</property>
  <property name="meta.media.0.stream.type">audio</property>
  <property name="meta.media.0.codec.sample_fmt">fltp</property>
  <property name="meta.media.0.codec.sample_rate">44100</property>
  <property name="meta.media.0.codec.channels">2</property>
  <property name="meta.media.0.codec.name">mp3float</property>
  <property name="meta.media.0.codec.long_name">MP3 (MPEG audio layer 3)</property>
  <property name="meta.media.0.codec.bit_rate">128000</property>
  <property name="meta.attr.0.stream.encoder.markup">Lavc58.34</property>
  <property name="meta.attr.major_brand.markup">M4A </property>
  <property name="meta.attr.minor_version.markup">512</property>
  <property name="meta.attr.compatible_brands.markup">isomiso2</property>
  <property name="meta.attr.encoder.markup">Lavf58.19.102</property>
  <property name="xml">was here</property>
  <property name="mute_on_pause">0</property>
  <property name="set.test_audio">0</property>
  <property name="set.test_image">1</property>
 </chain>
 <playlist id="playlist10">
  <property name="kdenlive:audio_track">1</property>
  <entry producer="chain3" in="00:00:01.900" out="00:09:11.800">
   <property name="kdenlive:id">37</property>
   <property name="kdenlive:activeeffect">1</property>
   <filter id="filter11" in="00:00:01.900" out="00:00:03.433">
    <property name="window">75</property>
    <property name="max_gain">20dB</property>
    <property name="mlt_service">volume</property>
    <property name="kdenlive_id">fadein</property>
    <property name="gain">0</property>
    <property name="end">1</property>
    <property name="kdenlive:collapsed">0</property>
   </filter>
   <filter id="filter12">
    <property name="window">75</property>
    <property name="max_gain">20dB</property>
    <property name="level">00:00:01.900=-13</property>
    <property name="mlt_service">volume</property>
    <property name="kdenlive_id">volume</property>
    <property name="kdenlive:collapsed">0</property>
   </filter>
  </entry>
 </playlist>
 <playlist id="playlist11">
  <property name="kdenlive:audio_track">1</property>
 </playlist>
 <tractor id="tractor6" in="00:00:00.000" out="00:09:09.900">
  <property name="kdenlive:audio_track">1</property>
  <property name="kdenlive:trackheight">67</property>
  <property name="kdenlive:timeline_active">1</property>
  <property name="kdenlive:collapsed">0</property>
  <property name="kdenlive:thumbs_format"/>
  <property name="kdenlive:audio_rec"/>
  <track hide="video" producer="playlist10"/>
  <track hide="video" producer="playlist11"/>
  <filter id="filter13">
   <property name="window">75</property>
   <property name="max_gain">20dB</property>
   <property name="mlt_service">volume</property>
   <property name="internal_added">237</property>
   <property name="disable">1</property>
  </filter>
  <filter id="filter14">
   <property name="channel">-1</property>
   <property name="mlt_service">panner</property>
   <property name="internal_added">237</property>
   <property name="start">0.5</property>
   <property name="disable">1</property>
  </filter>
  <filter id="filter15">
   <property name="iec_scale">0</property>
   <property name="mlt_service">audiolevel</property>
   <property name="dbpeak">1</property>
   <property name="disable">1</property>
  </filter>
 </tractor>
 <chain id="chain4" out="00:03:46.133">
  <property name="length">6785</property>
  <property name="eof">pause</property>
  <property name="resource">C:/Users/PC/Downloads/phần 2 địa.mp3</property>
  <property name="mlt_service">avformat-novalidate</property>
  <property name="seekable">1</property>
  <property name="astream">0</property>
  <property name="vstream">-1</property>
  <property name="audio_index">0</property>
  <property name="video_index">-1</property>
  <property name="kdenlive:clipname"/>
  <property name="kdenlive:clip_type">1</property>
  <property name="kdenlive:folderid">-1</property>
  <property name="kdenlive:id">5</property>
  <property name="kdenlive:file_size">9046234</property>
  <property name="kdenlive:file_hash">042b96551dedab446406bc1ab213cd43</property>
  <property name="kdenlive:audio_max0">172</property>
  <property name="meta.media.nb_streams">1</property>
  <property name="meta.media.0.stream.type">audio</property>
  <property name="meta.media.0.codec.sample_fmt">fltp</property>
  <property name="meta.media.0.codec.sample_rate">48000</property>
  <property name="meta.media.0.codec.channels">2</property>
  <property name="meta.media.0.codec.name">mp3float</property>
  <property name="meta.media.0.codec.long_name">MP3 (MPEG audio layer 3)</property>
  <property name="meta.media.0.codec.bit_rate">320000</property>
  <property name="xml">was here</property>
  <property name="mute_on_pause">0</property>
  <property name="set.test_audio">0</property>
  <property name="set.test_image">1</property>
 </chain>
 <playlist id="playlist12">
  <property name="kdenlive:audio_track">1</property>
  <entry producer="chain4" in="00:00:06.267" out="00:03:46.133">
   <property name="kdenlive:id">5</property>
  </entry>
 </playlist>
 <playlist id="playlist13">
  <property name="kdenlive:audio_track">1</property>
 </playlist>
 <tractor id="tractor7" in="00:00:00.000" out="00:03:39.867">
  <property name="kdenlive:audio_track">1</property>
  <property name="kdenlive:trackheight">67</property>
  <property name="kdenlive:timeline_active">1</property>
  <property name="kdenlive:collapsed">0</property>
  <property name="kdenlive:thumbs_format"/>
  <property name="kdenlive:audio_rec"/>
  <track hide="video" producer="playlist12"/>
  <track hide="video" producer="playlist13"/>
  <filter id="filter16">
   <property name="window">75</property>
   <property name="max_gain">20dB</property>
   <property name="mlt_service">volume</property>
   <property name="internal_added">237</property>
   <property name="disable">1</property>
  </filter>
  <filter id="filter17">
   <property name="channel">-1</property>
   <property name="mlt_service">panner</property>
   <property name="internal_added">237</property>
   <property name="start">0.5</property>
   <property name="disable">1</property>
  </filter>
  <filter id="filter18">
   <property name="iec_scale">0</property>
   <property name="mlt_service">audiolevel</property>
   <property name="dbpeak">1</property>
   <property name="disable">1</property>
  </filter>
 </tractor>
 <chain id="chain5" out="00:05:07.933">
  <property name="length">9239</property>
  <property name="eof">pause</property>
  <property name="resource">C:/Users/PC/Downloads/Brunei Tourism Promotional Video.mp4</property>
  <property name="mlt_service">avformat-novalidate</property>
  <property name="seekable">1</property>
  <property name="astream">0</property>
  <property name="vstream">0</property>
  <property name="audio_index">1</property>
  <property name="video_index">0</property>
  <property name="kdenlive:clipname"/>
  <property name="kdenlive:clip_type">0</property>
  <property name="kdenlive:folderid">-1</property>
  <property name="kdenlive:id">10</property>
  <property name="mute_on_pause">0</property>
  <property name="kdenlive:file_size">75750876</property>
  <property name="kdenlive:file_hash">6ad5a873d3d8033cf61a8b3afe26922b</property>
  <property name="kdenlive:audio_max1">228</property>
  <property name="meta.media.nb_streams">2</property>
  <property name="meta.media.0.stream.type">video</property>
  <property name="meta.media.0.stream.frame_rate">25</property>
  <property name="meta.media.0.stream.sample_aspect_ratio">0</property>
  <property name="meta.media.0.codec.width">1280</property>
  <property name="meta.media.0.codec.height">720</property>
  <property name="meta.media.0.codec.rotate">0</property>
  <property name="meta.media.0.codec.pix_fmt">yuv420p</property>
  <property name="meta.media.0.codec.sample_aspect_ratio">1</property>
  <property name="meta.media.0.codec.colorspace">709</property>
  <property name="meta.media.0.codec.color_trc">1</property>
  <property name="meta.media.0.codec.name">h264</property>
  <property name="meta.media.0.codec.long_name">H.264 / AVC / MPEG-4 AVC / MPEG-4 part 10</property>
  <property name="meta.media.0.codec.bit_rate">1836177</property>
  <property name="meta.attr.0.stream.creation_time.markup">2023-12-01T20:05:33.000000Z</property>
  <property name="meta.attr.0.stream.handler_name.markup">ISO Media file produced by Google Inc. Created on: 12/01/2023.</property>
  <property name="meta.attr.0.stream.vendor_id.markup">[0][0][0][0]</property>
  <property name="meta.media.1.stream.type">audio</property>
  <property name="meta.media.1.codec.sample_fmt">fltp</property>
  <property name="meta.media.1.codec.sample_rate">44100</property>
  <property name="meta.media.1.codec.channels">2</property>
  <property name="meta.media.1.codec.name">aac</property>
  <property name="meta.media.1.codec.long_name">AAC (Advanced Audio Coding)</property>
  <property name="meta.media.1.codec.bit_rate">127999</property>
  <property name="meta.attr.1.stream.creation_time.markup">2023-12-01T20:05:33.000000Z</property>
  <property name="meta.attr.1.stream.language.markup">eng</property>
  <property name="meta.attr.1.stream.handler_name.markup">ISO Media file produced by Google Inc. Created on: 12/01/2023.</property>
  <property name="meta.attr.1.stream.vendor_id.markup">[0][0][0][0]</property>
  <property name="meta.attr.major_brand.markup">mp42</property>
  <property name="meta.attr.minor_version.markup">0</property>
  <property name="meta.attr.compatible_brands.markup">isommp42</property>
  <property name="meta.attr.creation_time.markup">2023-12-01T20:05:33.000000Z</property>
  <property name="meta.media.sample_aspect_num">1</property>
  <property name="meta.media.sample_aspect_den">1</property>
  <property name="meta.media.frame_rate_num">25</property>
  <property name="meta.media.frame_rate_den">1</property>
  <property name="meta.media.colorspace">709</property>
  <property name="meta.media.color_trc">1</property>
  <property name="meta.media.has_b_frames">1</property>
  <property name="meta.media.width">1280</property>
  <property name="meta.media.height">720</property>
  <property name="meta.media.color_range">mpeg</property>
  <property name="xml">was here</property>
  <property name="meta.media.top_field_first">0</property>
  <property name="meta.media.progressive">1</property>
  <property name="set.test_audio">1</property>
  <property name="set.test_image">0</property>
 </chain>
 <playlist id="playlist14">
  <entry producer="chain5" in="00:02:29.567" out="00:02:31.567">
   <property name="kdenlive:id">10</property>
   <filter id="filter19">
    <property name="version">0.2</property>
    <property name="mlt_service">frei0r.brightness</property>
    <property name="kdenlive_id">frei0r.brightness</property>
    <property name="Brightness">00:02:29.567=0.25</property>
    <property name="kdenlive:collapsed">0</property>
   </filter>
  </entry>
  <entry producer="chain5" in="00:02:35.633" out="00:02:38.433">
   <property name="kdenlive:id">10</property>
   <filter id="filter20">
    <property name="version">0.2</property>
    <property name="mlt_service">frei0r.brightness</property>
    <property name="kdenlive_id">frei0r.brightness</property>
    <property name="Brightness">00:02:35.633=0.25</property>
    <property name="kdenlive:collapsed">0</property>
   </filter>
  </entry>
 </playlist>
 <playlist id="playlist15"/>
 <tractor id="tractor8" in="00:00:00.000" out="00:00:04.833">
  <property name="kdenlive:trackheight">67</property>
  <property name="kdenlive:timeline_active">1</property>
  <property name="kdenlive:collapsed">0</property>
  <property name="kdenlive:thumbs_format"/>
  <property name="kdenlive:audio_rec"/>
  <track hide="audio" producer="playlist14"/>
  <track hide="audio" producer="playlist15"/>
 </tractor>
 <playlist id="playlist16">
  <entry producer="producer2" in="00:00:00.000" out="00:00:04.967">
   <property name="kdenlive:id">13</property>
   <filter id="filter21">
    <property name="rotate_center">1</property>
    <property name="mlt_service">qtblend</property>
    <property name="kdenlive_id">qtblend</property>
    <property name="rect">00:00:00.000=-8 229 192 144 1;00:00:00.067=-8 218 192 144 1;00:00:00.133=-8 208 192 144 1;00:00:00.200=-8 199 192 144 1;00:00:00.300=-8 186 192 144 1;00:00:00.367=-8 177 192 144 1;00:00:00.433=-8 170 192 144 1;00:00:00.533=-8 159 192 144 1;00:00:00.600=-8 152 192 144 1;00:00:00.667=-8 146 192 144 1;00:00:00.767=-8 138 192 144 1;00:00:00.833=-8 133 192 144 1;00:00:00.900=-8 129 192 144 1;00:00:01.000=-8 123 192 144 1;00:00:01.067=-8 120 192 144 1;00:00:01.133=-8 118 192 144 1;00:00:01.233=-8 114 192 144 1;00:00:01.300=-8 113 192 144 1;00:00:01.367=-8 112 192 144 1;00:00:01.467=-8 112 192 144 1</property>
    <property name="rotation">00:00:00.000=0;00:00:00.067=0;00:00:00.133=0;00:00:00.200=0;00:00:00.300=0;00:00:00.367=0;00:00:00.433=0;00:00:00.533=0;00:00:00.600=0;00:00:00.667=0;00:00:00.767=0;00:00:00.833=0;00:00:00.900=0;00:00:01.000=0;00:00:01.067=0;00:00:01.133=0;00:00:01.233=0;00:00:01.300=0;00:00:01.367=0;00:00:01.467=0</property>
    <property name="compositing">0</property>
    <property name="distort">0</property>
    <property name="kdenlive:collapsed">0</property>
   </filter>
   <filter id="filter22">
    <property name="filter">rotoscoping</property>
    <property name="mlt_service">mask_start</property>
    <property name="kdenlive_id">mask_start-rotoscoping</property>
    <property name="filter.spline">{&#xd;
    "000": [&#xd;
        [&#xd;
            [&#xd;
                0.10290075410800972,&#xd;
                0.3229007633587786&#xd;
            ],&#xd;
            [&#xd;
                0.046564874933021486,&#xd;
                0.3229007633587786&#xd;
            ],&#xd;
            [&#xd;
                0.046564874933021486,&#xd;
                0.3912977099236641&#xd;
            ]&#xd;
        ],&#xd;
        [&#xd;
            [&#xd;
                0.046564874933021486,&#xd;
                0.5964885496183207&#xd;
            ],&#xd;
            [&#xd;
                0.046564874933021486,&#xd;
                0.6648854961832061&#xd;
            ],&#xd;
            [&#xd;
                0.10015266244093711,&#xd;
                0.66793893129771&#xd;
            ]&#xd;
        ],&#xd;
        [&#xd;
            [&#xd;
                0.2609160249646841,&#xd;
                0.6770992366412213&#xd;
            ],&#xd;
            [&#xd;
                0.3145038124725997,&#xd;
                0.6801526717557251&#xd;
            ],&#xd;
            [&#xd;
                0.31725190413967225,&#xd;
                0.6087022900763358&#xd;
            ]&#xd;
        ],&#xd;
        [&#xd;
            [&#xd;
                0.3254961791408901,&#xd;
                0.3943511450381679&#xd;
            ],&#xd;
            [&#xd;
                0.32824427080796265,&#xd;
                0.3229007633587786&#xd;
            ],&#xd;
            [&#xd;
                0.2719083916329744,&#xd;
                0.3229007633587786&#xd;
            ]&#xd;
        ]&#xd;
    ],&#xd;
    "081": [&#xd;
        [&#xd;
            [&#xd;
                0.10290075410800972,&#xd;
                0.3229007633587786&#xd;
            ],&#xd;
            [&#xd;
                0.046564874933021486,&#xd;
                0.3229007633587786&#xd;
            ],&#xd;
            [&#xd;
                0.046564874933021486,&#xd;
                0.3912977099236641&#xd;
            ]&#xd;
        ],&#xd;
        [&#xd;
            [&#xd;
                0.046564874933021486,&#xd;
                0.5964885496183207&#xd;
            ],&#xd;
            [&#xd;
                0.046564874933021486,&#xd;
                0.6648854961832061&#xd;
            ],&#xd;
            [&#xd;
                0.10015266244093711,&#xd;
                0.66793893129771&#xd;
            ]&#xd;
        ],&#xd;
        [&#xd;
            [&#xd;
                0.2641723295792677,&#xd;
                0.6649394824332645&#xd;
            ],&#xd;
            [&#xd;
                0.3177601170871833,&#xd;
                0.6679929175477684&#xd;
            ],&#xd;
            [&#xd;
                0.3205082087542559,&#xd;
                0.596542535868379&#xd;
            ]&#xd;
        ],&#xd;
        [&#xd;
            [&#xd;
                0.31169857300351406,&#xd;
                0.39240529850347833&#xd;
            ],&#xd;
            [&#xd;
                0.31444666467058663,&#xd;
                0.320954916824089&#xd;
            ],&#xd;
            [&#xd;
                0.2581107854955984,&#xd;
                0.320954916824089&#xd;
            ]&#xd;
        ]&#xd;
    ]&#xd;
}&#xd;
</property>
    <property name="filter.mode">alpha</property>
    <property name="filter.alpha_operation">min</property>
    <property name="filter.invert">0</property>
    <property name="filter.feather">0</property>
    <property name="filter.feather_passes">1</property>
    <property name="kdenlive:collapsed">1</property>
   </filter>
   <filter id="filter23" in="00:00:03.900" out="00:00:04.967">
    <property name="start">1</property>
    <property name="level">1</property>
    <property name="mlt_service">brightness</property>
    <property name="kdenlive_id">fade_to_black</property>
    <property name="alpha">00:00:00.000=1;00:00:01.067=0</property>
   </filter>
  </entry>
 </playlist>
 <playlist id="playlist17"/>
 <tractor id="tractor9" in="00:00:00.000" out="00:00:04.967">
  <property name="kdenlive:trackheight">67</property>
  <property name="kdenlive:timeline_active">1</property>
  <property name="kdenlive:collapsed">0</property>
  <property name="kdenlive:thumbs_format"/>
  <property name="kdenlive:audio_rec"/>
  <track hide="audio" producer="playlist16"/>
  <track hide="audio" producer="playlist17"/>
 </tractor>
 <chain id="chain6" out="00:01:36.600">
  <property name="length">2899</property>
  <property name="eof">pause</property>
  <property name="resource">C:/Users/PC/Downloads/Brunei Darussalam in 4K.mp4</property>
  <property name="mlt_service">avformat-novalidate</property>
  <property name="seekable">1</property>
  <property name="astream">0</property>
  <property name="vstream">0</property>
  <property name="audio_index">1</property>
  <property name="video_index">0</property>
  <property name="kdenlive:clipname"/>
  <property name="kdenlive:clip_type">0</property>
  <property name="kdenlive:folderid">-1</property>
  <property name="kdenlive:id">8</property>
  <property name="mute_on_pause">0</property>
  <property name="kdenlive:file_size">26218593</property>
  <property name="kdenlive:file_hash">c65b351157bbd88a8185b40f39e0700e</property>
  <property name="kdenlive:audio_max1">245</property>
  <property name="meta.media.nb_streams">2</property>
  <property name="meta.media.0.stream.type">video</property>
  <property name="meta.media.0.stream.frame_rate">23.976</property>
  <property name="meta.media.0.stream.sample_aspect_ratio">0</property>
  <property name="meta.media.0.codec.width">1280</property>
  <property name="meta.media.0.codec.height">720</property>
  <property name="meta.media.0.codec.rotate">0</property>
  <property name="meta.media.0.codec.pix_fmt">yuv420p</property>
  <property name="meta.media.0.codec.sample_aspect_ratio">1</property>
  <property name="meta.media.0.codec.colorspace">709</property>
  <property name="meta.media.0.codec.color_trc">1</property>
  <property name="meta.media.0.codec.name">h264</property>
  <property name="meta.media.0.codec.long_name">H.264 / AVC / MPEG-4 AVC / MPEG-4 part 10</property>
  <property name="meta.media.0.codec.bit_rate">2039862</property>
  <property name="meta.attr.0.stream.creation_time.markup">2019-11-10T07:27:55.000000Z</property>
  <property name="meta.attr.0.stream.handler_name.markup">ISO Media file produced by Google Inc. Created on: 11/09/2019.</property>
  <property name="meta.attr.0.stream.vendor_id.markup">[0][0][0][0]</property>
  <property name="meta.media.1.stream.type">audio</property>
  <property name="meta.media.1.codec.sample_fmt">fltp</property>
  <property name="meta.media.1.codec.sample_rate">44100</property>
  <property name="meta.media.1.codec.channels">2</property>
  <property name="meta.media.1.codec.name">aac</property>
  <property name="meta.media.1.codec.long_name">AAC (Advanced Audio Coding)</property>
  <property name="meta.media.1.codec.bit_rate">128031</property>
  <property name="meta.attr.1.stream.creation_time.markup">2019-11-10T07:27:55.000000Z</property>
  <property name="meta.attr.1.stream.language.markup">eng</property>
  <property name="meta.attr.1.stream.handler_name.markup">ISO Media file produced by Google Inc. Created on: 11/09/2019.</property>
  <property name="meta.attr.1.stream.vendor_id.markup">[0][0][0][0]</property>
  <property name="meta.attr.major_brand.markup">mp42</property>
  <property name="meta.attr.minor_version.markup">0</property>
  <property name="meta.attr.compatible_brands.markup">isommp42</property>
  <property name="meta.attr.creation_time.markup">2019-11-10T07:27:55.000000Z</property>
  <property name="meta.media.sample_aspect_num">1</property>
  <property name="meta.media.sample_aspect_den">1</property>
  <property name="meta.media.frame_rate_num">24000</property>
  <property name="meta.media.frame_rate_den">1001</property>
  <property name="meta.media.colorspace">709</property>
  <property name="meta.media.color_trc">1</property>
  <property name="meta.media.has_b_frames">1</property>
  <property name="meta.media.width">1280</property>
  <property name="meta.media.height">720</property>
  <property name="meta.media.color_range">mpeg</property>
  <property name="xml">was here</property>
  <property name="meta.media.top_field_first">0</property>
  <property name="meta.media.progressive">1</property>
  <property name="set.test_audio">1</property>
  <property name="set.test_image">0</property>
 </chain>
 <chain id="chain7" out="00:07:16.567">
  <property name="length">13098</property>
  <property name="eof">pause</property>
  <property name="resource">C:/Users/PC/Downloads/Brunei - Drone footage.mp4</property>
  <property name="mlt_service">avformat-novalidate</property>
  <property name="seekable">1</property>
  <property name="astream">0</property>
  <property name="vstream">0</property>
  <property name="audio_index">1</property>
  <property name="video_index">0</property>
  <property name="kdenlive:clipname"/>
  <property name="kdenlive:clip_type">0</property>
  <property name="kdenlive:folderid">-1</property>
  <property name="kdenlive:id">28</property>
  <property name="mute_on_pause">0</property>
  <property name="kdenlive:file_size">123150805</property>
  <property name="kdenlive:file_hash">fb74fc17511c5669a7b61e5b98d8d58b</property>
  <property name="kdenlive:audio_max1">244</property>
  <property name="kdenlive:zone_in">6861</property>
  <property name="kdenlive:zone_out">7407</property>
  <property name="kdenlive:clipzones">[&#xd;
    {&#xd;
        "in": 6861,&#xd;
        "name": "Zone 1",&#xd;
        "out": 7406&#xd;
    }&#xd;
]&#xd;
</property>
  <property name="meta.media.nb_streams">2</property>
  <property name="meta.media.0.stream.type">video</property>
  <property name="meta.media.0.stream.frame_rate">24</property>
  <property name="meta.media.0.stream.sample_aspect_ratio">0</property>
  <property name="meta.media.0.codec.width">1280</property>
  <property name="meta.media.0.codec.height">720</property>
  <property name="meta.media.0.codec.rotate">0</property>
  <property name="meta.media.0.codec.pix_fmt">yuv420p</property>
  <property name="meta.media.0.codec.sample_aspect_ratio">1</property>
  <property name="meta.media.0.codec.colorspace">709</property>
  <property name="meta.media.0.codec.color_trc">1</property>
  <property name="meta.media.0.codec.name">h264</property>
  <property name="meta.media.0.codec.long_name">H.264 / AVC / MPEG-4 AVC / MPEG-4 part 10</property>
  <property name="meta.media.0.codec.bit_rate">2125295</property>
  <property name="meta.attr.0.stream.creation_time.markup">2020-06-14T12:17:42.000000Z</property>
  <property name="meta.attr.0.stream.handler_name.markup">ISO Media file produced by Google Inc. Created on: 06/14/2020.</property>
  <property name="meta.attr.0.stream.vendor_id.markup">[0][0][0][0]</property>
  <property name="meta.media.1.stream.type">audio</property>
  <property name="meta.media.1.codec.sample_fmt">fltp</property>
  <property name="meta.media.1.codec.sample_rate">44100</property>
  <property name="meta.media.1.codec.channels">2</property>
  <property name="meta.media.1.codec.name">aac</property>
  <property name="meta.media.1.codec.long_name">AAC (Advanced Audio Coding)</property>
  <property name="meta.media.1.codec.bit_rate">127999</property>
  <property name="meta.attr.1.stream.creation_time.markup">2020-06-14T12:17:42.000000Z</property>
  <property name="meta.attr.1.stream.language.markup">eng</property>
  <property name="meta.attr.1.stream.handler_name.markup">ISO Media file produced by Google Inc. Created on: 06/14/2020.</property>
  <property name="meta.attr.1.stream.vendor_id.markup">[0][0][0][0]</property>
  <property name="meta.attr.major_brand.markup">mp42</property>
  <property name="meta.attr.minor_version.markup">0</property>
  <property name="meta.attr.compatible_brands.markup">isommp42</property>
  <property name="meta.attr.creation_time.markup">2020-06-14T12:17:42.000000Z</property>
  <property name="meta.media.sample_aspect_num">1</property>
  <property name="meta.media.sample_aspect_den">1</property>
  <property name="meta.media.frame_rate_num">24</property>
  <property name="meta.media.frame_rate_den">1</property>
  <property name="meta.media.colorspace">709</property>
  <property name="meta.media.color_trc">1</property>
  <property name="meta.media.has_b_frames">1</property>
  <property name="meta.media.width">1280</property>
  <property name="meta.media.height">720</property>
  <property name="meta.media.color_range">mpeg</property>
  <property name="xml">was here</property>
  <property name="meta.media.top_field_first">0</property>
  <property name="meta.media.progressive">1</property>
  <property name="set.test_audio">1</property>
  <property name="set.test_image">0</property>
 </chain>
 <playlist id="playlist18">
  <entry producer="producer3" in="00:00:00.000" out="00:00:04.967">
   <property name="kdenlive:id">14</property>
   <property name="kdenlive:activeeffect">1</property>
   <filter id="filter24">
    <property name="rotate_center">1</property>
    <property name="mlt_service">qtblend</property>
    <property name="kdenlive_id">qtblend</property>
    <property name="rect">00:00:00.000=-193 59 330 247 1;00:00:00.067=-163 59 330 247 1;00:00:00.133=-135 59 330 247 1;00:00:00.200=-109 59 330 247 1;00:00:00.300=-71 59 330 247 1;00:00:00.367=-48 59 330 247 1;00:00:00.433=-26 59 330 247 1;00:00:00.533=3 59 330 247 1;00:00:00.600=21 59 330 247 1;00:00:00.667=38 59 330 247 1;00:00:00.767=61 59 330 247 1;00:00:00.833=75 59 330 247 1;00:00:00.900=87 59 330 247 1;00:00:01.000=103 59 330 247 1;00:00:01.067=112 59 330 247 1;00:00:01.133=119 59 330 247 1;00:00:01.233=128 59 330 247 1;00:00:01.300=132 59 330 247 1;00:00:01.367=135 59 330 247 1;00:00:01.467=137 59 330 247 1</property>
    <property name="rotation">00:00:00.000=0;00:00:00.067=0;00:00:00.133=0;00:00:00.200=0;00:00:00.300=0;00:00:00.367=0;00:00:00.433=0;00:00:00.533=0;00:00:00.600=0;00:00:00.667=0;00:00:00.767=0;00:00:00.833=0;00:00:00.900=0;00:00:01.000=0;00:00:01.067=0;00:00:01.133=0;00:00:01.233=0;00:00:01.300=0;00:00:01.367=0;00:00:01.467=0</property>
    <property name="compositing">0</property>
    <property name="distort">0</property>
    <property name="kdenlive:collapsed">0</property>
   </filter>
   <filter id="filter25">
    <property name="rotate_center">1</property>
    <property name="mlt_service">qtblend</property>
    <property name="kdenlive_id">qtblend</property>
    <property name="rect">00:00:00.000=0 0 480 360 1.000000</property>
    <property name="rotation">00:00:00.000=0</property>
    <property name="compositing">0</property>
    <property name="distort">0</property>
    <property name="kdenlive:collapsed">0</property>
   </filter>
   <filter id="filter26">
    <property name="filter">rotoscoping</property>
    <property name="mlt_service">mask_start</property>
    <property name="kdenlive_id">mask_start-rotoscoping</property>
    <property name="filter.spline">{&#xd;
    "000": [&#xd;
        [&#xd;
            [&#xd;
                -0.01114505007550305,&#xd;
                0.3766412213740458&#xd;
            ],&#xd;
            [&#xd;
                -0.001526729240748963,&#xd;
                0.3045801526717557&#xd;
            ],&#xd;
            [&#xd;
                0.05709922632346645,&#xd;
                0.30274809160305344&#xd;
            ]&#xd;
        ],&#xd;
        [&#xd;
            [&#xd;
                0.23297709301611266,&#xd;
                0.2972519083969466&#xd;
            ],&#xd;
            [&#xd;
                0.2916030485803281,&#xd;
                0.2954198473282443&#xd;
            ],&#xd;
            [&#xd;
                0.29435114024740067,&#xd;
                0.3674809160305344&#xd;
            ]&#xd;
        ],&#xd;
        [&#xd;
            [&#xd;
                0.3025954152486185,&#xd;
                0.5836641221374046&#xd;
            ],&#xd;
            [&#xd;
                0.30534350691569107,&#xd;
                0.6557251908396946&#xd;
            ],&#xd;
            [&#xd;
                0.23435113884964895,&#xd;
                0.657557251908397&#xd;
            ]&#xd;
        ],&#xd;
        [&#xd;
            [&#xd;
                0.021374034651522687,&#xd;
                0.6630534351145039&#xd;
            ],&#xd;
            [&#xd;
                -0.049618333414519405,&#xd;
                0.6648854961832061&#xd;
            ],&#xd;
            [&#xd;
                -0.040000012579765314,&#xd;
                0.592824427480916&#xd;
            ]&#xd;
        ]&#xd;
    ],&#xd;
    "030": [&#xd;
        [&#xd;
            [&#xd;
                -0.01114505007550305,&#xd;
                0.3766412213740458&#xd;
            ],&#xd;
            [&#xd;
                -0.001526729240748963,&#xd;
                0.3045801526717557&#xd;
            ],&#xd;
            [&#xd;
                0.05709922632346645,&#xd;
                0.30274809160305344&#xd;
            ]&#xd;
        ],&#xd;
        [&#xd;
            [&#xd;
                0.24442747496224845,&#xd;
                0.2972519083969466&#xd;
            ],&#xd;
            [&#xd;
                0.30305343052646383,&#xd;
                0.2954198473282443&#xd;
            ],&#xd;
            [&#xd;
                0.3058015221935364,&#xd;
                0.3674809160305343&#xd;
            ]&#xd;
        ],&#xd;
        [&#xd;
            [&#xd;
                0.30717556802707274,&#xd;
                0.6141984732824429&#xd;
            ],&#xd;
            [&#xd;
                0.3099236596941453,&#xd;
                0.6862595419847328&#xd;
            ],&#xd;
            [&#xd;
                0.23893129162810325,&#xd;
                0.6880916030534353&#xd;
            ]&#xd;
        ],&#xd;
        [&#xd;
            [&#xd;
                0.021374034651522687,&#xd;
                0.6630534351145039&#xd;
            ],&#xd;
            [&#xd;
                -0.049618333414519405,&#xd;
                0.6648854961832061&#xd;
            ],&#xd;
            [&#xd;
                -0.040000012579765314,&#xd;
                0.592824427480916&#xd;
            ]&#xd;
        ]&#xd;
    ]&#xd;
}&#xd;
</property>
    <property name="filter.mode">alpha</property>
    <property name="filter.alpha_operation">sub</property>
    <property name="filter.invert">0</property>
    <property name="filter.feather">0</property>
    <property name="filter.feather_passes">1</property>
    <property name="kdenlive:collapsed">1</property>
   </filter>
   <filter id="filter27" in="00:00:03.933" out="00:00:04.967">
    <property name="start">1</property>
    <property name="level">1</property>
    <property name="mlt_service">brightness</property>
    <property name="kdenlive_id">fade_to_black</property>
    <property name="alpha">00:00:00.000=1;00:00:01.033=0</property>
    <property name="kdenlive:collapsed">0</property>
   </filter>
  </entry>
  <entry producer="chain6" in="00:00:00.000" out="00:00:19.567">
   <property name="kdenlive:id">8</property>
  </entry>
  <entry producer="chain6" in="00:01:06.967" out="00:01:08.967">
   <property name="kdenlive:id">8</property>
  </entry>
  <entry producer="chain6" in="00:01:11.600" out="00:01:13.500">
   <property name="kdenlive:id">8</property>
  </entry>
  <entry producer="chain6" in="00:01:17.200" out="00:01:19.100">
   <property name="kdenlive:id">8</property>
  </entry>
  <entry producer="chain7" in="00:03:48.700" out="00:03:53.367">
   <property name="kdenlive:id">28</property>
   <filter id="filter28">
    <property name="rotate_center">1</property>
    <property name="mlt_service">qtblend</property>
    <property name="kdenlive_id">qtblend</property>
    <property name="rect">00:03:48.700=0 0 480 360 1.000000;00:03:52.567=0 0 480 360 1.000000;00:03:53.367=-481 0 480 360 1.000000</property>
    <property name="rotation">00:03:48.700=0;00:03:52.567=0;00:03:53.367=0</property>
    <property name="compositing">0</property>
    <property name="distort">0</property>
    <property name="kdenlive:collapsed">0</property>
   </filter>
  </entry>
 </playlist>
 <playlist id="playlist19"/>
 <tractor id="tractor10" in="00:00:00.000" out="00:00:35.167">
  <property name="kdenlive:trackheight">67</property>
  <property name="kdenlive:timeline_active">1</property>
  <property name="kdenlive:collapsed">0</property>
  <property name="kdenlive:thumbs_format"/>
  <property name="kdenlive:audio_rec"/>
  <track hide="audio" producer="playlist18"/>
  <track hide="audio" producer="playlist19"/>
 </tractor>
 <chain id="chain13" out="00:01:44.200">
  <property name="length">3127</property>
  <property name="eof">pause</property>
  <property name="resource">C:/Users/PC/Downloads/y2mate.com - 20 aesthetic transition pack green screen _1080pFHR.mp4</property>
  <property name="mlt_service">avformat-novalidate</property>
  <property name="seekable">1</property>
  <property name="astream">0</property>
  <property name="vstream">0</property>
  <property name="audio_index">1</property>
  <property name="video_index">0</property>
  <property name="kdenlive:clipname"/>
  <property name="kdenlive:clip_type">0</property>
  <property name="kdenlive:folderid">-1</property>
  <property name="kdenlive:id">15</property>
  <property name="mute_on_pause">0</property>
  <property name="kdenlive:file_size">10499804</property>
  <property name="kdenlive:file_hash">d7a9e3f27259167e78b59b1c31f8c3d5</property>
  <property name="kdenlive:audio_max1">204</property>
  <property name="meta.media.nb_streams">2</property>
  <property name="meta.media.0.stream.type">video</property>
  <property name="meta.media.0.stream.frame_rate">60</property>
  <property name="meta.media.0.stream.sample_aspect_ratio">1</property>
  <property name="meta.media.0.codec.width">1920</property>
  <property name="meta.media.0.codec.height">1080</property>
  <property name="meta.media.0.codec.rotate">0</property>
  <property name="meta.media.0.codec.pix_fmt">yuv420p</property>
  <property name="meta.media.0.codec.sample_aspect_ratio">1</property>
  <property name="meta.media.0.codec.colorspace">601</property>
  <property name="meta.media.0.codec.color_trc">1</property>
  <property name="meta.media.0.codec.name">h264</property>
  <property name="meta.media.0.codec.long_name">H.264 / AVC / MPEG-4 AVC / MPEG-4 part 10</property>
  <property name="meta.media.0.codec.bit_rate">667633</property>
  <property name="meta.attr.0.stream.handler_name.markup">ISO Media file produced by Google Inc.</property>
  <property name="meta.attr.0.stream.vendor_id.markup">[0][0][0][0]</property>
  <property name="meta.media.1.stream.type">audio</property>
  <property name="meta.media.1.codec.sample_fmt">fltp</property>
  <property name="meta.media.1.codec.sample_rate">44100</property>
  <property name="meta.media.1.codec.channels">2</property>
  <property name="meta.media.1.codec.name">aac</property>
  <property name="meta.media.1.codec.long_name">AAC (Advanced Audio Coding)</property>
  <property name="meta.media.1.codec.bit_rate">127999</property>
  <property name="meta.attr.1.stream.handler_name.markup">ISO Media file produced by Google Inc.</property>
  <property name="meta.attr.1.stream.vendor_id.markup">[0][0][0][0]</property>
  <property name="meta.attr.major_brand.markup">isom</property>
  <property name="meta.attr.minor_version.markup">512</property>
  <property name="meta.attr.compatible_brands.markup">isomiso2avc1mp41</property>
  <property name="meta.attr.encoder.markup">Lavf58.19.102</property>
  <property name="meta.media.sample_aspect_num">1</property>
  <property name="meta.media.sample_aspect_den">1</property>
  <property name="meta.media.frame_rate_num">60</property>
  <property name="meta.media.frame_rate_den">1</property>
  <property name="meta.media.colorspace">601</property>
  <property name="meta.media.color_trc">1</property>
  <property name="meta.media.has_b_frames">1</property>
  <property name="meta.media.width">1920</property>
  <property name="meta.media.height">1080</property>
  <property name="meta.media.color_range">mpeg</property>
  <property name="xml">was here</property>
  <property name="meta.media.top_field_first">0</property>
  <property name="meta.media.progressive">1</property>
  <property name="set.test_audio">1</property>
  <property name="set.test_image">0</property>
 </chain>
 <playlist id="playlist20">
  <blank length="00:00:04.533"/>
  <entry producer="chain13" in="00:00:44.767" out="00:00:46.333">
   <property name="kdenlive:id">15</property>
   <filter id="filter29">
    <property name="version">0.4</property>
    <property name="mlt_service">frei0r.bluescreen0r</property>
    <property name="kdenlive_id">frei0r.bluescreen0r</property>
    <property name="0">00:00:44.767=#00ef00</property>
    <property name="1">0.288</property>
    <property name="2">0</property>
    <property name="kdenlive:collapsed">0</property>
   </filter>
  </entry>
  <entry producer="producer4" in="00:00:00.000" out="00:00:07.500">
   <property name="kdenlive:id">16</property>
   <filter id="filter30">
    <property name="rotate_center">1</property>
    <property name="mlt_service">qtblend</property>
    <property name="kdenlive_id">qtblend</property>
    <property name="rect">00:00:00.000=64 -31 348 261 1.000000</property>
    <property name="rotation">00:00:00.000=0</property>
    <property name="compositing">0</property>
    <property name="distort">0</property>
    <property name="kdenlive:collapsed">0</property>
   </filter>
   <filter id="filter31" in="00:00:07.100" out="00:00:07.500">
    <property name="start">1</property>
    <property name="level">1</property>
    <property name="mlt_service">brightness</property>
    <property name="kdenlive_id">fade_to_black</property>
    <property name="alpha">00:00:00.000=1;00:00:00.400=0</property>
   </filter>
  </entry>
  <blank length="00:00:20.700"/>
  <entry producer="producer5" in="00:00:00.000" out="00:00:17.667">
   <property name="kdenlive:id">31</property>
   <filter id="filter32">
    <property name="rotate_center">1</property>
    <property name="mlt_service">qtblend</property>
    <property name="kdenlive_id">qtblend</property>
    <property name="rect">00:00:00.000=415 0 480 360 1.000000;00:00:00.633=0 0 480 360 1.000000</property>
    <property name="rotation">00:00:00.000=0;00:00:00.633=0</property>
    <property name="compositing">0</property>
    <property name="distort">0</property>
    <property name="kdenlive:collapsed">0</property>
   </filter>
  </entry>
 </playlist>
 <playlist id="playlist21"/>
 <tractor id="tractor11" in="00:00:00.000" out="00:00:52.033">
  <property name="kdenlive:trackheight">67</property>
  <property name="kdenlive:timeline_active">1</property>
  <property name="kdenlive:collapsed">0</property>
  <property name="kdenlive:thumbs_format"/>
  <property name="kdenlive:audio_rec"/>
  <track hide="audio" producer="playlist20"/>
  <track hide="audio" producer="playlist21"/>
 </tractor>
 <playlist id="playlist22">
  <blank length="00:00:08.667"/>
  <entry producer="producer6" in="00:00:00.000" out="00:00:04.967">
   <property name="kdenlive:id">27</property>
   <filter id="filter33">
    <property name="rotate_center">1</property>
    <property name="mlt_service">qtblend</property>
    <property name="kdenlive_id">qtblend</property>
    <property name="rect">00:00:00.000=1 59 480 360 1.000000</property>
    <property name="rotation">00:00:00.000=0</property>
    <property name="compositing">0</property>
    <property name="distort">0</property>
    <property name="kdenlive:collapsed">0</property>
   </filter>
   <filter id="filter34" in="00:00:04.567" out="00:00:04.967">
    <property name="start">1</property>
    <property name="level">1</property>
    <property name="mlt_service">brightness</property>
    <property name="kdenlive_id">fade_to_black</property>
    <property name="alpha">00:00:00.000=1;00:00:00.400=0</property>
    <property name="kdenlive:collapsed">0</property>
   </filter>
  </entry>
  <blank length="00:00:20.700"/>
  <entry producer="producer7" in="00:00:00.000" out="00:00:04.967">
   <property name="kdenlive:id">33</property>
   <filter id="filter35">
    <property name="version">0.1</property>
    <property name="mlt_service">frei0r.scale0tilt</property>
    <property name="kdenlive_id">frei0r.scale0tilt</property>
    <property name="Clip left">00:00:00.000=0;00:00:01.667=0;00:00:02.000=0.5</property>
    <property name="Clip right">00:00:00.000=0;00:00:01.667=0;00:00:02.000=0.5</property>
    <property name="Clip top">00:00:00.000=0;00:00:01.667=0;00:00:02.000=0</property>
    <property name="Clip bottom">00:00:00.000=0;00:00:01.667=0;00:00:02.000=0</property>
    <property name="Scale X">00:00:00.000=0.5;00:00:01.667=0.5;00:00:02.000=0.5</property>
    <property name="Scale Y">00:00:00.000=0.5;00:00:01.667=0.5;00:00:02.000=0.5</property>
    <property name="Tilt X">00:00:00.000=0.5;00:00:01.667=0.5;00:00:02.000=0.5</property>
    <property name="Tilt Y">00:00:00.000=0.5;00:00:01.667=0.5;00:00:02.000=0.5</property>
    <property name="kdenlive:collapsed">0</property>
   </filter>
   <filter id="filter36">
    <property name="rotate_center">1</property>
    <property name="mlt_service">qtblend</property>
    <property name="kdenlive_id">qtblend</property>
    <property name="rect">00:00:00.000=519 100 212 159 1.000000;00:00:00.633=134 100 212 159 1.000000</property>
    <property name="rotation">00:00:00.000=0;00:00:00.633=0</property>
    <property name="compositing">0</property>
    <property name="distort">0</property>
    <property name="kdenlive:collapsed">0</property>
   </filter>
  </entry>
 </playlist>
 <playlist id="playlist23"/>
 <tractor id="tractor12" in="00:00:00.000" out="00:00:39.333">
  <property name="kdenlive:trackheight">67</property>
  <property name="kdenlive:timeline_active">1</property>
  <property name="kdenlive:collapsed">0</property>
  <property name="kdenlive:thumbs_format"/>
  <property name="kdenlive:audio_rec"/>
  <track hide="audio" producer="playlist22"/>
  <track hide="audio" producer="playlist23"/>
 </tractor>
 <producer id="producer14" in="00:00:00.000" out="00:00:07.767">
  <property name="length">234</property>
  <property name="eof">loop</property>
  <property name="resource">C:/Users/PC/Videos/animations/countryhighlight.json</property>
  <property name="background">#00000000</property>
  <property name="aspect_ratio">1</property>
  <property name="progressive">1</property>
  <property name="seekable">1</property>
  <property name="meta.media.width">480</property>
  <property name="meta.media.height">360</property>
  <property name="meta.media.sample_aspect_num">1</property>
  <property name="meta.media.sample_aspect_den">1</property>
  <property name="meta.media.frame_rate">30</property>
  <property name="first_frame">0</property>
  <property name="mlt_service">glaxnimate</property>
  <property name="kdenlive:folderid">-1</property>
  <property name="kdenlive:clipname"/>
  <property name="kdenlive:id">35</property>
  <property name="kdenlive:clip_type">2</property>
  <property name="kdenlive:file_size">3853</property>
  <property name="kdenlive:file_hash">087a381f7de8ed90cbcfacde23d12e8d</property>
  <property name="xml">was here</property>
  <property name="set.test_audio">1</property>
  <property name="set.test_image">0</property>
 </producer>
 <playlist id="playlist24">
  <blank length="00:00:36.233"/>
  <entry producer="producer14" in="00:00:00.000" out="00:00:07.767">
   <property name="kdenlive:id">35</property>
  </entry>
 </playlist>
 <playlist id="playlist25"/>
 <tractor id="tractor13" in="00:00:00.000" out="00:00:44.000">
  <property name="kdenlive:trackheight">67</property>
  <property name="kdenlive:timeline_active">1</property>
  <property name="kdenlive:collapsed">0</property>
  <property name="kdenlive:thumbs_format"/>
  <property name="kdenlive:audio_rec"/>
  <track hide="audio" producer="playlist24"/>
  <track hide="audio" producer="playlist25"/>
 </tractor>
 <producer id="producer16" in="00:00:00.000" out="00:00:07.767">
  <property name="length">234</property>
  <property name="eof">pause</property>
  <property name="resource"/>
  <property name="meta.media.progressive">1</property>
  <property name="aspect_ratio">1</property>
  <property name="seekable">1</property>
  <property name="mlt_service">kdenlivetitle</property>
  <property name="kdenlive:duration">00:00:05:00</property>
  <property name="kdenlive:clipname">97%</property>
  <property name="xmldata">&lt;kdenlivetitle duration="150" LC_NUMERIC="C" width="480" height="360" out="149">
 &lt;item type="QGraphicsTextItem" z-index="0">
  &lt;position x="136" y="104">
   &lt;transform>1,0,0,0,1,0,0,0,1&lt;/transform>
  &lt;/position>
  &lt;content line-spacing="0" shadow="0;#64000000;3;3;3" font-underline="0" box-height="151" font="Prompt" letter-spacing="0" font-pixel-size="100" font-italic="0" typewriter="1;2;1;0;0" alignment="1" font-weight="50" box-width="207" font-color="255,255,255,255">97%&lt;/content>
 &lt;/item>
 &lt;startviewport rect="0,0,480,360"/>
 &lt;endviewport rect="0,0,480,360"/>
 &lt;background color="204,239,229,0"/>
&lt;/kdenlivetitle>
</property>
  <property name="kdenlive:folderid">-1</property>
  <property name="kdenlive:id">34</property>
  <property name="kdenlive:clip_type">2</property>
  <property name="kdenlive:file_hash">105f82d3d74ed5a7cd24464a8c99fb88</property>
  <property name="force_reload">0</property>
  <property name="meta.media.width">480</property>
  <property name="meta.media.height">360</property>
 </producer>
 <playlist id="playlist26">
  <blank length="00:00:36.233"/>
  <entry producer="producer16" in="00:00:00.000" out="00:00:07.767">
   <property name="kdenlive:id">34</property>
   <property name="kdenlive:activeeffect">0</property>
   <filter id="filter37">
    <property name="rotate_center">1</property>
    <property name="mlt_service">qtblend</property>
    <property name="kdenlive_id">qtblend</property>
    <property name="rect">00:00:00.000=90 127 237 177 1.000000</property>
    <property name="rotation">00:00:00.000=0</property>
    <property name="compositing">0</property>
    <property name="distort">0</property>
    <property name="kdenlive:collapsed">0</property>
   </filter>
  </entry>
 </playlist>
 <playlist id="playlist27"/>
 <tractor id="tractor14" in="00:00:00.000" out="00:00:44.000">
  <property name="kdenlive:trackheight">67</property>
  <property name="kdenlive:timeline_active">1</property>
  <track producer="playlist26"/>
  <track producer="playlist27"/>
 </tractor>
 <producer id="producer17" in="00:00:00.000" out="00:00:04.967">
  <property name="length">150</property>
  <property name="eof">pause</property>
  <property name="resource"/>
  <property name="meta.media.progressive">1</property>
  <property name="aspect_ratio">1</property>
  <property name="seekable">1</property>
  <property name="mlt_service">kdenlivetitle</property>
  <property name="kdenlive:duration">00:00:05:00</property>
  <property name="kdenlive:clipname">10K</property>
  <property name="xmldata">&lt;kdenlivetitle duration="150" LC_NUMERIC="C" width="480" height="360" out="149">
 &lt;item type="QGraphicsTextItem" z-index="0">
  &lt;position x="147" y="104">
   &lt;transform>1,0,0,0,1,0,0,0,1&lt;/transform>
  &lt;/position>
  &lt;content shadow="0;#64000000;3;3;3" font-underline="0" box-height="151" font="Prompt" letter-spacing="0" font-pixel-size="100" font-italic="0" typewriter="1;2;1;0;0" alignment="1" font-weight="50" box-width="186" font-color="255,255,255,255">10K&lt;/content>
 &lt;/item>
 &lt;startviewport rect="0,0,480,360"/>
 &lt;endviewport rect="0,0,480,360"/>
 &lt;background color="204,239,229,0"/>
&lt;/kdenlivetitle>
</property>
  <property name="kdenlive:folderid">-1</property>
  <property name="kdenlive:id">36</property>
  <property name="kdenlive:clip_type">2</property>
  <property name="kdenlive:file_hash">1960ded028c3db519f0bc56f369df6be</property>
  <property name="force_reload">0</property>
  <property name="meta.media.width">480</property>
  <property name="meta.media.height">360</property>
 </producer>
 <playlist id="playlist28">
  <blank length="00:00:40.400"/>
  <entry producer="producer17" in="00:00:00.000" out="00:00:03.600">
   <property name="kdenlive:id">36</property>
   <property name="kdenlive:activeeffect">0</property>
   <filter id="filter38">
    <property name="rotate_center">1</property>
    <property name="mlt_service">qtblend</property>
    <property name="kdenlive_id">qtblend</property>
    <property name="rect">00:00:00.000=253 108 192 144 1.000000</property>
    <property name="rotation">00:00:00.000=0</property>
    <property name="compositing">0</property>
    <property name="distort">0</property>
    <property name="kdenlive:collapsed">0</property>
   </filter>
  </entry>
 </playlist>
 <playlist id="playlist29"/>
 <tractor id="tractor15" in="00:00:00.000" out="00:00:44.000">
  <property name="kdenlive:trackheight">67</property>
  <property name="kdenlive:timeline_active">1</property>
  <track producer="playlist28"/>
  <track producer="playlist29"/>
 </tractor>
 <tractor id="{fe5d7fd0-f9e7-44fe-aaca-bd9f1ec5622e}" in="00:00:00.000" out="00:25:49.933">
  <property name="kdenlive:duration">00:09:09:28</property>
  <property name="kdenlive:maxduration">16498</property>
  <property name="kdenlive:clipname">2. Dân cư, chính trị và xã hội</property>
  <property name="kdenlive:description"/>
  <property name="kdenlive:uuid">{fe5d7fd0-f9e7-44fe-aaca-bd9f1ec5622e}</property>
  <property name="kdenlive:producer_type">17</property>
  <property name="kdenlive:id">7</property>
  <property name="kdenlive:clip_type">0</property>
  <property name="kdenlive:file_hash">edcc6d2fbe8d4ca70874ae2d21490fd8</property>
  <property name="kdenlive:folderid">2</property>
  <property name="kdenlive:sequenceproperties.activeTrack">1</property>
  <property name="kdenlive:sequenceproperties.scrollPos">0</property>
  <property name="kdenlive:sequenceproperties.zonein">3525</property>
  <property name="kdenlive:sequenceproperties.zoneout">3600</property>
  <property name="kdenlive:sequenceproperties.disablepreview">0</property>
  <property name="kdenlive:sequenceproperties.documentuuid">{37616d38-aa80-40b1-8422-0b29fbb66c66}</property>
  <property name="kdenlive:sequenceproperties.hasAudio">1</property>
  <property name="kdenlive:sequenceproperties.hasVideo">1</property>
  <property name="kdenlive:sequenceproperties.hidesubtitle">0</property>
  <property name="kdenlive:sequenceproperties.position">109</property>
  <property name="kdenlive:sequenceproperties.tracks">4</property>
  <property name="kdenlive:sequenceproperties.tracksCount">11</property>
  <property name="kdenlive:sequenceproperties.verticalzoom">1</property>
  <property name="kdenlive:sequenceproperties.zoom">8</property>
  <property name="kdenlive:sequenceproperties.groups">[
]
</property>
  <property name="kdenlive:sequenceproperties.guides">[
]
</property>
  <track producer="producer1"/>
  <track producer="tractor5"/>
  <track producer="tractor6"/>
  <track producer="tractor7"/>
  <track producer="tractor8"/>
  <track producer="tractor9"/>
  <track producer="tractor10"/>
  <track producer="tractor11"/>
  <track producer="tractor12"/>
  <track producer="tractor13"/>
  <track producer="tractor14"/>
  <track producer="tractor15"/>
  <transition id="transition4">
   <property name="a_track">0</property>
   <property name="b_track">1</property>
   <property name="mlt_service">mix</property>
   <property name="kdenlive_id">mix</property>
   <property name="internal_added">237</property>
   <property name="always_active">1</property>
   <property name="accepts_blanks">1</property>
   <property name="sum">1</property>
  </transition>
  <transition id="transition5">
   <property name="a_track">0</property>
   <property name="b_track">2</property>
   <property name="mlt_service">mix</property>
   <property name="kdenlive_id">mix</property>
   <property name="internal_added">237</property>
   <property name="always_active">1</property>
   <property name="accepts_blanks">1</property>
   <property name="sum">1</property>
  </transition>
  <transition id="transition6">
   <property name="a_track">0</property>
   <property name="b_track">3</property>
   <property name="mlt_service">mix</property>
   <property name="kdenlive_id">mix</property>
   <property name="internal_added">237</property>
   <property name="always_active">1</property>
   <property name="accepts_blanks">1</property>
   <property name="sum">1</property>
  </transition>
  <transition id="transition7">
   <property name="a_track">0</property>
   <property name="b_track">4</property>
   <property name="compositing">0</property>
   <property name="distort">0</property>
   <property name="rotate_center">0</property>
   <property name="mlt_service">qtblend</property>
   <property name="kdenlive_id">qtblend</property>
   <property name="internal_added">237</property>
   <property name="always_active">1</property>
  </transition>
  <transition id="transition8">
   <property name="a_track">0</property>
   <property name="b_track">5</property>
   <property name="compositing">0</property>
   <property name="distort">0</property>
   <property name="rotate_center">0</property>
   <property name="mlt_service">qtblend</property>
   <property name="kdenlive_id">qtblend</property>
   <property name="internal_added">237</property>
   <property name="always_active">1</property>
  </transition>
  <transition id="transition9">
   <property name="a_track">0</property>
   <property name="b_track">6</property>
   <property name="compositing">0</property>
   <property name="distort">0</property>
   <property name="rotate_center">0</property>
   <property name="mlt_service">qtblend</property>
   <property name="kdenlive_id">qtblend</property>
   <property name="internal_added">237</property>
   <property name="always_active">1</property>
  </transition>
  <transition id="transition10">
   <property name="a_track">0</property>
   <property name="b_track">7</property>
   <property name="compositing">0</property>
   <property name="distort">0</property>
   <property name="rotate_center">0</property>
   <property name="mlt_service">qtblend</property>
   <property name="kdenlive_id">qtblend</property>
   <property name="internal_added">237</property>
   <property name="always_active">1</property>
  </transition>
  <transition id="transition11">
   <property name="a_track">0</property>
   <property name="b_track">8</property>
   <property name="compositing">0</property>
   <property name="distort">0</property>
   <property name="rotate_center">0</property>
   <property name="mlt_service">qtblend</property>
   <property name="kdenlive_id">qtblend</property>
   <property name="internal_added">237</property>
   <property name="always_active">1</property>
  </transition>
  <transition id="transition12">
   <property name="a_track">0</property>
   <property name="b_track">9</property>
   <property name="compositing">0</property>
   <property name="distort">0</property>
   <property name="rotate_center">0</property>
   <property name="mlt_service">qtblend</property>
   <property name="kdenlive_id">qtblend</property>
   <property name="internal_added">237</property>
   <property name="always_active">1</property>
  </transition>
  <transition id="transition13">
   <property name="a_track">0</property>
   <property name="b_track">10</property>
   <property name="compositing">0</property>
   <property name="distort">0</property>
   <property name="rotate_center">0</property>
   <property name="mlt_service">qtblend</property>
   <property name="kdenlive_id">qtblend</property>
   <property name="internal_added">237</property>
   <property name="always_active">1</property>
  </transition>
  <transition id="transition14">
   <property name="a_track">0</property>
   <property name="b_track">11</property>
   <property name="compositing">0</property>
   <property name="distort">0</property>
   <property name="rotate_center">0</property>
   <property name="mlt_service">qtblend</property>
   <property name="kdenlive_id">qtblend</property>
   <property name="internal_added">237</property>
   <property name="always_active">1</property>
  </transition>
  <filter id="filter39">
   <property name="window">75</property>
   <property name="max_gain">20dB</property>
   <property name="mlt_service">volume</property>
   <property name="internal_added">237</property>
   <property name="disable">1</property>
  </filter>
  <filter id="filter40">
   <property name="channel">-1</property>
   <property name="mlt_service">panner</property>
   <property name="internal_added">237</property>
   <property name="start">0.5</property>
   <property name="disable">1</property>
  </filter>
 </tractor>
 <producer id="producer18" in="00:00:00.000" out="00:16:41.033">
  <property name="length">2147483647</property>
  <property name="eof">continue</property>
  <property name="resource">0</property>
  <property name="aspect_ratio">1</property>
  <property name="mlt_service">color</property>
  <property name="kdenlive:playlistid">black_track</property>
  <property name="mlt_image_format">rgba</property>
  <property name="set.test_audio">0</property>
 </producer>
 <playlist id="playlist30">
  <property name="kdenlive:audio_track">1</property>
 </playlist>
 <playlist id="playlist31">
  <property name="kdenlive:audio_track">1</property>
 </playlist>
 <tractor id="tractor16" in="00:00:00.000">
  <property name="kdenlive:audio_track">1</property>
  <property name="kdenlive:trackheight">67</property>
  <property name="kdenlive:timeline_active">1</property>
  <property name="kdenlive:collapsed">0</property>
  <property name="kdenlive:thumbs_format"/>
  <property name="kdenlive:audio_rec"/>
  <track hide="video" producer="playlist30"/>
  <track hide="video" producer="playlist31"/>
  <filter id="filter41">
   <property name="window">75</property>
   <property name="max_gain">20dB</property>
   <property name="mlt_service">volume</property>
   <property name="internal_added">237</property>
   <property name="disable">1</property>
  </filter>
  <filter id="filter42">
   <property name="channel">-1</property>
   <property name="mlt_service">panner</property>
   <property name="internal_added">237</property>
   <property name="start">0.5</property>
   <property name="disable">1</property>
  </filter>
  <filter id="filter43">
   <property name="iec_scale">0</property>
   <property name="mlt_service">audiolevel</property>
   <property name="dbpeak">1</property>
   <property name="disable">0</property>
  </filter>
 </tractor>
 <playlist id="playlist32">
  <property name="kdenlive:audio_track">1</property>
 </playlist>
 <playlist id="playlist33">
  <property name="kdenlive:audio_track">1</property>
 </playlist>
 <tractor id="tractor17" in="00:00:00.000">
  <property name="kdenlive:audio_track">1</property>
  <property name="kdenlive:trackheight">67</property>
  <property name="kdenlive:timeline_active">1</property>
  <property name="kdenlive:collapsed">0</property>
  <property name="kdenlive:thumbs_format"/>
  <property name="kdenlive:audio_rec"/>
  <track hide="video" producer="playlist32"/>
  <track hide="video" producer="playlist33"/>
  <filter id="filter44">
   <property name="window">75</property>
   <property name="max_gain">20dB</property>
   <property name="mlt_service">volume</property>
   <property name="internal_added">237</property>
   <property name="disable">1</property>
  </filter>
  <filter id="filter45">
   <property name="channel">-1</property>
   <property name="mlt_service">panner</property>
   <property name="internal_added">237</property>
   <property name="start">0.5</property>
   <property name="disable">1</property>
  </filter>
  <filter id="filter46">
   <property name="iec_scale">0</property>
   <property name="mlt_service">audiolevel</property>
   <property name="dbpeak">1</property>
   <property name="disable">0</property>
  </filter>
 </tractor>
 <playlist id="playlist34">
  <entry producer="producer15" in="00:00:00.000" out="00:00:01.000">
   <property name="kdenlive:id">25</property>
  </entry>
 </playlist>
 <playlist id="playlist35"/>
 <tractor id="tractor18" in="00:00:00.000" out="00:00:01.000">
  <property name="kdenlive:trackheight">67</property>
  <property name="kdenlive:timeline_active">1</property>
  <property name="kdenlive:collapsed">0</property>
  <property name="kdenlive:thumbs_format"/>
  <property name="kdenlive:audio_rec"/>
  <track hide="both" producer="playlist34"/>
  <track hide="both" producer="playlist35"/>
 </tractor>
 <producer id="producer19" in="00:00:00.000" out="00:00:00.133">
  <property name="length">5</property>
  <property name="eof">pause</property>
  <property name="resource">Counters/1.mlt</property>
  <property name="mlt_service">xml</property>
  <property name="xml">was here</property>
  <property name="seekable">1</property>
  <property name="kdenlive:clipname"/>
  <property name="kdenlive:folderid">20</property>
  <property name="kdenlive:id">17</property>
  <property name="kdenlive:clip_type">0</property>
  <property name="kdenlive:file_size">899</property>
  <property name="kdenlive:file_hash">c92a3c8f8ec5bae1b11ca586b41ada3f</property>
  <property name="kdenlive:audio_max0">1</property>
  <property name="kdenlive:clipzones">[&#xd;
    {&#xd;
        "in": 0,&#xd;
        "name": "Zone 1",&#xd;
        "out": 4&#xd;
    }&#xd;
]&#xd;
</property>
  <property name="set.test_audio">1</property>
  <property name="set.test_image">0</property>
 </producer>
 <producer id="producer20" in="00:00:00.000" out="00:00:00.167">
  <property name="length">6</property>
  <property name="eof">pause</property>
  <property name="resource">Counters/2.mlt</property>
  <property name="mlt_service">xml</property>
  <property name="xml">was here</property>
  <property name="seekable">1</property>
  <property name="kdenlive:clipname"/>
  <property name="kdenlive:folderid">20</property>
  <property name="kdenlive:id">19</property>
  <property name="kdenlive:clip_type">0</property>
  <property name="kdenlive:file_size">899</property>
  <property name="kdenlive:file_hash">1334b314aeb6214ea5172fe4b4a0140a</property>
  <property name="kdenlive:audio_max0">1</property>
  <property name="set.test_audio">1</property>
  <property name="set.test_image">0</property>
 </producer>
 <playlist id="playlist36">
  <entry producer="producer19" in="00:00:00.000" out="00:00:00.100">
   <property name="kdenlive:id">17</property>
   <filter id="filter47">
    <property name="version">0.4</property>
    <property name="mlt_service">frei0r.bluescreen0r</property>
    <property name="kdenlive_id">frei0r.bluescreen0r</property>
    <property name="0">00:00:00.000=0xcfcfcdff</property>
    <property name="1">0.288</property>
    <property name="2">0</property>
    <property name="kdenlive:collapsed">0</property>
   </filter>
   <filter id="filter48">
    <property name="rotate_center">1</property>
    <property name="mlt_service">qtblend</property>
    <property name="kdenlive_id">qtblend</property>
    <property name="rect">00:00:00.000=-14 115 216 162 1.000000</property>
    <property name="rotation">00:00:00.000=0</property>
    <property name="compositing">0</property>
    <property name="distort">0</property>
    <property name="kdenlive:collapsed">0</property>
   </filter>
  </entry>
  <entry producer="producer19" in="00:00:00.133" out="00:00:00.133">
   <property name="kdenlive:id">17</property>
   <filter id="filter49">
    <property name="version">0.4</property>
    <property name="mlt_service">frei0r.bluescreen0r</property>
    <property name="kdenlive_id">frei0r.bluescreen0r</property>
    <property name="0">00:00:00.133=0xcfcfcdff</property>
    <property name="1">0.288</property>
    <property name="2">0</property>
    <property name="kdenlive:collapsed">0</property>
   </filter>
   <filter id="filter50">
    <property name="rotate_center">1</property>
    <property name="mlt_service">qtblend</property>
    <property name="kdenlive_id">qtblend</property>
    <property name="rect">00:00:00.133=-14 115 216 162 1.000000</property>
    <property name="rotation">00:00:00.133=0</property>
    <property name="compositing">0</property>
    <property name="distort">0</property>
    <property name="kdenlive:collapsed">0</property>
   </filter>
  </entry>
  <entry producer="producer19" in="00:00:00.133" out="00:00:00.133">
   <property name="kdenlive:id">17</property>
   <filter id="filter51">
    <property name="version">0.4</property>
    <property name="mlt_service">frei0r.bluescreen0r</property>
    <property name="kdenlive_id">frei0r.bluescreen0r</property>
    <property name="0">00:00:00.033=0xcfcfcdff</property>
    <property name="1">0.288</property>
    <property name="2">0</property>
   </filter>
   <filter id="filter52">
    <property name="rotate_center">1</property>
    <property name="mlt_service">qtblend</property>
    <property name="kdenlive_id">qtblend</property>
    <property name="rect">00:00:00.033=-14 115 216 162 1.000000</property>
    <property name="rotation">00:00:00.033=0</property>
    <property name="compositing">0</property>
    <property name="distort">0</property>
   </filter>
  </entry>
  <entry producer="producer19" in="00:00:00.133" out="00:00:00.133">
   <property name="kdenlive:id">17</property>
   <filter id="filter53">
    <property name="version">0.4</property>
    <property name="mlt_service">frei0r.bluescreen0r</property>
    <property name="kdenlive_id">frei0r.bluescreen0r</property>
    <property name="0">00:00:00.033=0xcfcfcdff</property>
    <property name="1">0.288</property>
    <property name="2">0</property>
   </filter>
   <filter id="filter54">
    <property name="rotate_center">1</property>
    <property name="mlt_service">qtblend</property>
    <property name="kdenlive_id">qtblend</property>
    <property name="rect">00:00:00.033=-14 115 216 162 1.000000</property>
    <property name="rotation">00:00:00.033=0</property>
    <property name="compositing">0</property>
    <property name="distort">0</property>
   </filter>
  </entry>
  <entry producer="producer19" in="00:00:00.133" out="00:00:00.133">
   <property name="kdenlive:id">17</property>
   <filter id="filter55">
    <property name="version">0.4</property>
    <property name="mlt_service">frei0r.bluescreen0r</property>
    <property name="kdenlive_id">frei0r.bluescreen0r</property>
    <property name="0">00:00:00.033=0xcfcfcdff</property>
    <property name="1">0.288</property>
    <property name="2">0</property>
   </filter>
   <filter id="filter56">
    <property name="rotate_center">1</property>
    <property name="mlt_service">qtblend</property>
    <property name="kdenlive_id">qtblend</property>
    <property name="rect">00:00:00.033=-14 115 216 162 1.000000</property>
    <property name="rotation">00:00:00.033=0</property>
    <property name="compositing">0</property>
    <property name="distort">0</property>
   </filter>
  </entry>
  <entry producer="producer19" in="00:00:00.133" out="00:00:00.133">
   <property name="kdenlive:id">17</property>
   <filter id="filter57">
    <property name="version">0.4</property>
    <property name="mlt_service">frei0r.bluescreen0r</property>
    <property name="kdenlive_id">frei0r.bluescreen0r</property>
    <property name="0">00:00:00.033=0xcfcfcdff</property>
    <property name="1">0.288</property>
    <property name="2">0</property>
   </filter>
   <filter id="filter58">
    <property name="rotate_center">1</property>
    <property name="mlt_service">qtblend</property>
    <property name="kdenlive_id">qtblend</property>
    <property name="rect">00:00:00.033=-14 115 216 162 1.000000</property>
    <property name="rotation">00:00:00.033=0</property>
    <property name="compositing">0</property>
    <property name="distort">0</property>
   </filter>
  </entry>
  <entry producer="producer19" in="00:00:00.133" out="00:00:00.133">
   <property name="kdenlive:id">17</property>
   <filter id="filter59">
    <property name="version">0.4</property>
    <property name="mlt_service">frei0r.bluescreen0r</property>
    <property name="kdenlive_id">frei0r.bluescreen0r</property>
    <property name="0">00:00:00.033=0xcfcfcdff</property>
    <property name="1">0.288</property>
    <property name="2">0</property>
   </filter>
   <filter id="filter60">
    <property name="rotate_center">1</property>
    <property name="mlt_service">qtblend</property>
    <property name="kdenlive_id">qtblend</property>
    <property name="rect">00:00:00.033=-14 115 216 162 1.000000</property>
    <property name="rotation">00:00:00.033=0</property>
    <property name="compositing">0</property>
    <property name="distort">0</property>
   </filter>
  </entry>
  <entry producer="producer19" in="00:00:00.133" out="00:00:00.133">
   <property name="kdenlive:id">17</property>
   <filter id="filter61">
    <property name="version">0.4</property>
    <property name="mlt_service">frei0r.bluescreen0r</property>
    <property name="kdenlive_id">frei0r.bluescreen0r</property>
    <property name="0">00:00:00.033=0xcfcfcdff</property>
    <property name="1">0.288</property>
    <property name="2">0</property>
   </filter>
   <filter id="filter62">
    <property name="rotate_center">1</property>
    <property name="mlt_service">qtblend</property>
    <property name="kdenlive_id">qtblend</property>
    <property name="rect">00:00:00.033=-14 115 216 162 1.000000</property>
    <property name="rotation">00:00:00.033=0</property>
    <property name="compositing">0</property>
    <property name="distort">0</property>
   </filter>
  </entry>
  <entry producer="producer19" in="00:00:00.133" out="00:00:00.133">
   <property name="kdenlive:id">17</property>
   <filter id="filter63">
    <property name="version">0.4</property>
    <property name="mlt_service">frei0r.bluescreen0r</property>
    <property name="kdenlive_id">frei0r.bluescreen0r</property>
    <property name="0">00:00:00.033=0xcfcfcdff</property>
    <property name="1">0.288</property>
    <property name="2">0</property>
   </filter>
   <filter id="filter64">
    <property name="rotate_center">1</property>
    <property name="mlt_service">qtblend</property>
    <property name="kdenlive_id">qtblend</property>
    <property name="rect">00:00:00.033=-14 115 216 162 1.000000</property>
    <property name="rotation">00:00:00.033=0</property>
    <property name="compositing">0</property>
    <property name="distort">0</property>
   </filter>
  </entry>
  <entry producer="producer19" in="00:00:00.133" out="00:00:00.133">
   <property name="kdenlive:id">17</property>
   <filter id="filter65">
    <property name="version">0.4</property>
    <property name="mlt_service">frei0r.bluescreen0r</property>
    <property name="kdenlive_id">frei0r.bluescreen0r</property>
    <property name="0">00:00:00.033=0xcfcfcdff</property>
    <property name="1">0.288</property>
    <property name="2">0</property>
   </filter>
   <filter id="filter66">
    <property name="rotate_center">1</property>
    <property name="mlt_service">qtblend</property>
    <property name="kdenlive_id">qtblend</property>
    <property name="rect">00:00:00.033=-14 115 216 162 1.000000</property>
    <property name="rotation">00:00:00.033=0</property>
    <property name="compositing">0</property>
    <property name="distort">0</property>
   </filter>
  </entry>
  <entry producer="producer19" in="00:00:00.133" out="00:00:00.133">
   <property name="kdenlive:id">17</property>
   <filter id="filter67">
    <property name="version">0.4</property>
    <property name="mlt_service">frei0r.bluescreen0r</property>
    <property name="kdenlive_id">frei0r.bluescreen0r</property>
    <property name="0">00:00:00.033=0xcfcfcdff</property>
    <property name="1">0.288</property>
    <property name="2">0</property>
   </filter>
   <filter id="filter68">
    <property name="rotate_center">1</property>
    <property name="mlt_service">qtblend</property>
    <property name="kdenlive_id">qtblend</property>
    <property name="rect">00:00:00.033=-14 115 216 162 1.000000</property>
    <property name="rotation">00:00:00.033=0</property>
    <property name="compositing">0</property>
    <property name="distort">0</property>
   </filter>
  </entry>
  <entry producer="producer19" in="00:00:00.133" out="00:00:00.133">
   <property name="kdenlive:id">17</property>
   <filter id="filter69">
    <property name="version">0.4</property>
    <property name="mlt_service">frei0r.bluescreen0r</property>
    <property name="kdenlive_id">frei0r.bluescreen0r</property>
    <property name="0">00:00:00.033=0xcfcfcdff</property>
    <property name="1">0.288</property>
    <property name="2">0</property>
   </filter>
   <filter id="filter70">
    <property name="rotate_center">1</property>
    <property name="mlt_service">qtblend</property>
    <property name="kdenlive_id">qtblend</property>
    <property name="rect">00:00:00.033=-14 115 216 162 1.000000</property>
    <property name="rotation">00:00:00.033=0</property>
    <property name="compositing">0</property>
    <property name="distort">0</property>
   </filter>
  </entry>
  <entry producer="producer19" in="00:00:00.133" out="00:00:00.133">
   <property name="kdenlive:id">17</property>
   <filter id="filter71">
    <property name="version">0.4</property>
    <property name="mlt_service">frei0r.bluescreen0r</property>
    <property name="kdenlive_id">frei0r.bluescreen0r</property>
    <property name="0">00:00:00.033=0xcfcfcdff</property>
    <property name="1">0.288</property>
    <property name="2">0</property>
   </filter>
   <filter id="filter72">
    <property name="rotate_center">1</property>
    <property name="mlt_service">qtblend</property>
    <property name="kdenlive_id">qtblend</property>
    <property name="rect">00:00:00.033=-14 115 216 162 1.000000</property>
    <property name="rotation">00:00:00.033=0</property>
    <property name="compositing">0</property>
    <property name="distort">0</property>
   </filter>
  </entry>
  <entry producer="producer19" in="00:00:00.133" out="00:00:00.133">
   <property name="kdenlive:id">17</property>
   <filter id="filter73">
    <property name="version">0.4</property>
    <property name="mlt_service">frei0r.bluescreen0r</property>
    <property name="kdenlive_id">frei0r.bluescreen0r</property>
    <property name="0">00:00:00.033=0xcfcfcdff</property>
    <property name="1">0.288</property>
    <property name="2">0</property>
   </filter>
   <filter id="filter74">
    <property name="rotate_center">1</property>
    <property name="mlt_service">qtblend</property>
    <property name="kdenlive_id">qtblend</property>
    <property name="rect">00:00:00.033=-14 115 216 162 1.000000</property>
    <property name="rotation">00:00:00.033=0</property>
    <property name="compositing">0</property>
    <property name="distort">0</property>
   </filter>
  </entry>
  <entry producer="producer19" in="00:00:00.133" out="00:00:00.133">
   <property name="kdenlive:id">17</property>
   <filter id="filter75">
    <property name="version">0.4</property>
    <property name="mlt_service">frei0r.bluescreen0r</property>
    <property name="kdenlive_id">frei0r.bluescreen0r</property>
    <property name="0">00:00:00.033=0xcfcfcdff</property>
    <property name="1">0.288</property>
    <property name="2">0</property>
   </filter>
   <filter id="filter76">
    <property name="rotate_center">1</property>
    <property name="mlt_service">qtblend</property>
    <property name="kdenlive_id">qtblend</property>
    <property name="rect">00:00:00.033=-14 115 216 162 1.000000</property>
    <property name="rotation">00:00:00.033=0</property>
    <property name="compositing">0</property>
    <property name="distort">0</property>
   </filter>
  </entry>
  <entry producer="producer19" in="00:00:00.133" out="00:00:00.133">
   <property name="kdenlive:id">17</property>
   <filter id="filter77">
    <property name="version">0.4</property>
    <property name="mlt_service">frei0r.bluescreen0r</property>
    <property name="kdenlive_id">frei0r.bluescreen0r</property>
    <property name="0">00:00:00.033=0xcfcfcdff</property>
    <property name="1">0.288</property>
    <property name="2">0</property>
   </filter>
   <filter id="filter78">
    <property name="rotate_center">1</property>
    <property name="mlt_service">qtblend</property>
    <property name="kdenlive_id">qtblend</property>
    <property name="rect">00:00:00.033=-14 115 216 162 1.000000</property>
    <property name="rotation">00:00:00.033=0</property>
    <property name="compositing">0</property>
    <property name="distort">0</property>
   </filter>
  </entry>
  <entry producer="producer19" in="00:00:00.133" out="00:00:00.133">
   <property name="kdenlive:id">17</property>
   <filter id="filter79">
    <property name="version">0.4</property>
    <property name="mlt_service">frei0r.bluescreen0r</property>
    <property name="kdenlive_id">frei0r.bluescreen0r</property>
    <property name="0">00:00:00.033=0xcfcfcdff</property>
    <property name="1">0.288</property>
    <property name="2">0</property>
   </filter>
   <filter id="filter80">
    <property name="rotate_center">1</property>
    <property name="mlt_service">qtblend</property>
    <property name="kdenlive_id">qtblend</property>
    <property name="rect">00:00:00.033=-14 115 216 162 1.000000</property>
    <property name="rotation">00:00:00.033=0</property>
    <property name="compositing">0</property>
    <property name="distort">0</property>
   </filter>
  </entry>
  <entry producer="producer19" in="00:00:00.133" out="00:00:00.133">
   <property name="kdenlive:id">17</property>
   <filter id="filter81">
    <property name="version">0.4</property>
    <property name="mlt_service">frei0r.bluescreen0r</property>
    <property name="kdenlive_id">frei0r.bluescreen0r</property>
    <property name="0">00:00:00.033=0xcfcfcdff</property>
    <property name="1">0.288</property>
    <property name="2">0</property>
   </filter>
   <filter id="filter82">
    <property name="rotate_center">1</property>
    <property name="mlt_service">qtblend</property>
    <property name="kdenlive_id">qtblend</property>
    <property name="rect">00:00:00.033=-14 115 216 162 1.000000</property>
    <property name="rotation">00:00:00.033=0</property>
    <property name="compositing">0</property>
    <property name="distort">0</property>
   </filter>
  </entry>
  <entry producer="producer19" in="00:00:00.133" out="00:00:00.133">
   <property name="kdenlive:id">17</property>
   <filter id="filter83">
    <property name="version">0.4</property>
    <property name="mlt_service">frei0r.bluescreen0r</property>
    <property name="kdenlive_id">frei0r.bluescreen0r</property>
    <property name="0">00:00:00.033=0xcfcfcdff</property>
    <property name="1">0.288</property>
    <property name="2">0</property>
   </filter>
   <filter id="filter84">
    <property name="rotate_center">1</property>
    <property name="mlt_service">qtblend</property>
    <property name="kdenlive_id">qtblend</property>
    <property name="rect">00:00:00.033=-14 115 216 162 1.000000</property>
    <property name="rotation">00:00:00.033=0</property>
    <property name="compositing">0</property>
    <property name="distort">0</property>
   </filter>
  </entry>
  <entry producer="producer19" in="00:00:00.133" out="00:00:00.133">
   <property name="kdenlive:id">17</property>
   <filter id="filter85">
    <property name="version">0.4</property>
    <property name="mlt_service">frei0r.bluescreen0r</property>
    <property name="kdenlive_id">frei0r.bluescreen0r</property>
    <property name="0">00:00:00.033=0xcfcfcdff</property>
    <property name="1">0.288</property>
    <property name="2">0</property>
   </filter>
   <filter id="filter86">
    <property name="rotate_center">1</property>
    <property name="mlt_service">qtblend</property>
    <property name="kdenlive_id">qtblend</property>
    <property name="rect">00:00:00.033=-14 115 216 162 1.000000</property>
    <property name="rotation">00:00:00.033=0</property>
    <property name="compositing">0</property>
    <property name="distort">0</property>
   </filter>
  </entry>
  <entry producer="producer19" in="00:00:00.133" out="00:00:00.133">
   <property name="kdenlive:id">17</property>
   <filter id="filter87">
    <property name="version">0.4</property>
    <property name="mlt_service">frei0r.bluescreen0r</property>
    <property name="kdenlive_id">frei0r.bluescreen0r</property>
    <property name="0">00:00:00.033=0xcfcfcdff</property>
    <property name="1">0.288</property>
    <property name="2">0</property>
   </filter>
   <filter id="filter88">
    <property name="rotate_center">1</property>
    <property name="mlt_service">qtblend</property>
    <property name="kdenlive_id">qtblend</property>
    <property name="rect">00:00:00.033=-14 115 216 162 1.000000</property>
    <property name="rotation">00:00:00.033=0</property>
    <property name="compositing">0</property>
    <property name="distort">0</property>
   </filter>
  </entry>
  <entry producer="producer19" in="00:00:00.133" out="00:00:00.133">
   <property name="kdenlive:id">17</property>
   <filter id="filter89">
    <property name="version">0.4</property>
    <property name="mlt_service">frei0r.bluescreen0r</property>
    <property name="kdenlive_id">frei0r.bluescreen0r</property>
    <property name="0">00:00:00.033=0xcfcfcdff</property>
    <property name="1">0.288</property>
    <property name="2">0</property>
   </filter>
   <filter id="filter90">
    <property name="rotate_center">1</property>
    <property name="mlt_service">qtblend</property>
    <property name="kdenlive_id">qtblend</property>
    <property name="rect">00:00:00.033=-14 115 216 162 1.000000</property>
    <property name="rotation">00:00:00.033=0</property>
    <property name="compositing">0</property>
    <property name="distort">0</property>
   </filter>
  </entry>
  <entry producer="producer19" in="00:00:00.133" out="00:00:00.133">
   <property name="kdenlive:id">17</property>
   <filter id="filter91">
    <property name="version">0.4</property>
    <property name="mlt_service">frei0r.bluescreen0r</property>
    <property name="kdenlive_id">frei0r.bluescreen0r</property>
    <property name="0">00:00:00.033=0xcfcfcdff</property>
    <property name="1">0.288</property>
    <property name="2">0</property>
   </filter>
   <filter id="filter92">
    <property name="rotate_center">1</property>
    <property name="mlt_service">qtblend</property>
    <property name="kdenlive_id">qtblend</property>
    <property name="rect">00:00:00.033=-14 115 216 162 1.000000</property>
    <property name="rotation">00:00:00.033=0</property>
    <property name="compositing">0</property>
    <property name="distort">0</property>
   </filter>
  </entry>
  <entry producer="producer19" in="00:00:00.133" out="00:00:00.133">
   <property name="kdenlive:id">17</property>
   <filter id="filter93">
    <property name="version">0.4</property>
    <property name="mlt_service">frei0r.bluescreen0r</property>
    <property name="kdenlive_id">frei0r.bluescreen0r</property>
    <property name="0">00:00:00.033=0xcfcfcdff</property>
    <property name="1">0.288</property>
    <property name="2">0</property>
   </filter>
   <filter id="filter94">
    <property name="rotate_center">1</property>
    <property name="mlt_service">qtblend</property>
    <property name="kdenlive_id">qtblend</property>
    <property name="rect">00:00:00.033=-14 115 216 162 1.000000</property>
    <property name="rotation">00:00:00.033=0</property>
    <property name="compositing">0</property>
    <property name="distort">0</property>
   </filter>
  </entry>
  <entry producer="producer19" in="00:00:00.133" out="00:00:00.133">
   <property name="kdenlive:id">17</property>
   <filter id="filter95">
    <property name="version">0.4</property>
    <property name="mlt_service">frei0r.bluescreen0r</property>
    <property name="kdenlive_id">frei0r.bluescreen0r</property>
    <property name="0">00:00:00.033=0xcfcfcdff</property>
    <property name="1">0.288</property>
    <property name="2">0</property>
   </filter>
   <filter id="filter96">
    <property name="rotate_center">1</property>
    <property name="mlt_service">qtblend</property>
    <property name="kdenlive_id">qtblend</property>
    <property name="rect">00:00:00.033=-14 115 216 162 1.000000</property>
    <property name="rotation">00:00:00.033=0</property>
    <property name="compositing">0</property>
    <property name="distort">0</property>
   </filter>
  </entry>
  <entry producer="producer19" in="00:00:00.133" out="00:00:00.133">
   <property name="kdenlive:id">17</property>
   <filter id="filter97">
    <property name="version">0.4</property>
    <property name="mlt_service">frei0r.bluescreen0r</property>
    <property name="kdenlive_id">frei0r.bluescreen0r</property>
    <property name="0">00:00:00.033=0xcfcfcdff</property>
    <property name="1">0.288</property>
    <property name="2">0</property>
   </filter>
   <filter id="filter98">
    <property name="rotate_center">1</property>
    <property name="mlt_service">qtblend</property>
    <property name="kdenlive_id">qtblend</property>
    <property name="rect">00:00:00.033=-14 115 216 162 1.000000</property>
    <property name="rotation">00:00:00.033=0</property>
    <property name="compositing">0</property>
    <property name="distort">0</property>
   </filter>
  </entry>
  <entry producer="producer19" in="00:00:00.133" out="00:00:00.133">
   <property name="kdenlive:id">17</property>
   <filter id="filter99">
    <property name="version">0.4</property>
    <property name="mlt_service">frei0r.bluescreen0r</property>
    <property name="kdenlive_id">frei0r.bluescreen0r</property>
    <property name="0">00:00:00.033=0xcfcfcdff</property>
    <property name="1">0.288</property>
    <property name="2">0</property>
    <property name="kdenlive:collapsed">0</property>
   </filter>
   <filter id="filter100">
    <property name="rotate_center">1</property>
    <property name="mlt_service">qtblend</property>
    <property name="kdenlive_id">qtblend</property>
    <property name="rect">00:00:00.033=-14 115 216 162 1.000000</property>
    <property name="rotation">00:00:00.033=0</property>
    <property name="compositing">0</property>
    <property name="distort">0</property>
    <property name="kdenlive:collapsed">0</property>
   </filter>
  </entry>
  <entry producer="producer20" in="00:00:00.167" out="00:00:00.167">
   <property name="kdenlive:id">19</property>
   <filter id="filter101">
    <property name="version">0.4</property>
    <property name="mlt_service">frei0r.bluescreen0r</property>
    <property name="kdenlive_id">frei0r.bluescreen0r</property>
    <property name="0">00:00:00.033=0xcfcfcdff</property>
    <property name="1">0.288</property>
    <property name="2">0</property>
   </filter>
   <filter id="filter102">
    <property name="rotate_center">1</property>
    <property name="mlt_service">qtblend</property>
    <property name="kdenlive_id">qtblend</property>
    <property name="rect">00:00:00.033=56 115 216 162 1.000000</property>
    <property name="rotation">00:00:00.033=0</property>
    <property name="compositing">0</property>
    <property name="distort">0</property>
   </filter>
  </entry>
 </playlist>
 <playlist id="playlist37"/>
 <tractor id="tractor19" in="00:00:00.000" out="00:00:01.000">
  <property name="kdenlive:trackheight">67</property>
  <property name="kdenlive:timeline_active">1</property>
  <property name="kdenlive:collapsed">0</property>
  <property name="kdenlive:thumbs_format"/>
  <property name="kdenlive:audio_rec"/>
  <track hide="audio" producer="playlist36"/>
  <track hide="audio" producer="playlist37"/>
 </tractor>
 <producer id="producer21" in="00:00:00.000" out="00:00:00.167">
  <property name="length">6</property>
  <property name="eof">pause</property>
  <property name="resource">Counters/2.mlt</property>
  <property name="mlt_service">xml</property>
  <property name="xml">was here</property>
  <property name="seekable">1</property>
  <property name="kdenlive:clipname"/>
  <property name="kdenlive:folderid">20</property>
  <property name="kdenlive:id">19</property>
  <property name="kdenlive:clip_type">0</property>
  <property name="kdenlive:file_size">899</property>
  <property name="kdenlive:file_hash">1334b314aeb6214ea5172fe4b4a0140a</property>
  <property name="kdenlive:audio_max0">1</property>
  <property name="set.test_audio">1</property>
  <property name="set.test_image">0</property>
 </producer>
 <playlist id="playlist38">
  <blank length="00:00:00.167"/>
  <entry producer="producer21" in="00:00:00.000" out="00:00:00.133">
   <property name="kdenlive:id">19</property>
   <property name="kdenlive:activeeffect">1</property>
   <filter id="filter103">
    <property name="version">0.4</property>
    <property name="mlt_service">frei0r.bluescreen0r</property>
    <property name="kdenlive_id">frei0r.bluescreen0r</property>
    <property name="0">00:00:00.000=0xcfcfcdff</property>
    <property name="1">0.288</property>
    <property name="2">0</property>
    <property name="kdenlive:collapsed">0</property>
   </filter>
   <filter id="filter104">
    <property name="rotate_center">1</property>
    <property name="mlt_service">qtblend</property>
    <property name="kdenlive_id">qtblend</property>
    <property name="rect">00:00:00.000=56 115 216 162 1.000000</property>
    <property name="rotation">00:00:00.000=0</property>
    <property name="compositing">0</property>
    <property name="distort">0</property>
    <property name="kdenlive:collapsed">0</property>
   </filter>
  </entry>
  <entry producer="producer21" in="00:00:00.167" out="00:00:00.167">
   <property name="kdenlive:id">19</property>
   <filter id="filter105">
    <property name="version">0.4</property>
    <property name="mlt_service">frei0r.bluescreen0r</property>
    <property name="kdenlive_id">frei0r.bluescreen0r</property>
    <property name="0">00:00:00.167=0xcfcfcdff</property>
    <property name="1">0.288</property>
    <property name="2">0</property>
    <property name="kdenlive:collapsed">0</property>
   </filter>
   <filter id="filter106">
    <property name="rotate_center">1</property>
    <property name="mlt_service">qtblend</property>
    <property name="kdenlive_id">qtblend</property>
    <property name="rect">00:00:00.167=56 115 216 162 1.000000</property>
    <property name="rotation">00:00:00.167=0</property>
    <property name="compositing">0</property>
    <property name="distort">0</property>
    <property name="kdenlive:collapsed">0</property>
   </filter>
  </entry>
  <entry producer="producer21" in="00:00:00.167" out="00:00:00.167">
   <property name="kdenlive:id">19</property>
   <filter id="filter107">
    <property name="version">0.4</property>
    <property name="mlt_service">frei0r.bluescreen0r</property>
    <property name="kdenlive_id">frei0r.bluescreen0r</property>
    <property name="0">00:00:00.033=0xcfcfcdff</property>
    <property name="1">0.288</property>
    <property name="2">0</property>
   </filter>
   <filter id="filter108">
    <property name="rotate_center">1</property>
    <property name="mlt_service">qtblend</property>
    <property name="kdenlive_id">qtblend</property>
    <property name="rect">00:00:00.033=56 115 216 162 1.000000</property>
    <property name="rotation">00:00:00.033=0</property>
    <property name="compositing">0</property>
    <property name="distort">0</property>
   </filter>
  </entry>
  <entry producer="producer21" in="00:00:00.167" out="00:00:00.167">
   <property name="kdenlive:id">19</property>
   <filter id="filter109">
    <property name="version">0.4</property>
    <property name="mlt_service">frei0r.bluescreen0r</property>
    <property name="kdenlive_id">frei0r.bluescreen0r</property>
    <property name="0">00:00:00.033=0xcfcfcdff</property>
    <property name="1">0.288</property>
    <property name="2">0</property>
   </filter>
   <filter id="filter110">
    <property name="rotate_center">1</property>
    <property name="mlt_service">qtblend</property>
    <property name="kdenlive_id">qtblend</property>
    <property name="rect">00:00:00.033=56 115 216 162 1.000000</property>
    <property name="rotation">00:00:00.033=0</property>
    <property name="compositing">0</property>
    <property name="distort">0</property>
   </filter>
  </entry>
  <entry producer="producer21" in="00:00:00.167" out="00:00:00.167">
   <property name="kdenlive:id">19</property>
   <filter id="filter111">
    <property name="version">0.4</property>
    <property name="mlt_service">frei0r.bluescreen0r</property>
    <property name="kdenlive_id">frei0r.bluescreen0r</property>
    <property name="0">00:00:00.033=0xcfcfcdff</property>
    <property name="1">0.288</property>
    <property name="2">0</property>
   </filter>
   <filter id="filter112">
    <property name="rotate_center">1</property>
    <property name="mlt_service">qtblend</property>
    <property name="kdenlive_id">qtblend</property>
    <property name="rect">00:00:00.033=56 115 216 162 1.000000</property>
    <property name="rotation">00:00:00.033=0</property>
    <property name="compositing">0</property>
    <property name="distort">0</property>
   </filter>
  </entry>
  <entry producer="producer21" in="00:00:00.167" out="00:00:00.167">
   <property name="kdenlive:id">19</property>
   <filter id="filter113">
    <property name="version">0.4</property>
    <property name="mlt_service">frei0r.bluescreen0r</property>
    <property name="kdenlive_id">frei0r.bluescreen0r</property>
    <property name="0">00:00:00.033=0xcfcfcdff</property>
    <property name="1">0.288</property>
    <property name="2">0</property>
   </filter>
   <filter id="filter114">
    <property name="rotate_center">1</property>
    <property name="mlt_service">qtblend</property>
    <property name="kdenlive_id">qtblend</property>
    <property name="rect">00:00:00.033=56 115 216 162 1.000000</property>
    <property name="rotation">00:00:00.033=0</property>
    <property name="compositing">0</property>
    <property name="distort">0</property>
   </filter>
  </entry>
  <entry producer="producer21" in="00:00:00.167" out="00:00:00.167">
   <property name="kdenlive:id">19</property>
   <filter id="filter115">
    <property name="version">0.4</property>
    <property name="mlt_service">frei0r.bluescreen0r</property>
    <property name="kdenlive_id">frei0r.bluescreen0r</property>
    <property name="0">00:00:00.033=0xcfcfcdff</property>
    <property name="1">0.288</property>
    <property name="2">0</property>
   </filter>
   <filter id="filter116">
    <property name="rotate_center">1</property>
    <property name="mlt_service">qtblend</property>
    <property name="kdenlive_id">qtblend</property>
    <property name="rect">00:00:00.033=56 115 216 162 1.000000</property>
    <property name="rotation">00:00:00.033=0</property>
    <property name="compositing">0</property>
    <property name="distort">0</property>
   </filter>
  </entry>
  <entry producer="producer21" in="00:00:00.167" out="00:00:00.167">
   <property name="kdenlive:id">19</property>
   <filter id="filter117">
    <property name="version">0.4</property>
    <property name="mlt_service">frei0r.bluescreen0r</property>
    <property name="kdenlive_id">frei0r.bluescreen0r</property>
    <property name="0">00:00:00.033=0xcfcfcdff</property>
    <property name="1">0.288</property>
    <property name="2">0</property>
   </filter>
   <filter id="filter118">
    <property name="rotate_center">1</property>
    <property name="mlt_service">qtblend</property>
    <property name="kdenlive_id">qtblend</property>
    <property name="rect">00:00:00.033=56 115 216 162 1.000000</property>
    <property name="rotation">00:00:00.033=0</property>
    <property name="compositing">0</property>
    <property name="distort">0</property>
   </filter>
  </entry>
  <entry producer="producer21" in="00:00:00.167" out="00:00:00.167">
   <property name="kdenlive:id">19</property>
   <filter id="filter119">
    <property name="version">0.4</property>
    <property name="mlt_service">frei0r.bluescreen0r</property>
    <property name="kdenlive_id">frei0r.bluescreen0r</property>
    <property name="0">00:00:00.033=0xcfcfcdff</property>
    <property name="1">0.288</property>
    <property name="2">0</property>
   </filter>
   <filter id="filter120">
    <property name="rotate_center">1</property>
    <property name="mlt_service">qtblend</property>
    <property name="kdenlive_id">qtblend</property>
    <property name="rect">00:00:00.033=56 115 216 162 1.000000</property>
    <property name="rotation">00:00:00.033=0</property>
    <property name="compositing">0</property>
    <property name="distort">0</property>
   </filter>
  </entry>
  <entry producer="producer21" in="00:00:00.167" out="00:00:00.167">
   <property name="kdenlive:id">19</property>
   <filter id="filter121">
    <property name="version">0.4</property>
    <property name="mlt_service">frei0r.bluescreen0r</property>
    <property name="kdenlive_id">frei0r.bluescreen0r</property>
    <property name="0">00:00:00.033=0xcfcfcdff</property>
    <property name="1">0.288</property>
    <property name="2">0</property>
   </filter>
   <filter id="filter122">
    <property name="rotate_center">1</property>
    <property name="mlt_service">qtblend</property>
    <property name="kdenlive_id">qtblend</property>
    <property name="rect">00:00:00.033=56 115 216 162 1.000000</property>
    <property name="rotation">00:00:00.033=0</property>
    <property name="compositing">0</property>
    <property name="distort">0</property>
   </filter>
  </entry>
  <entry producer="producer21" in="00:00:00.167" out="00:00:00.167">
   <property name="kdenlive:id">19</property>
   <filter id="filter123">
    <property name="version">0.4</property>
    <property name="mlt_service">frei0r.bluescreen0r</property>
    <property name="kdenlive_id">frei0r.bluescreen0r</property>
    <property name="0">00:00:00.033=0xcfcfcdff</property>
    <property name="1">0.288</property>
    <property name="2">0</property>
   </filter>
   <filter id="filter124">
    <property name="rotate_center">1</property>
    <property name="mlt_service">qtblend</property>
    <property name="kdenlive_id">qtblend</property>
    <property name="rect">00:00:00.033=56 115 216 162 1.000000</property>
    <property name="rotation">00:00:00.033=0</property>
    <property name="compositing">0</property>
    <property name="distort">0</property>
   </filter>
  </entry>
  <entry producer="producer21" in="00:00:00.167" out="00:00:00.167">
   <property name="kdenlive:id">19</property>
   <filter id="filter125">
    <property name="version">0.4</property>
    <property name="mlt_service">frei0r.bluescreen0r</property>
    <property name="kdenlive_id">frei0r.bluescreen0r</property>
    <property name="0">00:00:00.033=0xcfcfcdff</property>
    <property name="1">0.288</property>
    <property name="2">0</property>
   </filter>
   <filter id="filter126">
    <property name="rotate_center">1</property>
    <property name="mlt_service">qtblend</property>
    <property name="kdenlive_id">qtblend</property>
    <property name="rect">00:00:00.033=56 115 216 162 1.000000</property>
    <property name="rotation">00:00:00.033=0</property>
    <property name="compositing">0</property>
    <property name="distort">0</property>
   </filter>
  </entry>
  <entry producer="producer21" in="00:00:00.167" out="00:00:00.167">
   <property name="kdenlive:id">19</property>
   <filter id="filter127">
    <property name="version">0.4</property>
    <property name="mlt_service">frei0r.bluescreen0r</property>
    <property name="kdenlive_id">frei0r.bluescreen0r</property>
    <property name="0">00:00:00.033=0xcfcfcdff</property>
    <property name="1">0.288</property>
    <property name="2">0</property>
   </filter>
   <filter id="filter128">
    <property name="rotate_center">1</property>
    <property name="mlt_service">qtblend</property>
    <property name="kdenlive_id">qtblend</property>
    <property name="rect">00:00:00.033=56 115 216 162 1.000000</property>
    <property name="rotation">00:00:00.033=0</property>
    <property name="compositing">0</property>
    <property name="distort">0</property>
   </filter>
  </entry>
  <entry producer="producer21" in="00:00:00.167" out="00:00:00.167">
   <property name="kdenlive:id">19</property>
   <filter id="filter129">
    <property name="version">0.4</property>
    <property name="mlt_service">frei0r.bluescreen0r</property>
    <property name="kdenlive_id">frei0r.bluescreen0r</property>
    <property name="0">00:00:00.033=0xcfcfcdff</property>
    <property name="1">0.288</property>
    <property name="2">0</property>
   </filter>
   <filter id="filter130">
    <property name="rotate_center">1</property>
    <property name="mlt_service">qtblend</property>
    <property name="kdenlive_id">qtblend</property>
    <property name="rect">00:00:00.033=56 115 216 162 1.000000</property>
    <property name="rotation">00:00:00.033=0</property>
    <property name="compositing">0</property>
    <property name="distort">0</property>
   </filter>
  </entry>
  <entry producer="producer21" in="00:00:00.167" out="00:00:00.167">
   <property name="kdenlive:id">19</property>
   <filter id="filter131">
    <property name="version">0.4</property>
    <property name="mlt_service">frei0r.bluescreen0r</property>
    <property name="kdenlive_id">frei0r.bluescreen0r</property>
    <property name="0">00:00:00.033=0xcfcfcdff</property>
    <property name="1">0.288</property>
    <property name="2">0</property>
   </filter>
   <filter id="filter132">
    <property name="rotate_center">1</property>
    <property name="mlt_service">qtblend</property>
    <property name="kdenlive_id">qtblend</property>
    <property name="rect">00:00:00.033=56 115 216 162 1.000000</property>
    <property name="rotation">00:00:00.033=0</property>
    <property name="compositing">0</property>
    <property name="distort">0</property>
   </filter>
  </entry>
  <entry producer="producer21" in="00:00:00.167" out="00:00:00.167">
   <property name="kdenlive:id">19</property>
   <filter id="filter133">
    <property name="version">0.4</property>
    <property name="mlt_service">frei0r.bluescreen0r</property>
    <property name="kdenlive_id">frei0r.bluescreen0r</property>
    <property name="0">00:00:00.033=0xcfcfcdff</property>
    <property name="1">0.288</property>
    <property name="2">0</property>
   </filter>
   <filter id="filter134">
    <property name="rotate_center">1</property>
    <property name="mlt_service">qtblend</property>
    <property name="kdenlive_id">qtblend</property>
    <property name="rect">00:00:00.033=56 115 216 162 1.000000</property>
    <property name="rotation">00:00:00.033=0</property>
    <property name="compositing">0</property>
    <property name="distort">0</property>
   </filter>
  </entry>
  <entry producer="producer21" in="00:00:00.167" out="00:00:00.167">
   <property name="kdenlive:id">19</property>
   <filter id="filter135">
    <property name="version">0.4</property>
    <property name="mlt_service">frei0r.bluescreen0r</property>
    <property name="kdenlive_id">frei0r.bluescreen0r</property>
    <property name="0">00:00:00.033=0xcfcfcdff</property>
    <property name="1">0.288</property>
    <property name="2">0</property>
   </filter>
   <filter id="filter136">
    <property name="rotate_center">1</property>
    <property name="mlt_service">qtblend</property>
    <property name="kdenlive_id">qtblend</property>
    <property name="rect">00:00:00.033=56 115 216 162 1.000000</property>
    <property name="rotation">00:00:00.033=0</property>
    <property name="compositing">0</property>
    <property name="distort">0</property>
   </filter>
  </entry>
  <entry producer="producer21" in="00:00:00.167" out="00:00:00.167">
   <property name="kdenlive:id">19</property>
   <filter id="filter137">
    <property name="version">0.4</property>
    <property name="mlt_service">frei0r.bluescreen0r</property>
    <property name="kdenlive_id">frei0r.bluescreen0r</property>
    <property name="0">00:00:00.033=0xcfcfcdff</property>
    <property name="1">0.288</property>
    <property name="2">0</property>
   </filter>
   <filter id="filter138">
    <property name="rotate_center">1</property>
    <property name="mlt_service">qtblend</property>
    <property name="kdenlive_id">qtblend</property>
    <property name="rect">00:00:00.033=56 115 216 162 1.000000</property>
    <property name="rotation">00:00:00.033=0</property>
    <property name="compositing">0</property>
    <property name="distort">0</property>
   </filter>
  </entry>
  <entry producer="producer21" in="00:00:00.167" out="00:00:00.167">
   <property name="kdenlive:id">19</property>
   <filter id="filter139">
    <property name="version">0.4</property>
    <property name="mlt_service">frei0r.bluescreen0r</property>
    <property name="kdenlive_id">frei0r.bluescreen0r</property>
    <property name="0">00:00:00.033=0xcfcfcdff</property>
    <property name="1">0.288</property>
    <property name="2">0</property>
   </filter>
   <filter id="filter140">
    <property name="rotate_center">1</property>
    <property name="mlt_service">qtblend</property>
    <property name="kdenlive_id">qtblend</property>
    <property name="rect">00:00:00.033=56 115 216 162 1.000000</property>
    <property name="rotation">00:00:00.033=0</property>
    <property name="compositing">0</property>
    <property name="distort">0</property>
   </filter>
  </entry>
  <entry producer="producer21" in="00:00:00.167" out="00:00:00.167">
   <property name="kdenlive:id">19</property>
   <filter id="filter141">
    <property name="version">0.4</property>
    <property name="mlt_service">frei0r.bluescreen0r</property>
    <property name="kdenlive_id">frei0r.bluescreen0r</property>
    <property name="0">00:00:00.033=0xcfcfcdff</property>
    <property name="1">0.288</property>
    <property name="2">0</property>
   </filter>
   <filter id="filter142">
    <property name="rotate_center">1</property>
    <property name="mlt_service">qtblend</property>
    <property name="kdenlive_id">qtblend</property>
    <property name="rect">00:00:00.033=56 115 216 162 1.000000</property>
    <property name="rotation">00:00:00.033=0</property>
    <property name="compositing">0</property>
    <property name="distort">0</property>
   </filter>
  </entry>
  <entry producer="producer21" in="00:00:00.167" out="00:00:00.167">
   <property name="kdenlive:id">19</property>
   <filter id="filter143">
    <property name="version">0.4</property>
    <property name="mlt_service">frei0r.bluescreen0r</property>
    <property name="kdenlive_id">frei0r.bluescreen0r</property>
    <property name="0">00:00:00.033=0xcfcfcdff</property>
    <property name="1">0.288</property>
    <property name="2">0</property>
    <property name="kdenlive:collapsed">0</property>
   </filter>
   <filter id="filter144">
    <property name="rotate_center">1</property>
    <property name="mlt_service">qtblend</property>
    <property name="kdenlive_id">qtblend</property>
    <property name="rect">00:00:00.033=56 115 216 162 1.000000</property>
    <property name="rotation">00:00:00.033=0</property>
    <property name="compositing">0</property>
    <property name="distort">0</property>
    <property name="kdenlive:collapsed">0</property>
   </filter>
  </entry>
  <entry producer="producer21" in="00:00:00.167" out="00:00:00.167">
   <property name="kdenlive:id">19</property>
   <filter id="filter145">
    <property name="version">0.4</property>
    <property name="mlt_service">frei0r.bluescreen0r</property>
    <property name="kdenlive_id">frei0r.bluescreen0r</property>
    <property name="0">00:00:00.033=0xcfcfcdff</property>
    <property name="1">0.288</property>
    <property name="2">0</property>
   </filter>
   <filter id="filter146">
    <property name="rotate_center">1</property>
    <property name="mlt_service">qtblend</property>
    <property name="kdenlive_id">qtblend</property>
    <property name="rect">00:00:00.033=56 115 216 162 1.000000</property>
    <property name="rotation">00:00:00.033=0</property>
    <property name="compositing">0</property>
    <property name="distort">0</property>
   </filter>
  </entry>
 </playlist>
 <playlist id="playlist39"/>
 <tractor id="tractor20" in="00:00:00.000" out="00:00:01.000">
  <property name="kdenlive:trackheight">67</property>
  <property name="kdenlive:timeline_active">1</property>
  <property name="kdenlive:collapsed">0</property>
  <property name="kdenlive:thumbs_format"/>
  <property name="kdenlive:audio_rec"/>
  <track hide="audio" producer="playlist38"/>
  <track hide="audio" producer="playlist39"/>
 </tractor>
 <producer id="producer22" in="00:00:00.000" out="00:00:00.000">
  <property name="length">1</property>
  <property name="eof">pause</property>
  <property name="resource">Counters/3.mlt</property>
  <property name="mlt_service">xml</property>
  <property name="xml">was here</property>
  <property name="seekable">1</property>
  <property name="kdenlive:clipname"/>
  <property name="kdenlive:folderid">20</property>
  <property name="kdenlive:id">21</property>
  <property name="kdenlive:clip_type">0</property>
  <property name="kdenlive:file_size">899</property>
  <property name="kdenlive:file_hash">f961b2f5201a575379aa9b98b8b897a6</property>
  <property name="kdenlive:audio_max0">1</property>
  <property name="set.test_audio">1</property>
  <property name="set.test_image">0</property>
 </producer>
 <playlist id="playlist40">
  <blank length="00:00:00.367"/>
  <entry producer="producer22" in="00:00:00.000" out="00:00:00.000">
   <property name="kdenlive:id">21</property>
   <property name="kdenlive:activeeffect">1</property>
   <filter id="filter147">
    <property name="version">0.4</property>
    <property name="mlt_service">frei0r.bluescreen0r</property>
    <property name="kdenlive_id">frei0r.bluescreen0r</property>
    <property name="0">00:00:00.000=0xcfcfcdff</property>
    <property name="1">0.288</property>
    <property name="2">0</property>
    <property name="kdenlive:collapsed">0</property>
   </filter>
   <filter id="filter148">
    <property name="rotate_center">1</property>
    <property name="mlt_service">qtblend</property>
    <property name="kdenlive_id">qtblend</property>
    <property name="rect">00:00:00.000=124 115 216 162 1.000000</property>
    <property name="rotation">00:00:00.000=0</property>
    <property name="compositing">0</property>
    <property name="distort">0</property>
    <property name="kdenlive:collapsed">0</property>
   </filter>
  </entry>
  <entry producer="producer22" in="00:00:00.000" out="00:00:00.000">
   <property name="kdenlive:id">21</property>
   <filter id="filter149">
    <property name="version">0.4</property>
    <property name="mlt_service">frei0r.bluescreen0r</property>
    <property name="kdenlive_id">frei0r.bluescreen0r</property>
    <property name="0">00:00:00.000=0xcfcfcdff</property>
    <property name="1">0.288</property>
    <property name="2">0</property>
   </filter>
   <filter id="filter150">
    <property name="rotate_center">1</property>
    <property name="mlt_service">qtblend</property>
    <property name="kdenlive_id">qtblend</property>
    <property name="rect">00:00:00.000=124 115 216 162 1.000000</property>
    <property name="rotation">00:00:00.000=0</property>
    <property name="compositing">0</property>
    <property name="distort">0</property>
   </filter>
  </entry>
  <entry producer="producer22" in="00:00:00.000" out="00:00:00.000">
   <property name="kdenlive:id">21</property>
   <filter id="filter151">
    <property name="version">0.4</property>
    <property name="mlt_service">frei0r.bluescreen0r</property>
    <property name="kdenlive_id">frei0r.bluescreen0r</property>
    <property name="0">00:00:00.000=0xcfcfcdff</property>
    <property name="1">0.288</property>
    <property name="2">0</property>
   </filter>
   <filter id="filter152">
    <property name="rotate_center">1</property>
    <property name="mlt_service">qtblend</property>
    <property name="kdenlive_id">qtblend</property>
    <property name="rect">00:00:00.000=124 115 216 162 1.000000</property>
    <property name="rotation">00:00:00.000=0</property>
    <property name="compositing">0</property>
    <property name="distort">0</property>
   </filter>
  </entry>
  <entry producer="producer22" in="00:00:00.000" out="00:00:00.000">
   <property name="kdenlive:id">21</property>
   <filter id="filter153">
    <property name="version">0.4</property>
    <property name="mlt_service">frei0r.bluescreen0r</property>
    <property name="kdenlive_id">frei0r.bluescreen0r</property>
    <property name="0">00:00:00.000=0xcfcfcdff</property>
    <property name="1">0.288</property>
    <property name="2">0</property>
   </filter>
   <filter id="filter154">
    <property name="rotate_center">1</property>
    <property name="mlt_service">qtblend</property>
    <property name="kdenlive_id">qtblend</property>
    <property name="rect">00:00:00.000=124 115 216 162 1.000000</property>
    <property name="rotation">00:00:00.000=0</property>
    <property name="compositing">0</property>
    <property name="distort">0</property>
   </filter>
  </entry>
  <entry producer="producer22" in="00:00:00.000" out="00:00:00.000">
   <property name="kdenlive:id">21</property>
   <filter id="filter155">
    <property name="version">0.4</property>
    <property name="mlt_service">frei0r.bluescreen0r</property>
    <property name="kdenlive_id">frei0r.bluescreen0r</property>
    <property name="0">00:00:00.000=0xcfcfcdff</property>
    <property name="1">0.288</property>
    <property name="2">0</property>
   </filter>
   <filter id="filter156">
    <property name="rotate_center">1</property>
    <property name="mlt_service">qtblend</property>
    <property name="kdenlive_id">qtblend</property>
    <property name="rect">00:00:00.000=124 115 216 162 1.000000</property>
    <property name="rotation">00:00:00.000=0</property>
    <property name="compositing">0</property>
    <property name="distort">0</property>
   </filter>
  </entry>
  <entry producer="producer22" in="00:00:00.000" out="00:00:00.000">
   <property name="kdenlive:id">21</property>
   <filter id="filter157">
    <property name="version">0.4</property>
    <property name="mlt_service">frei0r.bluescreen0r</property>
    <property name="kdenlive_id">frei0r.bluescreen0r</property>
    <property name="0">00:00:00.000=0xcfcfcdff</property>
    <property name="1">0.288</property>
    <property name="2">0</property>
   </filter>
   <filter id="filter158">
    <property name="rotate_center">1</property>
    <property name="mlt_service">qtblend</property>
    <property name="kdenlive_id">qtblend</property>
    <property name="rect">00:00:00.000=124 115 216 162 1.000000</property>
    <property name="rotation">00:00:00.000=0</property>
    <property name="compositing">0</property>
    <property name="distort">0</property>
   </filter>
  </entry>
  <entry producer="producer22" in="00:00:00.000" out="00:00:00.000">
   <property name="kdenlive:id">21</property>
   <filter id="filter159">
    <property name="version">0.4</property>
    <property name="mlt_service">frei0r.bluescreen0r</property>
    <property name="kdenlive_id">frei0r.bluescreen0r</property>
    <property name="0">00:00:00.000=0xcfcfcdff</property>
    <property name="1">0.288</property>
    <property name="2">0</property>
   </filter>
   <filter id="filter160">
    <property name="rotate_center">1</property>
    <property name="mlt_service">qtblend</property>
    <property name="kdenlive_id">qtblend</property>
    <property name="rect">00:00:00.000=124 115 216 162 1.000000</property>
    <property name="rotation">00:00:00.000=0</property>
    <property name="compositing">0</property>
    <property name="distort">0</property>
   </filter>
  </entry>
  <entry producer="producer22" in="00:00:00.000" out="00:00:00.000">
   <property name="kdenlive:id">21</property>
   <filter id="filter161">
    <property name="version">0.4</property>
    <property name="mlt_service">frei0r.bluescreen0r</property>
    <property name="kdenlive_id">frei0r.bluescreen0r</property>
    <property name="0">00:00:00.000=0xcfcfcdff</property>
    <property name="1">0.288</property>
    <property name="2">0</property>
   </filter>
   <filter id="filter162">
    <property name="rotate_center">1</property>
    <property name="mlt_service">qtblend</property>
    <property name="kdenlive_id">qtblend</property>
    <property name="rect">00:00:00.000=124 115 216 162 1.000000</property>
    <property name="rotation">00:00:00.000=0</property>
    <property name="compositing">0</property>
    <property name="distort">0</property>
   </filter>
  </entry>
  <entry producer="producer22" in="00:00:00.000" out="00:00:00.000">
   <property name="kdenlive:id">21</property>
   <filter id="filter163">
    <property name="version">0.4</property>
    <property name="mlt_service">frei0r.bluescreen0r</property>
    <property name="kdenlive_id">frei0r.bluescreen0r</property>
    <property name="0">00:00:00.000=0xcfcfcdff</property>
    <property name="1">0.288</property>
    <property name="2">0</property>
   </filter>
   <filter id="filter164">
    <property name="rotate_center">1</property>
    <property name="mlt_service">qtblend</property>
    <property name="kdenlive_id">qtblend</property>
    <property name="rect">00:00:00.000=124 115 216 162 1.000000</property>
    <property name="rotation">00:00:00.000=0</property>
    <property name="compositing">0</property>
    <property name="distort">0</property>
   </filter>
  </entry>
  <entry producer="producer22" in="00:00:00.000" out="00:00:00.000">
   <property name="kdenlive:id">21</property>
   <filter id="filter165">
    <property name="version">0.4</property>
    <property name="mlt_service">frei0r.bluescreen0r</property>
    <property name="kdenlive_id">frei0r.bluescreen0r</property>
    <property name="0">00:00:00.000=0xcfcfcdff</property>
    <property name="1">0.288</property>
    <property name="2">0</property>
   </filter>
   <filter id="filter166">
    <property name="rotate_center">1</property>
    <property name="mlt_service">qtblend</property>
    <property name="kdenlive_id">qtblend</property>
    <property name="rect">00:00:00.000=124 115 216 162 1.000000</property>
    <property name="rotation">00:00:00.000=0</property>
    <property name="compositing">0</property>
    <property name="distort">0</property>
   </filter>
  </entry>
  <entry producer="producer22" in="00:00:00.000" out="00:00:00.000">
   <property name="kdenlive:id">21</property>
   <filter id="filter167">
    <property name="version">0.4</property>
    <property name="mlt_service">frei0r.bluescreen0r</property>
    <property name="kdenlive_id">frei0r.bluescreen0r</property>
    <property name="0">00:00:00.000=0xcfcfcdff</property>
    <property name="1">0.288</property>
    <property name="2">0</property>
   </filter>
   <filter id="filter168">
    <property name="rotate_center">1</property>
    <property name="mlt_service">qtblend</property>
    <property name="kdenlive_id">qtblend</property>
    <property name="rect">00:00:00.000=124 115 216 162 1.000000</property>
    <property name="rotation">00:00:00.000=0</property>
    <property name="compositing">0</property>
    <property name="distort">0</property>
   </filter>
  </entry>
  <entry producer="producer22" in="00:00:00.000" out="00:00:00.000">
   <property name="kdenlive:id">21</property>
   <filter id="filter169">
    <property name="version">0.4</property>
    <property name="mlt_service">frei0r.bluescreen0r</property>
    <property name="kdenlive_id">frei0r.bluescreen0r</property>
    <property name="0">00:00:00.000=0xcfcfcdff</property>
    <property name="1">0.288</property>
    <property name="2">0</property>
   </filter>
   <filter id="filter170">
    <property name="rotate_center">1</property>
    <property name="mlt_service">qtblend</property>
    <property name="kdenlive_id">qtblend</property>
    <property name="rect">00:00:00.000=124 115 216 162 1.000000</property>
    <property name="rotation">00:00:00.000=0</property>
    <property name="compositing">0</property>
    <property name="distort">0</property>
   </filter>
  </entry>
  <entry producer="producer22" in="00:00:00.000" out="00:00:00.000">
   <property name="kdenlive:id">21</property>
   <filter id="filter171">
    <property name="version">0.4</property>
    <property name="mlt_service">frei0r.bluescreen0r</property>
    <property name="kdenlive_id">frei0r.bluescreen0r</property>
    <property name="0">00:00:00.000=0xcfcfcdff</property>
    <property name="1">0.288</property>
    <property name="2">0</property>
   </filter>
   <filter id="filter172">
    <property name="rotate_center">1</property>
    <property name="mlt_service">qtblend</property>
    <property name="kdenlive_id">qtblend</property>
    <property name="rect">00:00:00.000=124 115 216 162 1.000000</property>
    <property name="rotation">00:00:00.000=0</property>
    <property name="compositing">0</property>
    <property name="distort">0</property>
   </filter>
  </entry>
  <entry producer="producer22" in="00:00:00.000" out="00:00:00.000">
   <property name="kdenlive:id">21</property>
   <filter id="filter173">
    <property name="version">0.4</property>
    <property name="mlt_service">frei0r.bluescreen0r</property>
    <property name="kdenlive_id">frei0r.bluescreen0r</property>
    <property name="0">00:00:00.000=0xcfcfcdff</property>
    <property name="1">0.288</property>
    <property name="2">0</property>
   </filter>
   <filter id="filter174">
    <property name="rotate_center">1</property>
    <property name="mlt_service">qtblend</property>
    <property name="kdenlive_id">qtblend</property>
    <property name="rect">00:00:00.000=124 115 216 162 1.000000</property>
    <property name="rotation">00:00:00.000=0</property>
    <property name="compositing">0</property>
    <property name="distort">0</property>
   </filter>
  </entry>
  <entry producer="producer22" in="00:00:00.000" out="00:00:00.000">
   <property name="kdenlive:id">21</property>
   <filter id="filter175">
    <property name="version">0.4</property>
    <property name="mlt_service">frei0r.bluescreen0r</property>
    <property name="kdenlive_id">frei0r.bluescreen0r</property>
    <property name="0">00:00:00.000=0xcfcfcdff</property>
    <property name="1">0.288</property>
    <property name="2">0</property>
   </filter>
   <filter id="filter176">
    <property name="rotate_center">1</property>
    <property name="mlt_service">qtblend</property>
    <property name="kdenlive_id">qtblend</property>
    <property name="rect">00:00:00.000=124 115 216 162 1.000000</property>
    <property name="rotation">00:00:00.000=0</property>
    <property name="compositing">0</property>
    <property name="distort">0</property>
   </filter>
  </entry>
  <entry producer="producer22" in="00:00:00.000" out="00:00:00.000">
   <property name="kdenlive:id">21</property>
   <filter id="filter177">
    <property name="version">0.4</property>
    <property name="mlt_service">frei0r.bluescreen0r</property>
    <property name="kdenlive_id">frei0r.bluescreen0r</property>
    <property name="0">00:00:00.000=0xcfcfcdff</property>
    <property name="1">0.288</property>
    <property name="2">0</property>
   </filter>
   <filter id="filter178">
    <property name="rotate_center">1</property>
    <property name="mlt_service">qtblend</property>
    <property name="kdenlive_id">qtblend</property>
    <property name="rect">00:00:00.000=124 115 216 162 1.000000</property>
    <property name="rotation">00:00:00.000=0</property>
    <property name="compositing">0</property>
    <property name="distort">0</property>
   </filter>
  </entry>
  <entry producer="producer22" in="00:00:00.000" out="00:00:00.000">
   <property name="kdenlive:id">21</property>
   <filter id="filter179">
    <property name="version">0.4</property>
    <property name="mlt_service">frei0r.bluescreen0r</property>
    <property name="kdenlive_id">frei0r.bluescreen0r</property>
    <property name="0">00:00:00.000=0xcfcfcdff</property>
    <property name="1">0.288</property>
    <property name="2">0</property>
   </filter>
   <filter id="filter180">
    <property name="rotate_center">1</property>
    <property name="mlt_service">qtblend</property>
    <property name="kdenlive_id">qtblend</property>
    <property name="rect">00:00:00.000=124 115 216 162 1.000000</property>
    <property name="rotation">00:00:00.000=0</property>
    <property name="compositing">0</property>
    <property name="distort">0</property>
   </filter>
  </entry>
  <entry producer="producer22" in="00:00:00.000" out="00:00:00.000">
   <property name="kdenlive:id">21</property>
   <filter id="filter181">
    <property name="version">0.4</property>
    <property name="mlt_service">frei0r.bluescreen0r</property>
    <property name="kdenlive_id">frei0r.bluescreen0r</property>
    <property name="0">00:00:00.000=0xcfcfcdff</property>
    <property name="1">0.288</property>
    <property name="2">0</property>
   </filter>
   <filter id="filter182">
    <property name="rotate_center">1</property>
    <property name="mlt_service">qtblend</property>
    <property name="kdenlive_id">qtblend</property>
    <property name="rect">00:00:00.000=124 115 216 162 1.000000</property>
    <property name="rotation">00:00:00.000=0</property>
    <property name="compositing">0</property>
    <property name="distort">0</property>
   </filter>
  </entry>
  <entry producer="producer22" in="00:00:00.000" out="00:00:00.000">
   <property name="kdenlive:id">21</property>
   <filter id="filter183">
    <property name="version">0.4</property>
    <property name="mlt_service">frei0r.bluescreen0r</property>
    <property name="kdenlive_id">frei0r.bluescreen0r</property>
    <property name="0">00:00:00.000=0xcfcfcdff</property>
    <property name="1">0.288</property>
    <property name="2">0</property>
    <property name="kdenlive:collapsed">0</property>
   </filter>
   <filter id="filter184">
    <property name="rotate_center">1</property>
    <property name="mlt_service">qtblend</property>
    <property name="kdenlive_id">qtblend</property>
    <property name="rect">00:00:00.000=124 115 216 162 1.000000</property>
    <property name="rotation">00:00:00.000=0</property>
    <property name="compositing">0</property>
    <property name="distort">0</property>
    <property name="kdenlive:collapsed">0</property>
   </filter>
  </entry>
  <entry producer="producer22" in="00:00:00.000" out="00:00:00.000">
   <property name="kdenlive:id">21</property>
   <filter id="filter185">
    <property name="version">0.4</property>
    <property name="mlt_service">frei0r.bluescreen0r</property>
    <property name="kdenlive_id">frei0r.bluescreen0r</property>
    <property name="0">00:00:00.000=0xcfcfcdff</property>
    <property name="1">0.288</property>
    <property name="2">0</property>
   </filter>
   <filter id="filter186">
    <property name="rotate_center">1</property>
    <property name="mlt_service">qtblend</property>
    <property name="kdenlive_id">qtblend</property>
    <property name="rect">00:00:00.000=124 115 216 162 1.000000</property>
    <property name="rotation">00:00:00.000=0</property>
    <property name="compositing">0</property>
    <property name="distort">0</property>
   </filter>
  </entry>
 </playlist>
 <playlist id="playlist41"/>
 <tractor id="tractor21" in="00:00:00.000" out="00:00:01.000">
  <property name="kdenlive:trackheight">67</property>
  <property name="kdenlive:timeline_active">1</property>
  <property name="kdenlive:collapsed">0</property>
  <property name="kdenlive:thumbs_format"/>
  <property name="kdenlive:audio_rec"/>
  <track hide="audio" producer="playlist40"/>
  <track hide="audio" producer="playlist41"/>
 </tractor>
 <producer id="producer23" in="00:00:00.000" out="00:00:00.200">
  <property name="length">7</property>
  <property name="eof">pause</property>
  <property name="resource">Counters/4.mlt</property>
  <property name="mlt_service">xml</property>
  <property name="xml">was here</property>
  <property name="seekable">1</property>
  <property name="kdenlive:clipname"/>
  <property name="kdenlive:folderid">20</property>
  <property name="kdenlive:id">22</property>
  <property name="kdenlive:clip_type">0</property>
  <property name="kdenlive:file_size">899</property>
  <property name="kdenlive:file_hash">28508ba9b7d39fba9ad34b203ff4300b</property>
  <property name="kdenlive:audio_max0">1</property>
  <property name="set.test_audio">1</property>
  <property name="set.test_image">0</property>
 </producer>
 <playlist id="playlist42">
  <blank length="00:00:00.400"/>
  <entry producer="producer23" in="00:00:00.000" out="00:00:00.167">
   <property name="kdenlive:id">22</property>
   <property name="kdenlive:activeeffect">1</property>
   <filter id="filter187">
    <property name="version">0.4</property>
    <property name="mlt_service">frei0r.bluescreen0r</property>
    <property name="kdenlive_id">frei0r.bluescreen0r</property>
    <property name="0">00:00:00.000=0xcfcfcdff</property>
    <property name="1">0.288</property>
    <property name="2">0</property>
    <property name="kdenlive:collapsed">0</property>
   </filter>
   <filter id="filter188">
    <property name="rotate_center">1</property>
    <property name="mlt_service">qtblend</property>
    <property name="kdenlive_id">qtblend</property>
    <property name="rect">00:00:00.000=190 115 216 162 1.000000</property>
    <property name="rotation">00:00:00.000=0</property>
    <property name="compositing">0</property>
    <property name="distort">0</property>
    <property name="kdenlive:collapsed">0</property>
   </filter>
  </entry>
  <entry producer="producer23" in="00:00:00.200" out="00:00:00.200">
   <property name="kdenlive:id">22</property>
   <filter id="filter189">
    <property name="version">0.4</property>
    <property name="mlt_service">frei0r.bluescreen0r</property>
    <property name="kdenlive_id">frei0r.bluescreen0r</property>
    <property name="0">00:00:00.200=0xcfcfcdff</property>
    <property name="1">0.288</property>
    <property name="2">0</property>
    <property name="kdenlive:collapsed">0</property>
   </filter>
   <filter id="filter190">
    <property name="rotate_center">1</property>
    <property name="mlt_service">qtblend</property>
    <property name="kdenlive_id">qtblend</property>
    <property name="rect">00:00:00.200=190 115 216 162 1.000000</property>
    <property name="rotation">00:00:00.200=0</property>
    <property name="compositing">0</property>
    <property name="distort">0</property>
    <property name="kdenlive:collapsed">0</property>
   </filter>
  </entry>
  <entry producer="producer23" in="00:00:00.200" out="00:00:00.200">
   <property name="kdenlive:id">22</property>
   <filter id="filter191">
    <property name="version">0.4</property>
    <property name="mlt_service">frei0r.bluescreen0r</property>
    <property name="kdenlive_id">frei0r.bluescreen0r</property>
    <property name="0">00:00:00.033=0xcfcfcdff</property>
    <property name="1">0.288</property>
    <property name="2">0</property>
   </filter>
   <filter id="filter192">
    <property name="rotate_center">1</property>
    <property name="mlt_service">qtblend</property>
    <property name="kdenlive_id">qtblend</property>
    <property name="rect">00:00:00.033=190 115 216 162 1.000000</property>
    <property name="rotation">00:00:00.033=0</property>
    <property name="compositing">0</property>
    <property name="distort">0</property>
   </filter>
  </entry>
  <entry producer="producer23" in="00:00:00.200" out="00:00:00.200">
   <property name="kdenlive:id">22</property>
   <filter id="filter193">
    <property name="version">0.4</property>
    <property name="mlt_service">frei0r.bluescreen0r</property>
    <property name="kdenlive_id">frei0r.bluescreen0r</property>
    <property name="0">00:00:00.033=0xcfcfcdff</property>
    <property name="1">0.288</property>
    <property name="2">0</property>
   </filter>
   <filter id="filter194">
    <property name="rotate_center">1</property>
    <property name="mlt_service">qtblend</property>
    <property name="kdenlive_id">qtblend</property>
    <property name="rect">00:00:00.033=190 115 216 162 1.000000</property>
    <property name="rotation">00:00:00.033=0</property>
    <property name="compositing">0</property>
    <property name="distort">0</property>
   </filter>
  </entry>
  <entry producer="producer23" in="00:00:00.200" out="00:00:00.200">
   <property name="kdenlive:id">22</property>
   <filter id="filter195">
    <property name="version">0.4</property>
    <property name="mlt_service">frei0r.bluescreen0r</property>
    <property name="kdenlive_id">frei0r.bluescreen0r</property>
    <property name="0">00:00:00.033=0xcfcfcdff</property>
    <property name="1">0.288</property>
    <property name="2">0</property>
   </filter>
   <filter id="filter196">
    <property name="rotate_center">1</property>
    <property name="mlt_service">qtblend</property>
    <property name="kdenlive_id">qtblend</property>
    <property name="rect">00:00:00.033=190 115 216 162 1.000000</property>
    <property name="rotation">00:00:00.033=0</property>
    <property name="compositing">0</property>
    <property name="distort">0</property>
   </filter>
  </entry>
  <entry producer="producer23" in="00:00:00.200" out="00:00:00.200">
   <property name="kdenlive:id">22</property>
   <filter id="filter197">
    <property name="version">0.4</property>
    <property name="mlt_service">frei0r.bluescreen0r</property>
    <property name="kdenlive_id">frei0r.bluescreen0r</property>
    <property name="0">00:00:00.033=0xcfcfcdff</property>
    <property name="1">0.288</property>
    <property name="2">0</property>
   </filter>
   <filter id="filter198">
    <property name="rotate_center">1</property>
    <property name="mlt_service">qtblend</property>
    <property name="kdenlive_id">qtblend</property>
    <property name="rect">00:00:00.033=190 115 216 162 1.000000</property>
    <property name="rotation">00:00:00.033=0</property>
    <property name="compositing">0</property>
    <property name="distort">0</property>
   </filter>
  </entry>
  <entry producer="producer23" in="00:00:00.200" out="00:00:00.200">
   <property name="kdenlive:id">22</property>
   <filter id="filter199">
    <property name="version">0.4</property>
    <property name="mlt_service">frei0r.bluescreen0r</property>
    <property name="kdenlive_id">frei0r.bluescreen0r</property>
    <property name="0">00:00:00.033=0xcfcfcdff</property>
    <property name="1">0.288</property>
    <property name="2">0</property>
   </filter>
   <filter id="filter200">
    <property name="rotate_center">1</property>
    <property name="mlt_service">qtblend</property>
    <property name="kdenlive_id">qtblend</property>
    <property name="rect">00:00:00.033=190 115 216 162 1.000000</property>
    <property name="rotation">00:00:00.033=0</property>
    <property name="compositing">0</property>
    <property name="distort">0</property>
   </filter>
  </entry>
  <entry producer="producer23" in="00:00:00.200" out="00:00:00.200">
   <property name="kdenlive:id">22</property>
   <filter id="filter201">
    <property name="version">0.4</property>
    <property name="mlt_service">frei0r.bluescreen0r</property>
    <property name="kdenlive_id">frei0r.bluescreen0r</property>
    <property name="0">00:00:00.033=0xcfcfcdff</property>
    <property name="1">0.288</property>
    <property name="2">0</property>
   </filter>
   <filter id="filter202">
    <property name="rotate_center">1</property>
    <property name="mlt_service">qtblend</property>
    <property name="kdenlive_id">qtblend</property>
    <property name="rect">00:00:00.033=190 115 216 162 1.000000</property>
    <property name="rotation">00:00:00.033=0</property>
    <property name="compositing">0</property>
    <property name="distort">0</property>
   </filter>
  </entry>
  <entry producer="producer23" in="00:00:00.200" out="00:00:00.200">
   <property name="kdenlive:id">22</property>
   <filter id="filter203">
    <property name="version">0.4</property>
    <property name="mlt_service">frei0r.bluescreen0r</property>
    <property name="kdenlive_id">frei0r.bluescreen0r</property>
    <property name="0">00:00:00.033=0xcfcfcdff</property>
    <property name="1">0.288</property>
    <property name="2">0</property>
   </filter>
   <filter id="filter204">
    <property name="rotate_center">1</property>
    <property name="mlt_service">qtblend</property>
    <property name="kdenlive_id">qtblend</property>
    <property name="rect">00:00:00.033=190 115 216 162 1.000000</property>
    <property name="rotation">00:00:00.033=0</property>
    <property name="compositing">0</property>
    <property name="distort">0</property>
   </filter>
  </entry>
  <entry producer="producer23" in="00:00:00.200" out="00:00:00.200">
   <property name="kdenlive:id">22</property>
   <filter id="filter205">
    <property name="version">0.4</property>
    <property name="mlt_service">frei0r.bluescreen0r</property>
    <property name="kdenlive_id">frei0r.bluescreen0r</property>
    <property name="0">00:00:00.033=0xcfcfcdff</property>
    <property name="1">0.288</property>
    <property name="2">0</property>
   </filter>
   <filter id="filter206">
    <property name="rotate_center">1</property>
    <property name="mlt_service">qtblend</property>
    <property name="kdenlive_id">qtblend</property>
    <property name="rect">00:00:00.033=190 115 216 162 1.000000</property>
    <property name="rotation">00:00:00.033=0</property>
    <property name="compositing">0</property>
    <property name="distort">0</property>
   </filter>
  </entry>
  <entry producer="producer23" in="00:00:00.200" out="00:00:00.200">
   <property name="kdenlive:id">22</property>
   <filter id="filter207">
    <property name="version">0.4</property>
    <property name="mlt_service">frei0r.bluescreen0r</property>
    <property name="kdenlive_id">frei0r.bluescreen0r</property>
    <property name="0">00:00:00.033=0xcfcfcdff</property>
    <property name="1">0.288</property>
    <property name="2">0</property>
   </filter>
   <filter id="filter208">
    <property name="rotate_center">1</property>
    <property name="mlt_service">qtblend</property>
    <property name="kdenlive_id">qtblend</property>
    <property name="rect">00:00:00.033=190 115 216 162 1.000000</property>
    <property name="rotation">00:00:00.033=0</property>
    <property name="compositing">0</property>
    <property name="distort">0</property>
   </filter>
  </entry>
  <entry producer="producer23" in="00:00:00.200" out="00:00:00.200">
   <property name="kdenlive:id">22</property>
   <filter id="filter209">
    <property name="version">0.4</property>
    <property name="mlt_service">frei0r.bluescreen0r</property>
    <property name="kdenlive_id">frei0r.bluescreen0r</property>
    <property name="0">00:00:00.033=0xcfcfcdff</property>
    <property name="1">0.288</property>
    <property name="2">0</property>
   </filter>
   <filter id="filter210">
    <property name="rotate_center">1</property>
    <property name="mlt_service">qtblend</property>
    <property name="kdenlive_id">qtblend</property>
    <property name="rect">00:00:00.033=190 115 216 162 1.000000</property>
    <property name="rotation">00:00:00.033=0</property>
    <property name="compositing">0</property>
    <property name="distort">0</property>
   </filter>
  </entry>
  <entry producer="producer23" in="00:00:00.200" out="00:00:00.200">
   <property name="kdenlive:id">22</property>
   <filter id="filter211">
    <property name="version">0.4</property>
    <property name="mlt_service">frei0r.bluescreen0r</property>
    <property name="kdenlive_id">frei0r.bluescreen0r</property>
    <property name="0">00:00:00.033=0xcfcfcdff</property>
    <property name="1">0.288</property>
    <property name="2">0</property>
    <property name="kdenlive:collapsed">0</property>
   </filter>
   <filter id="filter212">
    <property name="rotate_center">1</property>
    <property name="mlt_service">qtblend</property>
    <property name="kdenlive_id">qtblend</property>
    <property name="rect">00:00:00.033=190 115 216 162 1.000000</property>
    <property name="rotation">00:00:00.033=0</property>
    <property name="compositing">0</property>
    <property name="distort">0</property>
    <property name="kdenlive:collapsed">0</property>
   </filter>
  </entry>
  <entry producer="producer23" in="00:00:00.200" out="00:00:00.200">
   <property name="kdenlive:id">22</property>
   <filter id="filter213">
    <property name="version">0.4</property>
    <property name="mlt_service">frei0r.bluescreen0r</property>
    <property name="kdenlive_id">frei0r.bluescreen0r</property>
    <property name="0">00:00:00.033=0xcfcfcdff</property>
    <property name="1">0.288</property>
    <property name="2">0</property>
   </filter>
   <filter id="filter214">
    <property name="rotate_center">1</property>
    <property name="mlt_service">qtblend</property>
    <property name="kdenlive_id">qtblend</property>
    <property name="rect">00:00:00.033=190 115 216 162 1.000000</property>
    <property name="rotation">00:00:00.033=0</property>
    <property name="compositing">0</property>
    <property name="distort">0</property>
   </filter>
  </entry>
 </playlist>
 <playlist id="playlist43"/>
 <tractor id="tractor26" in="00:00:00.000" out="00:00:01.000">
  <property name="kdenlive:trackheight">67</property>
  <property name="kdenlive:timeline_active">1</property>
  <property name="kdenlive:collapsed">0</property>
  <property name="kdenlive:thumbs_format"/>
  <property name="kdenlive:audio_rec"/>
  <track hide="audio" producer="playlist42"/>
  <track hide="audio" producer="playlist43"/>
 </tractor>
 <producer id="producer27" in="00:00:00.000" out="00:00:00.300">
  <property name="length">10</property>
  <property name="eof">pause</property>
  <property name="resource">Counters/5.mlt</property>
  <property name="mlt_service">xml</property>
  <property name="xml">was here</property>
  <property name="seekable">1</property>
  <property name="kdenlive:clipname"/>
  <property name="kdenlive:folderid">20</property>
  <property name="kdenlive:id">23</property>
  <property name="kdenlive:clip_type">0</property>
  <property name="kdenlive:file_size">900</property>
  <property name="kdenlive:file_hash">177e24738f013c35a289559e05992734</property>
  <property name="kdenlive:audio_max0">1</property>
  <property name="set.test_audio">1</property>
  <property name="set.test_image">0</property>
 </producer>
 <producer id="producer28" in="00:00:00.000" out="00:00:00.000">
  <property name="length">1</property>
  <property name="eof">pause</property>
  <property name="resource">Counters/3.mlt</property>
  <property name="mlt_service">xml</property>
  <property name="xml">was here</property>
  <property name="seekable">1</property>
  <property name="kdenlive:clipname"/>
  <property name="kdenlive:folderid">20</property>
  <property name="kdenlive:id">21</property>
  <property name="kdenlive:clip_type">0</property>
  <property name="kdenlive:file_size">899</property>
  <property name="kdenlive:file_hash">f961b2f5201a575379aa9b98b8b897a6</property>
  <property name="kdenlive:audio_max0">1</property>
  <property name="set.test_audio">1</property>
  <property name="set.test_image">0</property>
 </producer>
 <playlist id="playlist52">
  <blank length="00:00:00.633"/>
  <entry producer="producer27" in="00:00:00.000" out="00:00:00.267">
   <property name="kdenlive:id">23</property>
   <property name="kdenlive:activeeffect">1</property>
   <filter id="filter215">
    <property name="version">0.4</property>
    <property name="mlt_service">frei0r.bluescreen0r</property>
    <property name="kdenlive_id">frei0r.bluescreen0r</property>
    <property name="0">00:00:00.000=0xcfcfcdff</property>
    <property name="1">0.288</property>
    <property name="2">0</property>
    <property name="kdenlive:collapsed">0</property>
   </filter>
   <filter id="filter216">
    <property name="rotate_center">1</property>
    <property name="mlt_service">qtblend</property>
    <property name="kdenlive_id">qtblend</property>
    <property name="rect">00:00:00.000=258 115 216 162 1.000000</property>
    <property name="rotation">00:00:00.000=0</property>
    <property name="compositing">0</property>
    <property name="distort">0</property>
    <property name="kdenlive:collapsed">0</property>
   </filter>
  </entry>
  <entry producer="producer27" in="00:00:00.300" out="00:00:00.300">
   <property name="kdenlive:id">23</property>
   <filter id="filter217">
    <property name="version">0.4</property>
    <property name="mlt_service">frei0r.bluescreen0r</property>
    <property name="kdenlive_id">frei0r.bluescreen0r</property>
    <property name="0">00:00:00.300=0xcfcfcdff</property>
    <property name="1">0.288</property>
    <property name="2">0</property>
    <property name="kdenlive:collapsed">0</property>
   </filter>
   <filter id="filter218">
    <property name="rotate_center">1</property>
    <property name="mlt_service">qtblend</property>
    <property name="kdenlive_id">qtblend</property>
    <property name="rect">00:00:00.300=258 115 216 162 1.000000</property>
    <property name="rotation">00:00:00.300=0</property>
    <property name="compositing">0</property>
    <property name="distort">0</property>
    <property name="kdenlive:collapsed">0</property>
   </filter>
  </entry>
  <entry producer="producer27" in="00:00:00.300" out="00:00:00.300">
   <property name="kdenlive:id">23</property>
   <filter id="filter219">
    <property name="version">0.4</property>
    <property name="mlt_service">frei0r.bluescreen0r</property>
    <property name="kdenlive_id">frei0r.bluescreen0r</property>
    <property name="0">00:00:00.033=0xcfcfcdff</property>
    <property name="1">0.288</property>
    <property name="2">0</property>
    <property name="kdenlive:collapsed">0</property>
   </filter>
   <filter id="filter220">
    <property name="rotate_center">1</property>
    <property name="mlt_service">qtblend</property>
    <property name="kdenlive_id">qtblend</property>
    <property name="rect">00:00:00.033=258 115 216 162 1.000000</property>
    <property name="rotation">00:00:00.033=0</property>
    <property name="compositing">0</property>
    <property name="distort">0</property>
    <property name="kdenlive:collapsed">0</property>
   </filter>
  </entry>
  <entry producer="producer28" in="00:00:00.000" out="00:00:00.000">
   <property name="kdenlive:id">21</property>
   <filter id="filter221">
    <property name="version">0.4</property>
    <property name="mlt_service">frei0r.bluescreen0r</property>
    <property name="kdenlive_id">frei0r.bluescreen0r</property>
    <property name="0">00:00:00.000=0xcfcfcdff</property>
    <property name="1">0.288</property>
    <property name="2">0</property>
   </filter>
   <filter id="filter222">
    <property name="rotate_center">1</property>
    <property name="mlt_service">qtblend</property>
    <property name="kdenlive_id">qtblend</property>
    <property name="rect">00:00:00.000=321 115 216 162 1.000000</property>
    <property name="rotation">00:00:00.000=0</property>
    <property name="compositing">0</property>
    <property name="distort">0</property>
   </filter>
  </entry>
 </playlist>
 <playlist id="playlist53"/>
 <tractor id="tractor27" in="00:00:00.000" out="00:00:01.000">
  <property name="kdenlive:trackheight">67</property>
  <property name="kdenlive:timeline_active">1</property>
  <property name="kdenlive:collapsed">0</property>
  <property name="kdenlive:thumbs_format"/>
  <property name="kdenlive:audio_rec"/>
  <track hide="audio" producer="playlist52"/>
  <track hide="audio" producer="playlist53"/>
 </tractor>
 <producer id="producer29" in="00:00:00.000" out="00:00:00.000">
  <property name="length">1</property>
  <property name="eof">pause</property>
  <property name="resource">Counters/3.mlt</property>
  <property name="mlt_service">xml</property>
  <property name="xml">was here</property>
  <property name="seekable">1</property>
  <property name="kdenlive:clipname"/>
  <property name="kdenlive:folderid">20</property>
  <property name="kdenlive:id">21</property>
  <property name="kdenlive:clip_type">0</property>
  <property name="kdenlive:file_size">899</property>
  <property name="kdenlive:file_hash">f961b2f5201a575379aa9b98b8b897a6</property>
  <property name="kdenlive:audio_max0">1</property>
  <property name="set.test_audio">1</property>
  <property name="set.test_image">0</property>
 </producer>
 <playlist id="playlist54">
  <blank length="00:00:00.967"/>
  <entry producer="producer29" in="00:00:00.000" out="00:00:00.000">
   <property name="kdenlive:id">21</property>
   <property name="kdenlive:activeeffect">1</property>
   <filter id="filter223">
    <property name="version">0.4</property>
    <property name="mlt_service">frei0r.bluescreen0r</property>
    <property name="kdenlive_id">frei0r.bluescreen0r</property>
    <property name="0">00:00:00.000=0xcfcfcdff</property>
    <property name="1">0.288</property>
    <property name="2">0</property>
    <property name="kdenlive:collapsed">0</property>
   </filter>
   <filter id="filter224">
    <property name="rotate_center">1</property>
    <property name="mlt_service">qtblend</property>
    <property name="kdenlive_id">qtblend</property>
    <property name="rect">00:00:00.000=321 115 216 162 1.000000</property>
    <property name="rotation">00:00:00.000=0</property>
    <property name="compositing">0</property>
    <property name="distort">0</property>
    <property name="kdenlive:collapsed">0</property>
   </filter>
  </entry>
  <entry producer="producer29" in="00:00:00.000" out="00:00:00.000">
   <property name="kdenlive:id">21</property>
   <filter id="filter233">
    <property name="version">0.4</property>
    <property name="mlt_service">frei0r.bluescreen0r</property>
    <property name="kdenlive_id">frei0r.bluescreen0r</property>
    <property name="0">00:00:00.000=0xcfcfcdff</property>
    <property name="1">0.288</property>
    <property name="2">0</property>
   </filter>
   <filter id="filter234">
    <property name="rotate_center">1</property>
    <property name="mlt_service">qtblend</property>
    <property name="kdenlive_id">qtblend</property>
    <property name="rect">00:00:00.000=321 115 216 162 1.000000</property>
    <property name="rotation">00:00:00.000=0</property>
    <property name="compositing">0</property>
    <property name="distort">0</property>
   </filter>
  </entry>
 </playlist>
 <playlist id="playlist55"/>
 <tractor id="tractor28" in="00:00:00.000" out="00:00:01.000">
  <property name="kdenlive:trackheight">67</property>
  <property name="kdenlive:timeline_active">1</property>
  <property name="kdenlive:collapsed">0</property>
  <property name="kdenlive:thumbs_format"/>
  <property name="kdenlive:audio_rec"/>
  <track hide="audio" producer="playlist54"/>
  <track hide="audio" producer="playlist55"/>
 </tractor>
 <tractor id="{3bc55d03-0d3c-406f-9461-db2138fce02e}" in="00:00:00.000" out="00:00:01.000">
  <property name="kdenlive:duration">00:00:01:01</property>
  <property name="kdenlive:maxduration">31</property>
  <property name="kdenlive:clipname">populationcounter</property>
  <property name="kdenlive:description"/>
  <property name="kdenlive:uuid">{3bc55d03-0d3c-406f-9461-db2138fce02e}</property>
  <property name="kdenlive:producer_type">17</property>
  <property name="kdenlive:id">24</property>
  <property name="kdenlive:clip_type">0</property>
  <property name="kdenlive:file_hash">f5beb620f1a504db942a70d032a43912</property>
  <property name="kdenlive:folderid">2</property>
  <property name="kdenlive:sequenceproperties.activeTrack">2</property>
  <property name="kdenlive:sequenceproperties.scrollPos">0</property>
  <property name="kdenlive:sequenceproperties.zonein">0</property>
  <property name="kdenlive:sequenceproperties.zoneout">75</property>
  <property name="kdenlive:sequenceproperties.disablepreview">0</property>
  <property name="kdenlive:sequenceproperties.documentuuid">{37616d38-aa80-40b1-8422-0b29fbb66c66}</property>
  <property name="kdenlive:sequenceproperties.hasAudio">1</property>
  <property name="kdenlive:sequenceproperties.hasVideo">1</property>
  <property name="kdenlive:sequenceproperties.position">109</property>
  <property name="kdenlive:sequenceproperties.tracks">4</property>
  <property name="kdenlive:sequenceproperties.tracksCount">9</property>
  <property name="kdenlive:sequenceproperties.verticalzoom">1</property>
  <property name="kdenlive:sequenceproperties.zoom">1</property>
  <property name="kdenlive:sequenceproperties.groups">[
]
</property>
  <property name="kdenlive:sequenceproperties.guides">[
]
</property>
  <track producer="producer18"/>
  <track producer="tractor16"/>
  <track producer="tractor17"/>
  <track producer="tractor18"/>
  <track producer="tractor19"/>
  <track producer="tractor20"/>
  <track producer="tractor21"/>
  <track producer="tractor26"/>
  <track producer="tractor27"/>
  <track producer="tractor28"/>
  <transition id="transition15">
   <property name="a_track">0</property>
   <property name="b_track">1</property>
   <property name="mlt_service">mix</property>
   <property name="kdenlive_id">mix</property>
   <property name="internal_added">237</property>
   <property name="always_active">1</property>
   <property name="accepts_blanks">1</property>
   <property name="sum">1</property>
  </transition>
  <transition id="transition16">
   <property name="a_track">0</property>
   <property name="b_track">2</property>
   <property name="mlt_service">mix</property>
   <property name="kdenlive_id">mix</property>
   <property name="internal_added">237</property>
   <property name="always_active">1</property>
   <property name="accepts_blanks">1</property>
   <property name="sum">1</property>
  </transition>
  <transition id="transition17">
   <property name="a_track">0</property>
   <property name="b_track">3</property>
   <property name="compositing">0</property>
   <property name="distort">0</property>
   <property name="rotate_center">0</property>
   <property name="mlt_service">qtblend</property>
   <property name="kdenlive_id">qtblend</property>
   <property name="internal_added">237</property>
   <property name="always_active">1</property>
  </transition>
  <transition id="transition18">
   <property name="a_track">0</property>
   <property name="b_track">4</property>
   <property name="compositing">0</property>
   <property name="distort">0</property>
   <property name="rotate_center">0</property>
   <property name="mlt_service">qtblend</property>
   <property name="kdenlive_id">qtblend</property>
   <property name="internal_added">237</property>
   <property name="always_active">1</property>
  </transition>
  <transition id="transition19">
   <property name="a_track">0</property>
   <property name="b_track">5</property>
   <property name="compositing">0</property>
   <property name="distort">0</property>
   <property name="rotate_center">0</property>
   <property name="mlt_service">qtblend</property>
   <property name="kdenlive_id">qtblend</property>
   <property name="internal_added">237</property>
   <property name="always_active">1</property>
  </transition>
  <transition id="transition20">
   <property name="a_track">0</property>
   <property name="b_track">6</property>
   <property name="compositing">0</property>
   <property name="distort">0</property>
   <property name="rotate_center">0</property>
   <property name="mlt_service">qtblend</property>
   <property name="kdenlive_id">qtblend</property>
   <property name="internal_added">237</property>
   <property name="always_active">1</property>
  </transition>
  <transition id="transition21">
   <property name="a_track">0</property>
   <property name="b_track">7</property>
   <property name="compositing">0</property>
   <property name="distort">0</property>
   <property name="rotate_center">0</property>
   <property name="mlt_service">qtblend</property>
   <property name="kdenlive_id">qtblend</property>
   <property name="internal_added">237</property>
   <property name="always_active">1</property>
  </transition>
  <transition id="transition26">
   <property name="a_track">0</property>
   <property name="b_track">8</property>
   <property name="compositing">0</property>
   <property name="distort">0</property>
   <property name="rotate_center">0</property>
   <property name="mlt_service">qtblend</property>
   <property name="kdenlive_id">qtblend</property>
   <property name="internal_added">237</property>
   <property name="always_active">1</property>
  </transition>
  <transition id="transition27">
   <property name="a_track">0</property>
   <property name="b_track">9</property>
   <property name="compositing">0</property>
   <property name="distort">0</property>
   <property name="rotate_center">0</property>
   <property name="mlt_service">qtblend</property>
   <property name="kdenlive_id">qtblend</property>
   <property name="internal_added">237</property>
   <property name="always_active">1</property>
  </transition>
  <filter id="filter235">
   <property name="channel">-1</property>
   <property name="mlt_service">panner</property>
   <property name="internal_added">237</property>
   <property name="start">0.5</property>
   <property name="disable">1</property>
  </filter>
  <filter id="filter236">
   <property name="window">75</property>
   <property name="max_gain">20dB</property>
   <property name="mlt_service">volume</property>
   <property name="internal_added">237</property>
   <property name="disable">1</property>
  </filter>
 </tractor>
 <producer id="producer30" in="00:00:00.000" out="00:00:07.767">
  <property name="length">234</property>
  <property name="eof">loop</property>
  <property name="resource">C:/Users/PC/Videos/animations/countryhighlight.json</property>
  <property name="background">#00000000</property>
  <property name="aspect_ratio">1</property>
  <property name="progressive">1</property>
  <property name="seekable">1</property>
  <property name="meta.media.width">480</property>
  <property name="meta.media.height">360</property>
  <property name="meta.media.sample_aspect_num">1</property>
  <property name="meta.media.sample_aspect_den">1</property>
  <property name="meta.media.frame_rate">30</property>
  <property name="first_frame">0</property>
  <property name="mlt_service">glaxnimate</property>
  <property name="kdenlive:folderid">-1</property>
  <property name="kdenlive:clipname"/>
  <property name="kdenlive:id">35</property>
  <property name="kdenlive:clip_type">2</property>
  <property name="kdenlive:file_size">3853</property>
  <property name="kdenlive:file_hash">087a381f7de8ed90cbcfacde23d12e8d</property>
 </producer>
 <chain id="chain14" out="00:09:11.800">
  <property name="length">16555</property>
  <property name="eof">pause</property>
  <property name="resource">C:/Users/PC/Downloads/y2mate.com - Brunei Traditional Music.mp3</property>
  <property name="mlt_service">avformat</property>
  <property name="meta.media.nb_streams">1</property>
  <property name="meta.media.0.stream.type">audio</property>
  <property name="meta.media.0.codec.sample_fmt">fltp</property>
  <property name="meta.media.0.codec.sample_rate">44100</property>
  <property name="meta.media.0.codec.channels">2</property>
  <property name="meta.media.0.codec.name">mp3float</property>
  <property name="meta.media.0.codec.long_name">MP3 (MPEG audio layer 3)</property>
  <property name="meta.media.0.codec.bit_rate">128000</property>
  <property name="meta.attr.0.stream.encoder.markup">Lavc58.34</property>
  <property name="meta.attr.major_brand.markup">M4A </property>
  <property name="meta.attr.minor_version.markup">512</property>
  <property name="meta.attr.compatible_brands.markup">isomiso2</property>
  <property name="meta.attr.encoder.markup">Lavf58.19.102</property>
  <property name="seekable">1</property>
  <property name="astream">0</property>
  <property name="vstream">-1</property>
  <property name="audio_index">0</property>
  <property name="video_index">-1</property>
  <property name="kdenlive:clipname"/>
  <property name="kdenlive:clip_type">1</property>
  <property name="kdenlive:folderid">-1</property>
  <property name="kdenlive:id">37</property>
  <property name="kdenlive:file_size">8830083</property>
  <property name="kdenlive:file_hash">fe3cdca298df6016dc867b80fad3d531</property>
  <property name="kdenlive:audio_max0">233</property>
 </chain>
 <playlist id="main_bin">
  <property name="kdenlive:folder.-1.2">Sequences</property>
  <property name="kdenlive:folder.-1.11">Animations</property>
  <property name="kdenlive:folder.-1.20">Counters</property>
  <property name="kdenlive:docproperties.activetimeline">{fe5d7fd0-f9e7-44fe-aaca-bd9f1ec5622e}</property>
  <property name="kdenlive:docproperties.audioChannels">2</property>
  <property name="kdenlive:docproperties.browserurl">C:/Users/PC/Videos/</property>
  <property name="kdenlive:docproperties.compositing">1</property>
  <property name="kdenlive:docproperties.documentid">1701691633103</property>
  <property name="kdenlive:docproperties.enableTimelineZone">0</property>
  <property name="kdenlive:docproperties.enableexternalproxy">0</property>
  <property name="kdenlive:docproperties.enableproxy">0</property>
  <property name="kdenlive:docproperties.externalproxyparams">./;;.LRV;./;;.MP4</property>
  <property name="kdenlive:docproperties.generateimageproxy">0</property>
  <property name="kdenlive:docproperties.generateproxy">0</property>
  <property name="kdenlive:docproperties.guidesCategories">[&#xd;
    {&#xd;
        "color": "#9b59b6",&#xd;
        "comment": "Category 1",&#xd;
        "index": 0&#xd;
    },&#xd;
    {&#xd;
        "color": "#3daee9",&#xd;
        "comment": "Category 2",&#xd;
        "index": 1&#xd;
    },&#xd;
    {&#xd;
        "color": "#1abc9c",&#xd;
        "comment": "Category 3",&#xd;
        "index": 2&#xd;
    },&#xd;
    {&#xd;
        "color": "#1cdc9a",&#xd;
        "comment": "Category 4",&#xd;
        "index": 3&#xd;
    },&#xd;
    {&#xd;
        "color": "#c9ce3b",&#xd;
        "comment": "Category 5",&#xd;
        "index": 4&#xd;
    },&#xd;
    {&#xd;
        "color": "#fdbc4b",&#xd;
        "comment": "Category 6",&#xd;
        "index": 5&#xd;
    },&#xd;
    {&#xd;
        "color": "#f39c1f",&#xd;
        "comment": "Category 7",&#xd;
        "index": 6&#xd;
    },&#xd;
    {&#xd;
        "color": "#f47750",&#xd;
        "comment": "Category 8",&#xd;
        "index": 7&#xd;
    },&#xd;
    {&#xd;
        "color": "#da4453",&#xd;
        "comment": "Category 9",&#xd;
        "index": 8&#xd;
    }&#xd;
]&#xd;
</property>
  <property name="kdenlive:docproperties.kdenliveversion">23.08.1</property>
  <property name="kdenlive:docproperties.opensequences">{37616d38-aa80-40b1-8422-0b29fbb66c66};{fe5d7fd0-f9e7-44fe-aaca-bd9f1ec5622e};{3bc55d03-0d3c-406f-9461-db2138fce02e}</property>
  <property name="kdenlive:docproperties.previewextension"/>
  <property name="kdenlive:docproperties.previewparameters"/>
  <property name="kdenlive:docproperties.profile">C:/Users/PC/AppData/Roaming/kdenlive/profiles/customprofile8</property>
  <property name="kdenlive:docproperties.proxyextension"/>
  <property name="kdenlive:docproperties.proxyimageminsize">2000</property>
  <property name="kdenlive:docproperties.proxyimagesize">800</property>
  <property name="kdenlive:docproperties.proxyminsize">1000</property>
  <property name="kdenlive:docproperties.proxyparams"/>
  <property name="kdenlive:docproperties.proxyresize">640</property>
  <property name="kdenlive:docproperties.seekOffset">30000</property>
  <property name="kdenlive:docproperties.uuid">{37616d38-aa80-40b1-8422-0b29fbb66c66}</property>
  <property name="kdenlive:docproperties.version">1.1</property>
  <property name="kdenlive:expandedFolders">11</property>
  <property name="kdenlive:binZoom">4</property>
  <property name="kdenlive:documentnotes"/>
  <property name="xml_retain">1</property>
  <entry producer="chain0" in="00:00:00.000" out="00:01:12.733"/>
  <entry producer="chain1" in="00:00:00.000" out="00:03:46.133"/>
  <entry producer="chain2" in="00:00:00.000" out="00:05:04.333"/>
  <entry producer="chain8" in="00:00:00.000" out="00:01:36.600"/>
  <entry producer="chain9" in="00:00:00.000" out="00:04:47.167"/>
  <entry producer="chain10" in="00:00:00.000" out="00:05:07.933"/>
  <entry producer="producer8" in="00:00:00.000" out="00:00:04.967"/>
  <entry producer="producer2" in="00:00:00.000" out="00:00:04.967"/>
  <entry producer="producer3" in="00:00:00.000" out="00:00:04.967"/>
  <entry producer="chain11" in="00:00:00.000" out="00:01:44.200"/>
  <entry producer="producer4" in="00:00:00.000" out="00:00:07.500"/>
  <entry producer="producer9" in="00:00:00.000" out="00:00:00.133"/>
  <entry producer="producer10" in="00:00:00.000" out="00:00:00.167"/>
  <entry producer="producer11" in="00:00:00.000" out="00:00:00.000"/>
  <entry producer="producer12" in="00:00:00.000" out="00:00:00.200"/>
  <entry producer="producer13" in="00:00:00.000" out="00:00:00.300"/>
  <entry producer="producer15" in="00:00:00.000" out="00:00:04.967"/>
  <entry producer="producer24" in="00:00:00.000" out="00:00:04.967"/>
  <entry producer="producer6" in="00:00:00.000" out="00:00:04.967"/>
  <entry producer="chain12" in="00:00:00.000" out="00:07:16.567"/>
  <entry producer="{f70fed51-3636-4a8a-833e-61c8b0ea2f4a}" in="00:00:00.000" out="00:16:45.000"/>
  <entry producer="producer5" in="00:00:00.000" out="00:00:17.667"/>
  <entry producer="producer26" in="00:00:00.000" out="00:00:04.967"/>
  <entry producer="producer7" in="00:00:00.000" out="00:00:04.967"/>
  <entry producer="tractor4" in="00:00:00.000" out="00:00:00.000"/>
  <entry producer="{fe5d7fd0-f9e7-44fe-aaca-bd9f1ec5622e}" in="00:00:00.000" out="00:03:39.867"/>
  <entry producer="{3bc55d03-0d3c-406f-9461-db2138fce02e}" in="00:00:00.000" out="00:00:01.000"/>
  <entry producer="producer16" in="00:00:00.000" out="00:00:04.967"/>
  <entry producer="producer30" in="00:00:00.000" out="00:00:07.767"/>
  <entry producer="producer17" in="00:00:00.000" out="00:00:04.967"/>
  <entry producer="chain14" in="00:00:00.000" out="00:09:11.800"/>
 </playlist>
 <tractor id="tractor29" in="00:00:00.000" out="00:09:09.933">
  <property name="kdenlive:projectTractor">1</property>
  <track producer="{fe5d7fd0-f9e7-44fe-aaca-bd9f1ec5622e}" in="00:00:00.000" out="00:09:09.933"/>
 </tractor>
</mlt>
